<svg width="280" height="251" viewBox="0 0 280 251" fill="none" xmlns="http://www.w3.org/2000/svg">
<path d="M280 0.5H0V250.5H280V0.5Z" fill="url(#paint0_linear_448_219)"/>
<path opacity="0.3" d="M11.71 0.97998C11.71 0.97998 4.30002 21.53 21.82 29.28C39.34 37.03 55.85 31.64 57.2 41.75C58.55 51.86 83.48 50.17 84.49 36.02C85.5 21.87 103.36 24.95 115.49 24.59C127.62 24.23 122.23 55.56 141.1 57.92C159.97 60.28 164.68 77.46 156.6 84.87C148.51 92.28 152.22 106.1 166.71 100.37C179.07 95.48 189.47 119.33 213.62 125.38C217.77 126.42 275.14 126.95 280.17 126.7V1.02998L11.71 0.97998Z" fill="white"/>
<path opacity="0.3" d="M0 118.22C0 118.22 16.43 115.41 19.88 122.45C23.33 129.49 23.85 130.46 25.04 130.59C26.23 130.73 44.29 127.71 48.24 127.56C59.29 127.16 66.72 151.62 84.3 147.38C89.79 146.06 114.52 148.21 145.15 155.61C234.05 177.07 280.15 159.55 280.15 159.55V188.57H0V118.22Z" fill="white"/>
<path d="M161.27 149.69C161.27 149.69 154.69 148.08 148.16 147.12C141.63 146.16 142.43 133.31 142.43 133.31C142.43 133.31 142.55 130.99 140.76 130.68C138.97 130.36 139.45 129.99 139.45 129.99L139.39 119.72C139.39 119.72 139.79 117.64 138.87 117.43C137.95 117.22 136.65 116.84 136.55 117.43C136.45 118.02 135.9 128.61 135.9 128.61C135.9 128.61 135.15 130.31 134.47 130.42C133.79 130.53 134.47 110.41 134.47 110.41C134.47 110.41 134.3 107.78 133.43 107.78C132.56 107.78 131.47 106.5 131.47 106.5V100.11C131.47 100.11 131.76 97.95 130.02 97.4C128.28 96.84 126.54 95.08 126.54 95.08C126.54 95.08 124.51 94.12 124.44 97.4C124.37 100.68 123.71 125.19 123.71 125.19C123.71 125.19 121.53 125.19 121.46 127.43C121.39 129.67 120.44 145.79 120.44 145.79C120.44 145.79 119.79 148.58 118.19 148.58C116.59 148.58 111.44 146.1 108.76 150.58C106.08 155.05 105.83 152.91 101.55 153.23C97.27 153.55 95.46 154.27 94.88 155.47C94.3 156.67 86.86 155.47 86.86 155.47C86.86 155.47 86.71 150.52 84.97 150.04C83.23 149.56 83.66 140.3 83.66 140.3C83.66 140.3 83.66 138.22 81.63 137.75C79.6 137.28 81.19 125.29 79.31 125.29C77.43 125.29 74.81 124.97 74.81 124.97V146.05C74.81 146.05 68.43 146.69 67.7 150.52C66.97 154.35 68.72 154.19 65.52 154.35C62.33 154.51 55.36 159.14 53.91 161.54C52.46 163.94 165.34 201.9 165.34 201.9L161.24 149.72L161.27 149.69Z" fill="url(#paint1_linear_448_219)"/>
<path d="M-0.360046 144.87C-0.360046 144.87 8.63995 146.43 8.93995 157.11C9.23995 167.8 14.28 153.33 27.69 153.77C41.11 154.22 43.55 142.13 56.51 152.96C69.47 163.79 82.43 153.1 96 167.57L121 181.37V185.86H-0.360046V144.85V144.87Z" fill="url(#paint2_linear_448_219)"/>
<path d="M123.67 163.56C97.92 172.53 86.61 169.82 78.02 169.19C75.51 169.01 65.26 169.79 54.74 169.9V167.23C54.74 166.86 55.11 166.83 55.11 166.83H55.59C56.16 166.83 56.15 166.17 56.15 166.17L56.13 163.06C56.13 163.06 56.23 162.54 55.89 162.54C55.55 162.54 55.6 162.95 55.6 162.95V165.76C55.6 165.76 55.6 166.34 55.34 166.34C55.08 166.34 55.07 166 55.07 166L54.99 159.71C54.99 159.71 55.03 159.29 54.67 159.29C54.31 159.29 54.32 159.65 54.32 159.65L54.39 165.05C54.39 165.05 54.45 165.57 54.15 165.57C53.85 165.57 53.86 165.05 53.86 165.05V155.97C53.86 155.97 53.86 155.6 53.59 155.6C53.32 155.6 53.36 155.97 53.36 155.97L53.41 165.69C53.41 165.69 53.39 166.49 53.14 166.49C52.89 166.49 52.95 165.74 52.95 165.74V161.5C52.95 161.5 53.05 160.85 52.66 160.85C52.27 160.85 52.36 161.37 52.36 161.37C52.36 161.37 52.51 165.99 52.51 166.48C52.51 167.07 52.85 167.32 53.17 167.32C53.71 167.32 53.67 167.86 53.67 167.86L53.69 169.9C52.11 169.9 50.54 169.9 48.98 169.87C25.81 169.45 -0.730017 167.72 -0.730017 167.72L-1.33002 200.87L167.22 202.12V163.55C167.22 163.55 149.42 154.58 123.67 163.55V163.56Z" fill="url(#paint3_linear_448_219)"/>
<path d="M154.52 175.65C141.42 175.27 124.27 176.95 119.65 177.53C114.8 178.14 101.01 177.83 88.6 177.91V176.43C88.6 175.84 89.28 175.78 89.28 175.78H90.16C91.22 175.78 91.2 174.72 91.2 174.72L91.17 169.69C91.17 169.69 91.35 168.84 90.73 168.84C90.11 168.84 90.2 169.51 90.2 169.51V174.05C90.2 174.05 90.2 175 89.71 175C89.22 175 89.2 174.45 89.2 174.45L89.05 164.26C89.05 164.26 89.1199 163.58 88.45 163.58C87.78 163.58 87.79 164.17 87.79 164.17L87.91 172.92C87.91 172.92 88.02 173.76 87.46 173.76C86.9 173.76 86.92 172.92 86.92 172.92V158.22C86.92 158.22 86.91 157.63 86.42 157.63C85.93 157.63 86 158.22 86 158.22L86.09 173.96C86.09 173.96 86.06 175.25 85.59 175.25C85.1199 175.25 85.24 174.04 85.24 174.04V167.18C85.24 167.18 85.42 166.13 84.71 166.13C84 166.13 84.15 166.97 84.15 166.97C84.15 166.97 84.42 174.45 84.42 175.24C84.42 176.2 85.05 176.6 85.65 176.6C86.66 176.6 86.58 177.48 86.58 177.48V177.94C78.68 178.02 71.59 178.29 68.06 179.1C59.45 181.09 50.62 179.71 45.21 178.39C41.09 177.39 36.86 176.9 32.61 177L21.29 177.25C18.23 177.32 15.17 176.96 12.22 176.18C9.85995 175.56 7.40995 175.33 4.96995 175.4L-0.360046 175.56V190.71H172.09V173.15C172.09 173.15 164.78 175.96 154.51 175.66L154.52 175.65Z" fill="url(#paint4_linear_448_219)"/>
<path d="M285.15 63.01C282.79 63.05 278.35 63.1 272.91 63.13C271.97 63.13 271.15 82.01 270.15 82.01C269.22 82.01 268.1 63.15 267.13 63.15C260.11 63.16 252.21 63.13 245.15 63.01C237.67 62.89 233.42 69.22 227.66 69.28C221.9 69.34 217.46 69.56 216.15 70.01C211.4 71.65 213.84 99.58 213.15 100.01C213.44 101.35 212.81 104.16 209.15 103.01C206.32 102.12 207.7 94.31 207.15 93.01C206.48 91.44 203.45 89.56 201.15 93.01C199.91 94.87 201.02 112 200.15 112.01L185.46 111.84C182.49 112.3 185.09 119.25 180.89 119.63C179.18 119.78 178.47 125.26 179.03 128.39C179.41 130.53 179.53 132.71 179.49 134.88C179.32 143.73 178.99 149.61 179.52 155.36C180.21 162.69 177.82 160.78 176 158.96C174.06 157.02 173.99 143.94 173.99 135.08C173.99 126.22 171.21 125.97 166.41 125.97C161.61 125.97 160.89 132.31 160.85 132.63V132.65C160.83 133.22 160.09 154.84 160.39 163.28C160.69 171.83 154.88 172.21 153.97 172.41C153.06 172.61 128.68 170.98 125.33 170.98C123.4 170.98 121.47 172 119.83 174.92C119.83 174.92 119.83 174.92 119.81 174.95C119.73 175.09 119.65 175.24 119.57 175.4C118.47 177.34 113.59 184.51 102.1 184.14C80.09 183.43 96.56 184.4 91.7 184.09C84.13 183.61 83.29 184.81 77.2 188.03C73.69 189.88 56.42 189.17 41.58 188.1C41.37 188.08 41.24 187.86 41.33 187.67C41.44 187.42 41.21 187.16 40.96 187.24C40.63 187.35 40.32 187.47 40.03 187.6L39.22 186.73C40.12 185.04 40.84 183.17 41.19 182.22C41.28 181.97 41.02 181.74 40.78 181.85C39.34 182.52 38 183.78 36.86 185.19C36.66 185.44 36.26 185.24 36.34 184.93C36.53 184.12 36.69 183.4 36.8 182.88C36.86 182.6 36.52 182.4 36.3 182.6C36.15 182.73 36.02 182.87 35.89 183.02C35.71 183.22 35.39 183.11 35.37 182.84C35.34 182.4 35.26 181.96 35.17 181.54C35.17 181.52 35.17 181.5 35.17 181.48V172.51C35.16 172.35 35.29 172.22 35.45 172.21C39.76 171.94 39.63 168.05 39.62 167.77C39.62 167.76 39.62 167.75 39.62 167.73L40.26 159.32C40.26 159.32 40.52 156.13 38.56 156.13C36.67 156.13 36.92 158.96 36.94 159.14C36.94 159.14 36.94 159.15 36.94 159.16C36.94 159.49 37.06 166.89 36.94 168.64C36.87 169.6 36.17 170.01 35.54 170.18C35.35 170.23 35.16 170.09 35.16 169.89V159.36C35.16 159.36 35.15 159.34 35.15 159.33C35.18 159.03 35.68 153.1 32.09 153.1C28.5 153.1 28.94 158.01 28.97 158.25C28.97 158.25 28.97 158.26 28.97 158.27L29.48 176.27C29.48 176.47 29.3 176.62 29.11 176.57C28.46 176.41 27.71 176.01 27.64 175.01C27.52 173.26 27.64 165.86 27.64 165.53C27.64 165.53 27.64 165.52 27.64 165.51C27.66 165.32 27.92 162.5 26.02 162.5C24.12 162.5 24.32 165.69 24.32 165.69L24.96 174.1C24.96 174.1 24.96 174.12 24.96 174.14C24.95 174.42 24.81 178.39 29.26 178.58C29.42 178.58 29.55 178.71 29.55 178.87L29.66 182.67C29.66 182.99 29.23 183.1 29.09 182.81C28.61 181.78 28.12 180.95 27.79 180.42C27.64 180.18 27.27 180.26 27.24 180.55C27.09 182.09 27.64 184.48 28.26 186.55C28.32 186.76 28.15 186.96 27.94 186.94C27.66 186.91 27.39 186.89 27.12 186.86C27.05 186.86 26.99 186.82 26.94 186.78C26.19 186.06 25.46 185.45 24.98 185.08C24.77 184.92 24.46 185.08 24.5 185.35C24.54 185.65 24.6 185.94 24.66 186.22C24.71 186.42 24.54 186.61 24.34 186.59C21.76 186.33 19.93 186.11 19.22 186C15.11 185.33 1.01997 189.4 -0.82003 189.97C-0.95003 190.01 -0.82003 204.84 -0.82003 204.97V251.97C-0.82003 251.97 281.14 252.09 281.18 251.97C281.18 251.97 296.91 62.75 285.18 62.97L285.15 63.01Z" fill="url(#paint5_linear_448_219)"/>
<path d="M81.7 111.64C95.53 111.64 106.73 100.44 106.73 86.6101C106.73 72.7801 95.53 61.5801 81.7 61.5801C67.87 61.5801 56.67 72.7801 56.67 86.6101C56.67 100.44 67.87 111.64 81.7 111.64Z" fill="url(#paint6_radial_448_219)"/>
<path opacity="0.35" d="M81.7 64.36C93.98 64.36 103.95 74.33 103.95 86.61C103.95 98.89 93.98 108.86 81.7 108.86C69.42 108.86 59.45 98.89 59.45 86.61C59.45 74.33 69.42 64.36 81.7 64.36ZM54.25 86.61C54.25 101.77 66.53 114.06 81.7 114.06C96.87 114.06 109.15 101.78 109.15 86.61C109.15 71.44 96.87 59.16 81.7 59.16C66.53 59.16 54.25 71.44 54.25 86.61Z" fill="#F9E99F"/>
<path d="M19.51 76.3401C19.51 76.3401 19.53 76.3201 19.54 76.3301C20.17 76.6201 20.79 76.9301 21.43 77.2101C21.74 77.3501 22.05 77.4801 22.37 77.6201C22.53 77.6901 22.69 77.7601 22.86 77.8201C22.96 77.8601 23.05 77.9001 23.15 77.9401C22.93 77.7801 22.69 77.6401 22.47 77.4801C22.18 77.2701 21.9 77.0401 21.62 76.8201C21.35 76.6001 21.09 76.3801 20.85 76.1401C20.73 76.0201 20.61 75.8901 20.51 75.7501C20.45 75.6701 20.35 75.5701 20.39 75.4601C20.39 75.4501 20.42 75.4401 20.43 75.4501C21.03 75.9201 21.62 76.4001 22.22 76.8701C22.76 77.2901 23.36 77.6101 23.96 77.9501C23.7 77.6701 23.42 77.4101 23.12 77.1701C22.9 76.9901 22.67 76.8201 22.46 76.6201C22.25 76.4201 22.07 76.1801 21.92 75.9301C21.85 75.8101 21.79 75.7001 21.73 75.5801C21.7 75.5201 21.57 75.3601 21.62 75.2701C21.66 75.2001 21.72 75.2701 21.76 75.3001C21.87 75.4101 21.98 75.5201 22.09 75.6301C22.31 75.8501 22.53 76.0801 22.74 76.3101C22.98 76.5701 23.19 76.8501 23.44 77.1001C23.68 77.3301 23.95 77.5401 24.21 77.7501C24.42 77.9201 24.64 78.0901 24.86 78.2501C24.72 78.0501 24.57 77.8401 24.43 77.6401C24.28 77.4301 24.12 77.2201 23.97 77.0101C23.83 76.8101 23.74 76.5801 23.65 76.3601C23.63 76.3001 23.6 76.2401 23.58 76.1701C23.57 76.1401 23.56 76.1201 23.55 76.0901C23.54 76.0601 23.48 75.9601 23.49 75.9401C23.49 75.9101 23.51 75.8901 23.55 75.9001C23.62 75.9201 23.69 76.0501 23.73 76.1101C23.81 76.2201 23.89 76.3301 23.97 76.4501C24.26 76.8601 24.52 77.3001 24.79 77.7201C25.06 78.1301 25.38 78.5101 25.8 78.7801C25.83 78.7801 25.85 78.7801 25.88 78.7901C25.99 78.8201 26.1 78.8601 26.21 78.9201C26.45 79.0401 26.69 79.1601 26.93 79.2801C27.37 79.5001 27.8 79.7201 28.18 80.0301C28.58 80.3601 28.97 80.7201 29.37 81.0601C29.76 81.3901 30.14 81.7301 30.53 82.0601C30.8 82.2901 31.07 82.5101 31.34 82.7301C31.77 82.7601 32.21 82.8601 32.63 82.9701C33.01 83.0701 33.36 83.2201 33.7 83.4201C33.78 83.4401 33.86 83.4501 33.95 83.4501C34.19 83.4501 34.42 83.4201 34.65 83.4601C35.03 83.5301 35.41 83.7501 35.63 84.0801C35.75 84.1801 35.9 84.2501 36 84.3601C36.08 84.4501 36.13 84.5601 36.14 84.6801C36.16 84.8901 36.04 85.1201 35.84 85.1901C35.84 85.1901 35.84 85.1901 35.83 85.1901C35.83 85.1901 35.81 85.1901 35.8 85.1901C35.79 85.1901 35.77 85.1801 35.79 85.1701C35.8 85.1601 35.82 85.1401 35.83 85.1201C35.84 85.0801 35.85 85.0501 35.86 85.0101C35.86 84.9901 35.86 84.9701 35.86 84.9501C35.79 84.9201 35.72 84.8801 35.65 84.8501C35.53 84.7901 35.45 84.8101 35.33 84.8301C35.14 84.8601 34.95 84.8901 34.76 84.9201C34.39 84.9801 34.02 85.0401 33.66 85.1701H33.65C33.6 85.1901 33.55 85.2101 33.5 85.2301C33.43 85.2601 33.36 85.2901 33.29 85.3301C33.29 85.3301 33.29 85.3301 33.28 85.3301C33.28 85.3301 33.27 85.3301 33.26 85.3301C33.24 85.3301 33.23 85.3101 33.24 85.3001C33.27 85.2801 33.3 85.2601 33.33 85.2401C33.34 85.2401 33.35 85.2201 33.36 85.2101C33.32 85.2101 33.29 85.2101 33.25 85.2301C33.11 85.3801 32.9 85.4901 32.72 85.5801C32.62 85.6301 32.52 85.6701 32.41 85.7101C32.31 85.7501 32.2 85.8001 32.09 85.8201C31.86 85.9001 31.63 85.9701 31.4 86.0501C31.19 86.1201 30.99 86.1801 30.77 86.2101C30.55 86.2401 30.32 86.2401 30.1 86.2301C29.89 86.2201 29.68 86.1601 29.47 86.1601C29.47 86.1601 29.47 86.1701 29.45 86.1601C29.23 86.1301 29.04 86.0201 28.82 85.9701C28.76 85.9601 28.7 85.9401 28.64 85.9401C28.57 85.9401 28.51 85.9901 28.45 86.0101C28.35 86.0601 28.24 86.1001 28.13 86.1401C28.02 86.1801 27.91 86.2101 27.8 86.2201C27.74 86.2201 27.68 86.2201 27.62 86.2501C27.58 86.2601 27.55 86.2701 27.51 86.2701C27.44 86.2701 27.38 86.2301 27.31 86.2501C27.26 86.2501 27.23 86.2801 27.18 86.2901C27.1 86.2901 27.03 86.2701 26.96 86.2301C26.96 86.2301 26.96 86.2301 26.95 86.2301C26.93 86.1901 26.92 86.1601 26.92 86.1201C26.86 86.2001 26.78 86.2501 26.67 86.2601C26.58 86.2601 26.49 86.2801 26.4 86.2801C26.3 86.2801 26.2 86.2601 26.1 86.2801C25.69 86.3201 25.28 86.2301 24.88 86.1601C24.87 86.1601 24.86 86.1601 24.86 86.1401C24.86 86.0901 24.88 86.0401 24.92 86.0001C24.71 86.0201 24.5 85.9401 24.33 85.8101V85.7901C24.39 85.6601 24.51 85.5601 24.65 85.4901C24.51 85.4901 24.38 85.4501 24.25 85.3901C24.2 85.3601 24.14 85.3301 24.09 85.3001C24.05 85.2701 23.95 85.2301 23.93 85.1801C23.88 85.0901 24.15 84.9801 24.28 84.9501C24.18 84.9001 24.1 84.8301 24.04 84.7401C23.98 84.6601 24.06 84.6301 24.13 84.6001C24.04 84.5301 24 84.4201 24.02 84.3101C24.02 84.3101 24 84.3101 23.99 84.3001C23.97 84.3001 23.99 84.2601 24.01 84.2601C24.15 84.2901 24.31 84.2601 24.45 84.2601C24.61 84.2701 24.76 84.2901 24.92 84.3201C25.27 84.3701 25.61 84.4001 25.96 84.3801C26.27 84.3701 26.58 84.3301 26.9 84.3001C27.16 84.2701 27.44 84.2701 27.67 84.1201C27.58 84.1201 27.47 84.1101 27.43 84.0401C27.38 83.9501 27.51 83.8301 27.6 83.7401C27.46 83.7801 27.32 83.8001 27.18 83.7801C27.08 83.7701 26.95 83.7001 27 83.5801C26.9 83.6101 26.79 83.6301 26.68 83.6201C26.63 83.6201 26.57 83.6001 26.53 83.5701C26.49 83.5501 26.45 83.4901 26.41 83.4801C26.39 83.4801 26.35 83.4801 26.33 83.4801C26.3 83.4801 26.28 83.4801 26.25 83.4601C26.22 83.4601 26.2 83.4401 26.18 83.4301C26.1 83.3801 26.05 83.3101 26.02 83.2301C25.81 83.2801 25.59 83.1701 25.52 82.9601C25.5 82.8901 25.5 82.8901 25.44 82.8601C25.39 82.8401 25.35 82.8101 25.3 82.7801C25.22 82.7201 25.17 82.6501 25.12 82.5601C25.07 82.4801 24.95 82.4601 24.88 82.3901C24.85 82.3601 24.83 82.3301 24.81 82.2901C24.78 82.2401 24.78 82.1701 24.72 82.1601C24.66 82.1601 24.61 82.1701 24.55 82.1601C24.51 82.1501 24.47 82.1201 24.44 82.1001C24.39 82.0501 24.35 81.9901 24.34 81.9201C24.28 81.9401 24.21 81.9201 24.15 81.8901C24.04 81.8301 24 81.7101 23.99 81.5901C23.78 81.6701 23.56 81.5101 23.59 81.2801C23.53 81.2801 23.48 81.2301 23.47 81.1701C23.45 81.1901 23.42 81.2001 23.39 81.2101C23.38 81.2101 23.37 81.2101 23.37 81.1901C23.37 81.1501 23.37 81.1101 23.37 81.0701C23.23 81.1001 23.07 81.0801 22.96 80.9601C22.91 80.9001 22.9 80.8201 22.85 80.7601C22.78 80.7001 22.67 80.6601 22.6 80.6101C22.6 80.6101 22.6 80.6001 22.6 80.5901C22.62 80.5201 22.65 80.4701 22.7 80.4401C22.63 80.4401 22.55 80.4201 22.48 80.4001C22.44 80.3901 22.36 80.3801 22.34 80.3301C22.31 80.2801 22.37 80.2301 22.43 80.1901C22.37 80.1901 22.31 80.1901 22.24 80.1701C22.2 80.1701 22.15 80.1501 22.11 80.1301C22.08 80.1101 22.06 80.0801 22.04 80.0601C21.99 80.0301 21.93 80.0401 21.87 80.0201C21.83 80.0101 21.79 79.9801 21.75 79.9501C21.69 79.8901 21.68 79.8001 21.71 79.7301C21.58 79.6601 21.46 79.5801 21.34 79.5001C21.28 79.4601 21.13 79.3801 21.13 79.2901C21.13 79.2401 21.16 79.2401 21.19 79.2101C21.19 79.2101 21.21 79.2101 21.22 79.2001C21.25 79.1601 21.25 79.1401 21.22 79.1201C21.2 79.0901 21.16 79.0701 21.13 79.0501C21.01 78.9601 20.88 78.8801 20.75 78.8101C20.75 78.8101 20.74 78.7901 20.75 78.7801C20.79 78.7401 20.83 78.7001 20.88 78.6801C20.75 78.6101 20.62 78.5501 20.49 78.4901C20.37 78.4301 20.24 78.3801 20.15 78.2701C20.14 78.2601 20.15 78.2401 20.17 78.2401C20.36 78.2801 20.54 78.3001 20.73 78.3301C20.56 78.2701 20.38 78.2101 20.2 78.1701C20.2 78.1701 20.19 78.1701 20.19 78.1501C20.05 78.1001 19.93 77.9901 19.85 77.8701C19.84 77.8501 19.85 77.8301 19.87 77.8301C20.58 77.9201 21.29 78.0201 21.97 78.2101C21.97 78.1701 21.89 78.1301 21.86 78.1101C21.83 78.0901 21.8 78.0901 21.77 78.0701C21.72 78.0501 21.67 78.0301 21.62 78.0101C21.52 77.9701 21.42 77.9401 21.31 77.9101C21.1 77.8401 20.88 77.7801 20.66 77.7101C20.45 77.6401 20.25 77.5601 20.05 77.4701C19.92 77.4101 19.79 77.3301 19.74 77.1901C19.74 77.1701 19.74 77.1501 19.77 77.1601C20.03 77.2501 20.29 77.3401 20.55 77.4301C20.69 77.4701 20.82 77.5201 20.96 77.5501C21.16 77.6001 21.37 77.6401 21.57 77.6901C21.96 77.7901 22.36 77.8901 22.73 78.0401C22.63 77.9601 22.5 77.9101 22.4 77.8601C22.23 77.7701 22.07 77.6901 21.9 77.6101C21.59 77.4601 21.28 77.3301 20.96 77.1901C20.67 77.0701 20.38 76.9401 20.11 76.7801C19.97 76.7001 19.84 76.6101 19.72 76.5101C19.65 76.4501 19.58 76.3701 19.62 76.2701L19.51 76.3401Z" fill="url(#paint7_linear_448_219)"/>
<path d="M36.4 84.5701C36.37 84.3301 36.15 84.2201 35.97 84.1001C35.84 83.9701 35.71 83.8401 35.57 83.7101C35.57 83.7101 35.57 83.7101 35.56 83.7101C35.54 83.7101 35.55 83.6701 35.56 83.6801C35.77 83.7101 35.98 83.7701 36.19 83.8001C36.4 83.8301 36.6 83.8401 36.81 83.8501C37.23 83.8501 37.64 83.9701 38.04 84.0601C38.44 84.1501 38.83 84.2501 39.23 84.3401C39.54 84.4001 39.86 84.4301 40.17 84.4601C40.35 84.4701 40.53 84.5001 40.71 84.4701C40.89 84.4501 41.05 84.3701 41.2 84.2801C41.45 84.1201 41.69 83.9101 41.88 83.7001C42.08 83.4801 42.1 83.1301 42.43 83.0601C42.44 83.0601 42.45 83.0601 42.46 83.0701C42.46 83.0901 42.47 83.1101 42.48 83.1301C42.48 83.1301 42.48 83.1401 42.48 83.1501C42.52 83.4201 42.39 83.6701 42.25 83.8901C42.1 84.1401 41.93 84.4001 41.68 84.5701C41.43 84.7501 41.12 84.8201 40.81 84.8301C40.65 84.8301 40.49 84.8301 40.34 84.8101C40.17 84.7901 39.99 84.7801 39.83 84.8601C40.02 84.9401 40.19 85.0301 40.36 85.1401C40.38 85.1501 40.36 85.1801 40.34 85.1801C40.11 85.1401 39.88 85.1001 39.65 85.0501C39.54 85.0301 39.43 85.0101 39.32 84.9901C39.26 84.9801 39.2 84.9501 39.14 84.9501C39.08 84.9501 39.05 84.9901 39.02 85.0301C39.14 85.2001 38.98 85.4401 39.12 85.5901C39.14 85.6101 39.12 85.6401 39.1 85.6301C38.84 85.4901 38.56 85.3801 38.28 85.2901C38.24 85.4801 37.85 85.3901 37.73 85.3701C37.65 85.3501 37.21 85.2401 37.26 85.0901C37.21 85.0901 37.15 85.0901 37.1 85.0901C37.12 85.1101 37.14 85.1201 37.16 85.1401C37.17 85.1501 37.16 85.1801 37.15 85.1801C36.85 85.2501 36.53 85.2701 36.22 85.2401C36.2 85.2501 36.18 85.2301 36.19 85.2101C36.31 85.0301 36.44 84.8301 36.4 84.6101V84.5701Z" fill="url(#paint8_linear_448_219)"/>
<path d="M33.94 85.3001C34.25 85.1901 34.6 85.1801 34.93 85.1501C35.1 85.1301 35.28 85.0901 35.45 85.1001C35.57 85.1001 35.66 85.1601 35.71 85.2701C35.71 85.2801 35.69 85.3001 35.68 85.2801C35.66 85.3401 35.63 85.4001 35.59 85.4501C35.53 85.5101 35.43 85.4901 35.36 85.4901C35.33 85.4901 35.1 85.5001 35.12 85.4301C34.96 85.4501 34.8 85.4301 34.64 85.4201C34.44 85.4201 34.24 85.4701 34.06 85.3901C34.03 85.3901 33.99 85.3901 33.96 85.3701C33.93 85.3601 33.93 85.3201 33.96 85.3101L33.94 85.3001Z" fill="url(#paint9_linear_448_219)"/>
<path d="M63.46 90.6901C63.46 90.6901 63.39 90.6701 63.36 90.6401C63.33 90.6201 63.32 90.6001 63.29 90.5801C63.15 90.5101 62.97 90.4901 62.81 90.4801C62.63 90.4701 62.44 90.4601 62.26 90.4601C62.04 90.3701 61.89 90.1401 61.78 89.9401C61.63 89.6701 61.49 89.4001 61.35 89.1301C61.21 88.8601 61.09 88.5701 60.99 88.2801C60.89 87.9801 60.81 87.6701 60.69 87.3801C60.64 87.2601 60.58 87.1401 60.48 87.0501C60.37 86.9501 60.22 86.8901 60.14 86.7601C60.14 86.7601 60.14 86.7601 60.12 86.7601C60.05 86.6801 59.98 86.6001 59.92 86.5201C59.77 86.3501 59.62 86.1701 59.47 86.0001C59.16 85.6401 58.85 85.2601 58.59 84.8601C58.45 84.6401 58.32 84.4201 58.2 84.1901C58.2 84.1901 58.19 84.1901 58.18 84.1901C58.18 84.1901 58.17 84.1901 58.16 84.1901C58.13 84.1901 58.13 84.2401 58.13 84.2601C58.16 84.4301 58.23 84.6001 58.3 84.7601C58.32 84.8101 58.34 84.8601 58.37 84.9101C58.29 84.8101 58.21 84.7101 58.13 84.6201C57.9 84.3501 57.65 84.0801 57.37 83.8601V83.8501C57.37 83.8501 57.37 83.8501 57.36 83.8501C57.36 83.8501 57.36 83.8501 57.35 83.8501C57.31 83.9101 57.39 84.0101 57.41 84.0601C57.45 84.1501 57.49 84.2301 57.54 84.3101C57.64 84.4801 57.76 84.6501 57.89 84.8001C57.89 84.8001 57.9 84.8201 57.91 84.8201C57.84 84.7601 57.76 84.7001 57.69 84.6401C57.44 84.4501 57.2 84.2501 56.93 84.0801C56.93 84.0801 56.93 84.0701 56.92 84.0701C56.92 84.0701 56.92 84.0701 56.91 84.0701C56.9 84.0701 56.89 84.0701 56.87 84.0701C56.87 84.0701 56.86 84.0701 56.86 84.0801C56.84 84.1401 56.89 84.1801 56.93 84.2301C57 84.3101 57.07 84.3801 57.14 84.4601C57.28 84.6101 57.43 84.7601 57.58 84.9001C57.72 85.0401 57.87 85.1801 58.02 85.3101C57.99 85.2901 57.95 85.2701 57.92 85.2401C57.77 85.1501 57.6 85.0201 57.42 85.0001C57.42 85.0001 57.41 85.0101 57.42 85.0201C57.46 85.0801 57.52 85.1201 57.57 85.1701C57.65 85.2301 57.72 85.3001 57.8 85.3601C57.92 85.4601 58.04 85.5601 58.16 85.6701C57.88 85.5401 57.65 85.3401 57.4 85.1601C57.1 84.9601 56.77 84.8201 56.41 84.7901C56.39 84.7901 56.39 84.8101 56.41 84.8201C56.65 84.9601 56.89 85.1001 57.13 85.2401C57.34 85.3701 57.55 85.5001 57.75 85.6401C57.37 85.5101 56.99 85.4001 56.59 85.3901C56.58 85.3901 56.56 85.4101 56.58 85.4201C56.67 85.5001 56.78 85.5401 56.89 85.5801C57.01 85.6301 57.12 85.6901 57.23 85.7601C57.13 85.7501 57.03 85.7401 56.94 85.7401C56.93 85.7401 56.92 85.7601 56.93 85.7701C57.06 85.9301 57.21 86.0601 57.39 86.1701C57.34 86.1701 57.29 86.1701 57.23 86.1701C57.22 86.1701 57.21 86.1901 57.22 86.2001C57.31 86.3601 57.43 86.4901 57.59 86.5901C57.54 86.5901 57.48 86.5901 57.43 86.5901C57.43 86.5901 57.41 86.6001 57.42 86.6101C57.42 86.6501 57.45 86.6801 57.48 86.7101C57.46 86.7101 57.44 86.7301 57.42 86.7401V86.7601C57.56 86.9201 57.74 87.0401 57.94 87.1201C57.84 87.1501 57.74 87.1701 57.64 87.2001C57.63 87.2001 57.62 87.2201 57.64 87.2301C57.76 87.3401 57.89 87.4401 58.03 87.5301C57.99 87.5501 57.95 87.5601 57.91 87.5801C57.9 87.5801 57.9 87.6001 57.91 87.6101C57.98 87.7101 58.11 87.7401 58.22 87.7501C58.17 87.8001 58.12 87.8401 58.08 87.8901C58.06 87.9201 58.04 87.9401 58.06 87.9701C58.11 88.0601 58.23 88.1101 58.33 88.1201C58.3 88.1501 58.27 88.1801 58.24 88.2101V88.2301C58.27 88.2601 58.3 88.2801 58.34 88.2901C58.29 88.3801 58.24 88.4601 58.19 88.5501V88.5701C58.28 88.6101 58.38 88.6301 58.48 88.6201C58.43 88.7201 58.42 88.8201 58.43 88.9301C58.43 88.9301 58.43 88.9501 58.45 88.9501C58.5 88.9501 58.54 88.9501 58.58 88.9501C58.54 89.0601 58.53 89.1701 58.56 89.2801C58.56 89.2801 58.56 89.2901 58.58 89.3001C58.72 89.3301 58.84 89.2601 58.96 89.2001C59.09 89.1301 59.22 89.0501 59.35 88.9801C59.13 89.1901 58.95 89.4501 58.81 89.7101V89.7301C58.91 89.7901 59.03 89.8201 59.15 89.8301C59.08 89.9101 59.04 90.0101 59.01 90.1101C59.01 90.1201 59.01 90.1301 59.02 90.1301C59.12 90.1701 59.25 90.2001 59.36 90.1801C59.34 90.2001 59.33 90.2201 59.31 90.2401C59.28 90.2801 59.23 90.3701 59.25 90.4201C59.26 90.4701 59.35 90.5001 59.39 90.5201C59.46 90.5501 59.54 90.5701 59.61 90.5801C59.55 90.6601 59.51 90.7501 59.49 90.8501C59.49 90.8501 59.49 90.8701 59.51 90.8701C59.55 90.8701 59.6 90.8701 59.64 90.8701C59.63 90.9001 59.61 90.9301 59.59 90.9601C59.59 90.9701 59.59 90.9801 59.59 90.9901C59.66 91.0301 59.74 91.0601 59.83 91.0601C59.78 91.1401 59.71 91.2101 59.63 91.2601C59.61 91.2601 59.62 91.2901 59.63 91.3001C59.67 91.3201 59.72 91.3301 59.76 91.3301C59.74 91.3501 59.71 91.3601 59.69 91.3801C59.67 91.3901 59.69 91.4201 59.7 91.4201C59.73 91.4201 59.75 91.4201 59.78 91.4201C59.63 91.5201 59.46 91.5801 59.27 91.6001C59.04 91.6301 58.82 91.6801 58.61 91.7501C58.61 91.7501 58.6 91.7501 58.6 91.7701C58.6 91.8001 58.6 91.8301 58.63 91.8501C58.58 91.8701 58.54 91.9001 58.49 91.9301C58.48 91.9301 58.48 91.9501 58.49 91.9601C58.51 91.9701 58.53 91.9801 58.56 91.9901C58.43 92.1001 58.33 92.2301 58.26 92.3901V92.4101C58.35 92.4701 58.45 92.5101 58.56 92.5201C58.56 92.5901 58.77 92.5901 58.84 92.5901C58.84 92.6001 58.84 92.6101 58.84 92.6201C58.84 92.6201 58.84 92.6401 58.86 92.6401C58.91 92.6401 58.95 92.6401 59 92.6401C59.05 92.6401 59.07 92.6401 59.1 92.6801C59.12 92.7101 59.13 92.7301 59.18 92.7301C59.25 92.7301 59.33 92.6901 59.4 92.6701C59.49 92.6401 59.58 92.6101 59.67 92.5801C59.82 92.5301 59.99 92.4901 60.13 92.4101C60.27 92.3301 60.4 92.2601 60.55 92.2001C60.72 92.2101 60.9 92.2201 61.07 92.2301C61.25 92.2301 61.43 92.1801 61.6 92.1201C61.77 92.0501 61.94 91.9701 62.1 91.8701C62.21 91.8101 62.33 91.7401 62.44 91.6701C62.62 91.6001 62.75 91.4501 62.89 91.3201C62.98 91.2401 63.09 91.1601 63.2 91.1001C63.25 91.0701 63.31 91.0401 63.36 91.0101C63.4 90.9901 63.44 90.9701 63.48 90.9601C63.48 90.9601 63.6 90.9001 63.59 90.9601C63.59 90.9701 63.6 90.9801 63.61 90.9701C63.67 90.9101 63.68 90.8201 63.63 90.7501C63.61 90.7101 63.58 90.7001 63.54 90.6801L63.46 90.6901Z" fill="url(#paint10_linear_448_219)"/>
<path d="M65.27 89.2801C65.27 89.1201 65.2 88.8401 65 88.8301C65 88.8301 64.98 88.8301 64.99 88.8501C65.01 88.9001 65.03 88.9601 65.05 89.0101C65 88.9301 64.92 88.8701 64.82 88.9001C64.81 88.9001 64.8 88.9101 64.82 88.9201C64.89 89.0001 64.92 89.1001 64.93 89.2001C64.91 89.1001 64.85 89.0101 64.76 88.9401C64.75 88.9401 64.74 88.9401 64.74 88.9501C64.77 89.1601 64.79 89.3901 64.66 89.5701C64.66 89.5301 64.64 89.4901 64.61 89.4601H64.59C64.58 89.5101 64.55 89.5501 64.5 89.5801C64.5 89.5501 64.5 89.5201 64.47 89.5001H64.45C64.42 89.5901 64.35 89.6501 64.27 89.7001C64.18 89.7601 64.08 89.8201 63.98 89.8701C63.8 89.9701 63.62 90.0601 63.44 90.1501C63.44 90.1301 63.44 90.1101 63.44 90.0901C63.44 90.0801 63.42 90.0801 63.42 90.0901C63.38 90.1301 63.33 90.1701 63.28 90.2001C63.26 90.2101 63.24 90.2301 63.22 90.2401C63.18 90.2601 63.17 90.2801 63.15 90.2301C63.15 90.2201 63.13 90.2201 63.12 90.2301C63.09 90.2801 63.05 90.3101 63 90.3301V90.3501C63.02 90.3801 63.06 90.3901 63.09 90.3801C63.16 90.3901 63.23 90.3901 63.29 90.4101C63.37 90.4301 63.45 90.4701 63.52 90.5301H63.54C63.66 90.4901 63.77 90.4101 63.89 90.3501C64.01 90.2901 64.13 90.2501 64.25 90.2001C64.49 90.1101 64.71 89.9701 64.91 89.8201C65 89.7501 65.1 89.6901 65.17 89.6101C65.25 89.5201 65.28 89.4101 65.27 89.3001V89.2801Z" fill="url(#paint11_linear_448_219)"/>
<path d="M40.52 91.72C40.52 91.72 40.54 91.7 40.55 91.71C40.78 91.9 41.03 92.08 41.27 92.26C41.27 92.26 41.27 92.26 41.26 92.25C41.14 92.14 41.02 92.03 40.91 91.91C40.7 91.69 40.49 91.45 40.39 91.16C40.39 91.14 40.41 91.13 40.42 91.14C40.69 91.4 40.97 91.66 41.26 91.89C41.49 92.07 41.74 92.23 41.96 92.42C41.77 92.16 41.55 91.92 41.37 91.65C41.27 91.5 41.19 91.35 41.13 91.18C41.08 91.03 41.03 90.87 41.09 90.72C41.09 90.72 41.11 90.71 41.11 90.72C41.39 91.3 41.78 91.83 42.25 92.27C42.08 92.01 41.93 91.73 41.8 91.45C41.66 91.15 41.47 90.82 41.53 90.48C41.53 90.47 41.55 90.47 41.56 90.48C41.76 90.83 41.94 91.19 42.1 91.55C42.25 91.88 42.42 92.21 42.7 92.46C42.67 92.3 42.58 92.16 42.49 92.02C42.39 91.85 42.32 91.67 42.27 91.48C42.18 91.12 42.07 90.72 42.22 90.36C42.22 90.35 42.24 90.36 42.25 90.36C42.36 90.77 42.46 91.18 42.58 91.58C42.67 91.9 42.75 92.25 42.99 92.5C42.87 92.12 42.77 91.74 42.79 91.34C42.81 91 42.92 90.66 43.15 90.41C43.16 90.4 43.18 90.41 43.17 90.43C43.09 90.86 43.05 91.29 43.03 91.72C43.03 91.93 43.03 92.13 43.07 92.33C43.11 92.51 43.18 92.68 43.27 92.84C43.2 92.62 43.17 92.39 43.16 92.16C43.16 91.91 43.16 91.62 43.27 91.39C43.3 91.33 43.35 91.22 43.42 91.2C43.54 91.17 43.49 91.33 43.48 91.38C43.44 91.67 43.42 91.98 43.43 92.27C43.44 92.59 43.51 92.91 43.68 93.18C43.72 93.22 43.77 93.26 43.8 93.31C43.85 93.39 43.89 93.47 43.94 93.55C44.04 93.73 44.16 93.9 44.29 94.06C44.57 94.33 44.84 94.61 45.09 94.9C45.33 95.18 45.52 95.48 45.66 95.82C45.66 95.76 45.66 95.7 45.64 95.64C45.62 95.64 45.63 95.61 45.64 95.61H45.66C45.84 95.67 46.01 95.74 46.18 95.82C46.27 95.86 46.35 95.91 46.43 95.96C46.52 96.01 46.6 96.08 46.7 96.11C46.79 96.14 46.88 96.14 46.97 96.17C47.07 96.19 47.16 96.22 47.25 96.25C47.42 96.3 47.61 96.36 47.76 96.47V96.49C47.83 96.61 47.81 96.76 47.7 96.85C47.69 96.85 47.67 96.85 47.68 96.83C47.76 96.75 47.63 96.73 47.6 96.73C47.57 96.73 47.54 96.73 47.51 96.73C47.46 96.73 47.4 96.73 47.35 96.73C47.22 96.73 47.11 96.75 46.99 96.8C46.3 96.94 45.63 97.28 45.36 97.99C45.28 98.03 45.21 98.07 45.14 98.12C45 98.22 44.9 98.33 44.83 98.48C44.79 98.56 44.73 98.61 44.65 98.63C44.59 98.64 44.54 98.64 44.53 98.71C44.53 98.75 44.52 98.78 44.5 98.81C44.5 98.82 44.47 98.82 44.47 98.81C44.47 98.77 44.45 98.71 44.42 98.68C44.4 98.77 44.39 98.86 44.38 98.95C44.38 98.97 44.35 98.98 44.34 98.95C44.32 98.91 44.3 98.87 44.28 98.83C44.21 98.9 44.14 98.97 44.09 99.05C44.04 99.12 44 99.2 43.94 99.27C43.82 99.39 43.69 99.35 43.57 99.27C43.56 99.27 43.57 99.24 43.57 99.24C43.57 99.24 43.58 99.24 43.59 99.24C43.55 99.21 43.52 99.17 43.51 99.11C43.51 99.1 43.53 99.09 43.54 99.1C43.6 99.18 43.71 99.17 43.79 99.12C43.85 99.08 43.89 99.02 43.92 98.96C43.83 98.98 43.73 99.02 43.69 99.12C43.69 99.13 43.66 99.13 43.66 99.12C43.66 99.09 43.65 99.07 43.64 99.04C43.64 99.04 43.62 99.04 43.61 99.04C43.59 99.04 43.58 99.02 43.59 99.01C43.65 98.96 43.69 98.9 43.73 98.84C43.65 98.89 43.56 98.94 43.47 98.97C43.37 99.01 43.26 99.05 43.15 99.03C43.14 99.03 43.13 99.01 43.14 99C43.17 98.97 43.22 98.91 43.17 98.88C43.13 98.85 43.06 98.85 43.01 98.84C42.99 98.84 42.99 98.82 43.01 98.8C43.05 98.76 43.09 98.72 43.13 98.68C43.04 98.74 42.96 98.83 42.87 98.89C42.76 98.96 42.63 98.98 42.5 98.96C42.49 98.96 42.48 98.95 42.48 98.93C42.51 98.84 42.54 98.75 42.58 98.66C42.5 98.71 42.42 98.75 42.34 98.79C42.25 98.83 42.15 98.89 42.06 98.9C41.87 98.92 41.96 98.71 42.01 98.58C41.84 98.67 41.65 98.71 41.46 98.68C41.44 98.68 41.43 98.66 41.45 98.65C41.48 98.63 41.5 98.61 41.53 98.58C41.41 98.62 41.28 98.62 41.15 98.58C41.14 98.58 41.14 98.55 41.15 98.55C41.19 98.52 41.22 98.49 41.25 98.46C41.19 98.46 41.14 98.45 41.09 98.42C41.07 98.42 41.08 98.39 41.09 98.38C41.24 98.32 41.37 98.25 41.5 98.15C41.32 98.17 41.14 98.15 40.96 98.08C40.94 98.08 40.94 98.05 40.96 98.04C41.08 97.97 41.19 97.91 41.31 97.84C41.17 97.84 41.03 97.79 40.92 97.69C40.91 97.68 40.92 97.66 40.93 97.66C40.99 97.64 41.04 97.63 41.1 97.61C41.12 97.61 41.3 97.56 41.28 97.52C41.28 97.51 41.28 97.49 41.29 97.49C41.36 97.47 41.44 97.45 41.51 97.44C41.32 97.41 41.14 97.35 41.03 97.18C41.03 97.17 41.03 97.15 41.04 97.15C41.26 97.13 41.47 97.1 41.69 97.07C41.67 97.07 41.65 97.05 41.63 97.03C41.62 97.02 41.63 97 41.64 97C41.69 97 41.73 96.99 41.78 96.98C41.6 96.93 41.42 96.85 41.33 96.69C41.33 96.68 41.33 96.66 41.34 96.66C41.54 96.61 41.75 96.59 41.96 96.6C41.94 96.59 41.93 96.58 41.91 96.56C41.9 96.55 41.91 96.53 41.92 96.53C41.99 96.53 42.05 96.53 42.12 96.54C41.96 96.47 41.8 96.39 41.67 96.26C41.66 96.24 41.67 96.22 41.69 96.23C41.98 96.27 42.27 96.34 42.55 96.42C42.69 96.46 42.83 96.51 42.97 96.55C43.11 96.6 43.29 96.67 43.41 96.57C43.3 96.58 43.18 96.57 43.07 96.52C43.07 96.52 43.06 96.5 43.07 96.5C43.1 96.45 43.13 96.41 43.15 96.36C43.11 96.36 43.06 96.35 43.02 96.34C43.02 96.34 43 96.33 43.01 96.32C43.03 96.26 43.04 96.2 43.06 96.13C42.97 96.22 42.83 96.25 42.71 96.21C42.71 96.21 42.7 96.2 42.7 96.19C42.71 96.09 42.72 95.99 42.73 95.89C42.62 95.95 42.51 95.96 42.39 95.92C42.39 95.92 42.38 95.9 42.39 95.9C42.42 95.84 42.45 95.77 42.47 95.7C42.38 95.7 42.29 95.7 42.2 95.66C42.19 95.66 42.18 95.65 42.19 95.64C42.22 95.58 42.24 95.52 42.27 95.46C42.18 95.48 42.1 95.47 42.01 95.44C42.01 95.44 41.99 95.43 42 95.42C42.04 95.36 42.07 95.31 42.11 95.25C42 95.25 41.88 95.23 41.78 95.19C41.78 95.19 41.76 95.18 41.78 95.16C41.81 95.1 41.85 95.05 41.88 94.99C41.86 94.99 41.85 94.96 41.85 94.94C41.85 94.92 41.85 94.91 41.86 94.89C41.76 94.89 41.68 94.86 41.61 94.8C41.61 94.8 41.61 94.78 41.61 94.77C41.67 94.74 41.72 94.7 41.78 94.68C41.74 94.68 41.7 94.67 41.65 94.66C41.64 94.66 41.63 94.64 41.64 94.63C41.65 94.62 41.67 94.61 41.68 94.59C41.57 94.59 41.47 94.57 41.37 94.52C41.37 94.52 41.37 94.5 41.37 94.49C41.44 94.44 41.51 94.4 41.58 94.36C41.58 94.36 41.57 94.36 41.56 94.36C41.55 94.36 41.54 94.34 41.56 94.33C41.58 94.31 41.6 94.29 41.62 94.28C41.55 94.27 41.48 94.26 41.41 94.24C41.37 94.23 41.32 94.22 41.28 94.2C41.25 94.2 41.21 94.18 41.19 94.16C41.16 94.13 41.17 94.1 41.19 94.07C41.21 94.04 41.26 94.02 41.29 94C41.33 93.98 41.36 93.95 41.4 93.93C41.29 93.93 41.18 93.88 41.09 93.81C41.08 93.81 41.09 93.78 41.09 93.78C41.13 93.78 41.17 93.76 41.2 93.75C41.13 93.72 41.07 93.67 41.01 93.61V93.58C41.08 93.58 41.14 93.58 41.21 93.58C41.13 93.53 41.05 93.47 40.99 93.4C40.99 93.4 40.99 93.37 41 93.37C41.03 93.37 41.07 93.37 41.1 93.37C41.01 93.3 40.92 93.22 40.9 93.11C40.9 93.1 40.9 93.09 40.92 93.09C41.01 93.09 41.09 93.1 41.17 93.13C41.09 93.06 41.01 92.98 40.93 92.91C40.85 92.84 40.77 92.75 40.76 92.64C40.76 92.63 40.76 92.62 40.78 92.62C40.9 92.62 41.01 92.66 41.12 92.71C41.05 92.65 40.98 92.58 40.91 92.51C40.84 92.43 40.73 92.33 40.75 92.22C40.75 92.21 40.76 92.2 40.77 92.21C40.89 92.28 41.01 92.36 41.13 92.43C41.01 92.31 40.88 92.19 40.76 92.07C40.65 91.95 40.54 91.82 40.54 91.65L40.52 91.72Z" fill="url(#paint12_linear_448_219)"/>
<path d="M47.1501 96.95C47.0501 96.99 46.9401 97.02 46.8401 97.05C46.8601 97.05 46.8901 97.05 46.9101 97.04C47.0101 97.02 47.1301 96.99 47.2301 97.01C47.3101 97.03 47.3801 97.09 47.4501 97.14C47.5001 97.18 47.5501 97.22 47.6001 97.26C47.8001 97.32 47.9801 97.43 48.1501 97.55C48.3701 97.71 48.5901 97.87 48.8201 98.02C49.0501 98.17 49.2901 98.32 49.5401 98.44C49.8001 98.57 50.0901 98.7 50.3901 98.67C50.6901 98.64 50.9101 98.42 51.1001 98.21C51.1001 98.21 51.1101 98.21 51.1201 98.21C51.1401 98.19 51.1601 98.16 51.1801 98.14C51.1801 98.14 51.2001 98.14 51.2101 98.14C51.2401 98.25 51.2101 98.36 51.1401 98.44C51.3301 98.36 51.4801 98.21 51.5601 98.02C51.5601 98.02 51.5701 98.01 51.5801 98.02C51.7701 98.13 51.5301 98.38 51.4501 98.48C51.2901 98.65 51.1001 98.79 50.8901 98.9C51.1301 98.91 51.3801 98.88 51.6101 98.8H51.6301C51.6901 98.93 51.3701 98.95 51.3101 98.96C51.1001 98.99 50.8901 99 50.6801 98.99C50.3501 98.98 50.0301 98.92 49.7101 98.82C49.7601 98.85 49.8101 98.88 49.8601 98.9C49.8801 98.9 49.8601 98.93 49.8501 98.93C49.6901 98.93 49.5301 98.91 49.3801 98.85C49.4101 98.89 49.4501 98.93 49.4801 98.97C49.4901 98.98 49.4801 99 49.4601 99C49.3101 98.98 49.1701 98.93 49.0501 98.83C49.0801 98.9 49.1301 98.97 49.1801 99.03C49.1801 99.03 49.1801 99.06 49.1701 99.06C49.0701 99.07 48.9701 99.06 48.8901 99.01C48.8501 98.99 48.8201 98.95 48.7801 98.93C48.7001 98.89 48.6201 99.01 48.5701 99.05C48.5701 99.05 48.5501 99.05 48.5401 99.05C48.4801 99.01 48.4401 98.96 48.4201 98.89C48.3001 98.98 48.1601 99.01 48.0201 98.98C48.0101 98.98 48.0001 98.97 48.0001 98.96C48.0001 98.95 48.0001 98.94 48.0001 98.93C47.8401 98.97 47.6701 98.97 47.5101 98.93C47.4401 98.92 47.3301 98.9 47.2801 98.85C47.2801 98.84 47.2601 98.83 47.2601 98.81C47.1301 98.83 47.0001 98.82 46.8801 98.78C46.8201 98.76 46.7501 98.72 46.7601 98.66C46.6901 98.66 46.6201 98.66 46.5401 98.66C46.5401 98.66 46.5201 98.66 46.5201 98.64C46.5201 98.61 46.5201 98.57 46.5201 98.54C46.3601 98.62 46.1701 98.49 46.2001 98.31C46.1101 98.35 46.0101 98.37 45.9301 98.31C45.8701 98.27 45.8401 98.2 45.8401 98.13C45.7901 98.16 45.7401 98.17 45.6901 98.15C45.6601 98.14 45.6301 98.11 45.6301 98.08C45.6201 98.09 45.6001 98.11 45.5901 98.12C45.5801 98.13 45.5601 98.12 45.5601 98.11C45.8201 97.4 46.5001 97.06 47.1901 96.92L47.1501 96.95Z" fill="url(#paint13_linear_448_219)"/>
<defs>
<linearGradient id="paint0_linear_448_219" x1="140" y1="252.1" x2="140" y2="2.1" gradientUnits="userSpaceOnUse">
<stop stop-color="#F7EBA1"/>
<stop offset="1" stop-color="#7EBE9C"/>
</linearGradient>
<linearGradient id="paint1_linear_448_219" x1="109.65" y1="201.87" x2="109.65" y2="94.93" gradientUnits="userSpaceOnUse">
<stop offset="0.19" stop-color="#FCCA59"/>
<stop offset="0.9" stop-color="#EF8227"/>
</linearGradient>
<linearGradient id="paint2_linear_448_219" x1="60.32" y1="185.88" x2="60.32" y2="144.87" gradientUnits="userSpaceOnUse">
<stop offset="0.17" stop-color="#EF8227"/>
<stop offset="0.87" stop-color="#CD4424"/>
</linearGradient>
<linearGradient id="paint3_linear_448_219" x1="82.94" y1="202.13" x2="82.94" y2="155.62" gradientUnits="userSpaceOnUse">
<stop offset="0.39" stop-color="#CD4424"/>
<stop offset="0.85" stop-color="#993118"/>
</linearGradient>
<linearGradient id="paint4_linear_448_219" x1="85.87" y1="190.7" x2="85.87" y2="157.62" gradientUnits="userSpaceOnUse">
<stop offset="0.07" stop-color="#652013"/>
<stop offset="0.73" stop-color="#411409"/>
</linearGradient>
<linearGradient id="paint5_linear_448_219" x1="144.3" y1="63" x2="144.3" y2="252.06" gradientUnits="userSpaceOnUse">
<stop stop-color="#0E0502"/>
<stop offset="0.05" stop-color="#130602"/>
<stop offset="0.1" stop-color="#140602"/>
<stop offset="0.15" stop-color="#160703"/>
<stop offset="0.2" stop-color="#170703"/>
<stop offset="0.25" stop-color="#190804"/>
<stop offset="0.3" stop-color="#1B0804"/>
<stop offset="0.35" stop-color="#1B0804"/>
<stop offset="0.4" stop-color="#1C0804"/>
<stop offset="0.45" stop-color="#1D0804"/>
<stop offset="0.5" stop-color="#1E0904"/>
<stop offset="0.55" stop-color="#200A04"/>
<stop offset="0.6" stop-color="#210A04"/>
<stop offset="0.65" stop-color="#230B05"/>
<stop offset="0.7" stop-color="#250B05"/>
<stop offset="0.75" stop-color="#270C05"/>
<stop offset="0.8" stop-color="#280C05"/>
<stop offset="0.85" stop-color="#2A0C05"/>
<stop offset="0.9" stop-color="#2C0D05"/>
<stop offset="0.95" stop-color="#2E0E05"/>
<stop offset="1" stop-color="#300F06"/>
</linearGradient>
<radialGradient id="paint6_radial_448_219" cx="0" cy="0" r="1" gradientUnits="userSpaceOnUse" gradientTransform="translate(82.2754 86.5859) scale(24.8013 24.8013)">
<stop stop-color="#F9E99F"/>
<stop offset="0.86" stop-color="#F9E99F" stop-opacity="0.83"/>
<stop offset="1" stop-color="#F9E99F" stop-opacity="0.8"/>
</radialGradient>
<linearGradient id="paint7_linear_448_219" x1="18.8452" y1="79.9178" x2="36.4168" y2="83.1143" gradientUnits="userSpaceOnUse">
<stop stop-color="#0E0502"/>
<stop offset="0.05" stop-color="#130602"/>
<stop offset="0.1" stop-color="#140602"/>
<stop offset="0.15" stop-color="#160703"/>
<stop offset="0.2" stop-color="#170703"/>
<stop offset="0.25" stop-color="#190804"/>
<stop offset="0.3" stop-color="#1B0804"/>
<stop offset="0.35" stop-color="#1B0804"/>
<stop offset="0.4" stop-color="#1C0804"/>
<stop offset="0.45" stop-color="#1D0804"/>
<stop offset="0.5" stop-color="#1E0904"/>
<stop offset="0.55" stop-color="#200A04"/>
<stop offset="0.6" stop-color="#210A04"/>
<stop offset="0.65" stop-color="#230B05"/>
<stop offset="0.7" stop-color="#250B05"/>
<stop offset="0.75" stop-color="#270C05"/>
<stop offset="0.8" stop-color="#280C05"/>
<stop offset="0.85" stop-color="#2A0C05"/>
<stop offset="0.9" stop-color="#2C0D05"/>
<stop offset="0.95" stop-color="#2E0E05"/>
<stop offset="1" stop-color="#300F06"/>
</linearGradient>
<linearGradient id="paint8_linear_448_219" x1="35.5716" y1="83.4585" x2="42.2322" y2="84.6702" gradientUnits="userSpaceOnUse">
<stop stop-color="#0E0502"/>
<stop offset="0.05" stop-color="#130602"/>
<stop offset="0.1" stop-color="#140602"/>
<stop offset="0.15" stop-color="#160703"/>
<stop offset="0.2" stop-color="#170703"/>
<stop offset="0.25" stop-color="#190804"/>
<stop offset="0.3" stop-color="#1B0804"/>
<stop offset="0.35" stop-color="#1B0804"/>
<stop offset="0.4" stop-color="#1C0804"/>
<stop offset="0.45" stop-color="#1D0804"/>
<stop offset="0.5" stop-color="#1E0904"/>
<stop offset="0.55" stop-color="#200A04"/>
<stop offset="0.6" stop-color="#210A04"/>
<stop offset="0.65" stop-color="#230B05"/>
<stop offset="0.7" stop-color="#250B05"/>
<stop offset="0.75" stop-color="#270C05"/>
<stop offset="0.8" stop-color="#280C05"/>
<stop offset="0.85" stop-color="#2A0C05"/>
<stop offset="0.9" stop-color="#2C0D05"/>
<stop offset="0.95" stop-color="#2E0E05"/>
<stop offset="1" stop-color="#300F06"/>
</linearGradient>
<linearGradient id="paint9_linear_448_219" x1="33.9507" y1="85.105" x2="35.6626" y2="85.4165" gradientUnits="userSpaceOnUse">
<stop stop-color="#0E0502"/>
<stop offset="0.05" stop-color="#130602"/>
<stop offset="0.1" stop-color="#140602"/>
<stop offset="0.15" stop-color="#160703"/>
<stop offset="0.2" stop-color="#170703"/>
<stop offset="0.25" stop-color="#190804"/>
<stop offset="0.3" stop-color="#1B0804"/>
<stop offset="0.35" stop-color="#1B0804"/>
<stop offset="0.4" stop-color="#1C0804"/>
<stop offset="0.45" stop-color="#1D0804"/>
<stop offset="0.5" stop-color="#1E0904"/>
<stop offset="0.55" stop-color="#200A04"/>
<stop offset="0.6" stop-color="#210A04"/>
<stop offset="0.65" stop-color="#230B05"/>
<stop offset="0.7" stop-color="#250B05"/>
<stop offset="0.75" stop-color="#270C05"/>
<stop offset="0.8" stop-color="#280C05"/>
<stop offset="0.85" stop-color="#2A0C05"/>
<stop offset="0.9" stop-color="#2C0D05"/>
<stop offset="0.95" stop-color="#2E0E05"/>
<stop offset="1" stop-color="#300F06"/>
</linearGradient>
<linearGradient id="paint10_linear_448_219" x1="56.37" y1="88.2901" x2="63.58" y2="88.2901" gradientUnits="userSpaceOnUse">
<stop stop-color="#0E0502"/>
<stop offset="0.05" stop-color="#130602"/>
<stop offset="0.1" stop-color="#140602"/>
<stop offset="0.15" stop-color="#160703"/>
<stop offset="0.2" stop-color="#170703"/>
<stop offset="0.25" stop-color="#190804"/>
<stop offset="0.3" stop-color="#1B0804"/>
<stop offset="0.35" stop-color="#1B0804"/>
<stop offset="0.4" stop-color="#1C0804"/>
<stop offset="0.45" stop-color="#1D0804"/>
<stop offset="0.5" stop-color="#1E0904"/>
<stop offset="0.55" stop-color="#200A04"/>
<stop offset="0.6" stop-color="#210A04"/>
<stop offset="0.65" stop-color="#230B05"/>
<stop offset="0.7" stop-color="#250B05"/>
<stop offset="0.75" stop-color="#270C05"/>
<stop offset="0.8" stop-color="#280C05"/>
<stop offset="0.85" stop-color="#2A0C05"/>
<stop offset="0.9" stop-color="#2C0D05"/>
<stop offset="0.95" stop-color="#2E0E05"/>
<stop offset="1" stop-color="#300F06"/>
</linearGradient>
<linearGradient id="paint11_linear_448_219" x1="62.99" y1="89.6801" x2="65.27" y2="89.6801" gradientUnits="userSpaceOnUse">
<stop stop-color="#0E0502"/>
<stop offset="0.05" stop-color="#130602"/>
<stop offset="0.1" stop-color="#140602"/>
<stop offset="0.15" stop-color="#160703"/>
<stop offset="0.2" stop-color="#170703"/>
<stop offset="0.25" stop-color="#190804"/>
<stop offset="0.3" stop-color="#1B0804"/>
<stop offset="0.35" stop-color="#1B0804"/>
<stop offset="0.4" stop-color="#1C0804"/>
<stop offset="0.45" stop-color="#1D0804"/>
<stop offset="0.5" stop-color="#1E0904"/>
<stop offset="0.55" stop-color="#200A04"/>
<stop offset="0.6" stop-color="#210A04"/>
<stop offset="0.65" stop-color="#230B05"/>
<stop offset="0.7" stop-color="#250B05"/>
<stop offset="0.75" stop-color="#270C05"/>
<stop offset="0.8" stop-color="#280C05"/>
<stop offset="0.85" stop-color="#2A0C05"/>
<stop offset="0.9" stop-color="#2C0D05"/>
<stop offset="0.95" stop-color="#2E0E05"/>
<stop offset="1" stop-color="#300F06"/>
</linearGradient>
<linearGradient id="paint12_linear_448_219" x1="40.5841" y1="95.0054" x2="47.705" y2="94.6447" gradientUnits="userSpaceOnUse">
<stop stop-color="#0E0502"/>
<stop offset="0.05" stop-color="#130602"/>
<stop offset="0.1" stop-color="#140602"/>
<stop offset="0.15" stop-color="#160703"/>
<stop offset="0.2" stop-color="#170703"/>
<stop offset="0.25" stop-color="#190804"/>
<stop offset="0.3" stop-color="#1B0804"/>
<stop offset="0.35" stop-color="#1B0804"/>
<stop offset="0.4" stop-color="#1C0804"/>
<stop offset="0.45" stop-color="#1D0804"/>
<stop offset="0.5" stop-color="#1E0904"/>
<stop offset="0.55" stop-color="#200A04"/>
<stop offset="0.6" stop-color="#210A04"/>
<stop offset="0.65" stop-color="#230B05"/>
<stop offset="0.7" stop-color="#250B05"/>
<stop offset="0.75" stop-color="#270C05"/>
<stop offset="0.8" stop-color="#280C05"/>
<stop offset="0.85" stop-color="#2A0C05"/>
<stop offset="0.9" stop-color="#2C0D05"/>
<stop offset="0.95" stop-color="#2E0E05"/>
<stop offset="1" stop-color="#300F06"/>
</linearGradient>
<linearGradient id="paint13_linear_448_219" x1="45.5196" y1="98.1498" x2="51.6118" y2="97.8412" gradientUnits="userSpaceOnUse">
<stop stop-color="#0E0502"/>
<stop offset="0.05" stop-color="#130602"/>
<stop offset="0.1" stop-color="#140602"/>
<stop offset="0.15" stop-color="#160703"/>
<stop offset="0.2" stop-color="#170703"/>
<stop offset="0.25" stop-color="#190804"/>
<stop offset="0.3" stop-color="#1B0804"/>
<stop offset="0.35" stop-color="#1B0804"/>
<stop offset="0.4" stop-color="#1C0804"/>
<stop offset="0.45" stop-color="#1D0804"/>
<stop offset="0.5" stop-color="#1E0904"/>
<stop offset="0.55" stop-color="#200A04"/>
<stop offset="0.6" stop-color="#210A04"/>
<stop offset="0.65" stop-color="#230B05"/>
<stop offset="0.7" stop-color="#250B05"/>
<stop offset="0.75" stop-color="#270C05"/>
<stop offset="0.8" stop-color="#280C05"/>
<stop offset="0.85" stop-color="#2A0C05"/>
<stop offset="0.9" stop-color="#2C0D05"/>
<stop offset="0.95" stop-color="#2E0E05"/>
<stop offset="1" stop-color="#300F06"/>
</linearGradient>
</defs>
</svg>
