<svg width="310" height="296" viewBox="0 0 310 296" fill="none" xmlns="http://www.w3.org/2000/svg">
<mask id="mask0_97_9" style="mask-type:alpha" maskUnits="userSpaceOnUse" x="0" y="0" width="310" height="296">
<rect width="310" height="295.469" fill="#D9D9D9"/>
</mask>
<g mask="url(#mask0_97_9)">
<path d="M310 0H0V319.688H310V0Z" fill="url(#paint0_linear_97_9)"/>
<path opacity="0.2" d="M0 2.72213V27.4828C0 27.4828 48.0347 23.3391 30.4876 18.7198C27.6407 17.9725 14.7779 17.4631 11.3617 14.9836C7.2725 11.9947 13.0957 10.2285 20.834 10.0247C39.7788 9.51519 128.783 11.0097 115.532 5.06573C93.7143 -4.75024 0 2.72213 0 2.72213Z" fill="#F9E99F"/>
<path opacity="0.2" d="M0 77.8194V104.448C0 104.448 174.229 106.962 175.731 93.0358C176.533 85.7333 38.6141 100.508 37.7083 91.1338C37.7083 91.1338 37.5013 86.073 55.6696 86.073C73.8379 86.073 109.553 83.4237 100.417 77.7854C91.2815 72.1472 0 77.8194 0 77.8194Z" fill="#F9E99F"/>
<path opacity="0.2" d="M310 0.786162C310 0.786162 192.812 -3.4595 211.834 7.95284C230.856 19.3652 296.749 7.91887 286.526 18.3462C276.303 28.7736 17.0035 21.9126 34.266 34.208C51.0626 46.1638 160.771 30.3699 206.218 43.1409C234.506 51.0888 176.144 56.2175 165.689 57.5422C162.531 57.9498 138.798 62.5011 176.662 65.9995C213.05 69.3281 309.974 68.0035 309.974 68.0035V51.0888C309.974 51.0888 227.414 58.5272 222.859 50.5793C219.158 44.0919 230.805 41.1369 255.806 39.133C280.806 37.163 309.974 35.6346 309.974 35.6346V0.786162H310Z" fill="#F9E99F"/>
<path d="M-101.719 216.441C-101.719 216.441 -77.8875 204.733 -65.7539 204.733C-53.6203 204.733 -43.3273 205.607 -42.407 200.642C-41.4625 195.677 -40.082 192.15 -26.0594 190.542C-12.0367 188.934 -1.86484 156.687 -0.460155 153.02C0.944533 149.352 0.94453 142.497 4.45625 142.186C7.96797 141.876 6.3211 118.996 9.59063 119.109C12.8602 119.222 21.7484 117.613 22.4266 123.905C23.1289 130.196 22.8867 137.503 25.4539 138.688C28.0211 139.873 28.9656 141.481 28.9656 137.672V110.476C28.9656 110.476 29.668 106.667 35.2625 106.977C40.857 107.288 54.8797 104.043 56.0422 111.802C57.2047 119.56 55.3398 121.761 58.8516 122.043C62.3633 122.325 68.2 121.027 68.9023 126.726C69.6047 132.425 68.6602 154.092 71.4695 155.249C74.2789 156.405 75.4414 153.782 74.7391 148.675C74.0367 143.569 74.9328 136.826 74.9328 136.826C74.9328 136.826 73.5766 131.72 81.2781 131.861C88.9797 132.002 87.575 138.744 87.8172 141.227C87.9383 142.609 87.9383 148.337 87.8898 153.246C87.8414 160.016 88.4469 166.787 89.8273 173.333C91.0867 179.37 92.9516 186.028 95.6156 189.696C101.961 198.498 116.492 206.426 135.988 209.501C146.669 211.193 150.471 215.849 155.848 215.99C161.224 216.131 181.907 225.074 185.613 235.4C189.366 245.669 -52.6758 238.08 -101.719 216.441Z" fill="url(#paint1_linear_97_9)"/>
<path d="M160.812 224.783C160.812 224.783 179.195 203.2 192.83 202.862C206.465 202.523 219.252 202.156 220.1 192.79C220.948 183.423 222.522 180.771 224.072 180.771C225.622 180.771 237.005 182.182 237.416 182.013C237.828 181.844 241.97 182.549 241.824 175.129C241.679 167.709 245.094 148.638 245.094 148.638C245.094 148.638 245.457 142.854 247.685 142.854C249.913 142.854 252.166 142.713 252.166 150.415C252.166 158.117 250.882 171.349 252.166 171.49C253.449 171.631 256.646 173.606 256.331 167.258C256.016 160.91 256.355 132.811 256.355 132.811C256.355 132.811 255.048 123.811 256.961 122.993C258.874 122.203 257.712 116.645 259.092 116.25H263.888L279.339 117.181C279.339 117.181 283.505 115.996 283.82 122.203C284.134 128.438 283.82 154.534 283.82 154.534C283.82 154.534 282.657 159.838 285.733 159.697C288.809 159.556 289.898 156.509 290.092 150.161C290.286 143.813 290.189 137.578 290.722 137.184C291.255 136.789 293.701 136.93 293.701 135.716C293.701 134.503 293.604 125.25 295.929 125.25C298.254 125.25 300.821 125.25 300.627 133.996C300.434 142.741 301.378 173.352 301.378 173.352C301.378 173.352 301.281 178.402 305.544 177.866C309.806 177.33 313.536 178.373 313.439 173.747C313.342 169.12 313.633 168.302 313.633 168.302C313.633 168.302 313.1 162.462 317.048 162.462C320.995 162.462 324.289 160.995 324.289 170.135C324.289 179.276 325.258 185.652 325.258 185.652C325.258 185.652 324.192 220.523 329.714 219.592C335.26 218.661 372.048 229.268 372.048 229.268L368.198 250.823L166.843 248.707L160.812 224.783Z" fill="url(#paint2_linear_97_9)"/>
<path d="M154.516 218.501C179.153 218.501 199.126 198.528 199.126 173.891C199.126 149.253 179.153 129.28 154.516 129.28C129.878 129.28 109.905 149.253 109.905 173.891C109.905 198.528 129.878 218.501 154.516 218.501Z" fill="url(#paint3_radial_97_9)"/>
<path opacity="0.35" d="M154.516 134.233C176.408 134.233 194.173 151.998 194.173 173.891C194.173 195.783 176.408 213.548 154.516 213.548C132.623 213.548 114.858 195.783 114.858 173.891C114.858 151.998 132.623 134.233 154.516 134.233ZM105.594 173.891C105.594 200.92 127.486 222.813 154.516 222.813C181.545 222.813 203.438 200.92 203.438 173.891C203.438 146.861 181.545 124.969 154.516 124.969C127.486 124.969 105.594 146.861 105.594 173.891Z" fill="#F9E99F"/>
<path d="M125.438 198.382C125.958 198.229 126.111 197.954 126.263 197.771C126.478 197.465 126.569 197.159 126.63 196.823C127.211 196.486 127.731 196.028 128.006 195.508C127.884 195.508 127.731 195.447 127.639 195.447C127.915 195.233 128.343 195.08 128.587 194.805C128.343 194.866 128.067 194.927 127.823 194.988C127.823 194.988 127.853 194.958 127.884 194.958C128.343 194.499 128.893 194.101 129.382 193.704C130.147 193.062 131.186 192.42 132.104 192.083C132.623 191.9 132.96 191.717 133.357 191.411C133.388 190.677 133.999 190.188 134.488 189.668C135.253 188.842 136.048 188.659 136.873 187.895C137.24 187.283 137.974 186.488 138.494 185.999C137.791 185.571 137.301 183.614 137.24 183.461C137.179 183.614 136.415 185.051 136.323 185.693L136.262 185.785C135.1 187.466 134.458 187.986 133.296 188.537C132.776 188.812 132.318 188.965 131.859 189.423C131.309 190.004 131.033 190.432 131.033 190.463C131.003 190.493 131.033 190.463 130.942 190.524C129.566 191.655 127.823 192.573 126.416 193.673C125.927 194.071 124.888 194.682 124.49 195.172C123.145 195.936 122.808 196.639 121.769 197.618C121.83 197.679 121.891 197.709 121.952 197.709C122.197 198.168 123.45 198.443 123.909 198.474C124.154 198.474 124.398 198.474 124.582 198.443C124.826 198.443 125.071 198.443 125.377 198.352C125.407 198.413 125.407 198.382 125.438 198.382ZM192.614 185.999C190.932 186.06 189.587 186.06 188.731 185.907C186.499 185.479 184.328 184.378 182.401 183.43C181.484 182.972 179.802 181.779 178.212 181.321C177.387 181.107 176.622 181.229 176.256 181.351C176.194 181.382 176.103 181.412 176.011 181.443C175.43 181.657 174.421 182.054 173.809 182.299C173.779 182.299 173.779 182.33 173.748 182.33C173.351 182.513 173.014 182.635 172.984 182.605C172.8 182.666 172.586 182.727 172.403 182.788C170.232 183.43 166.808 183.522 164.606 183.186C161.671 182.727 158.797 180.709 157.543 178.966L159.378 181.535C158.43 181.993 157.543 182.268 156.901 182.727C156.32 183.125 155.739 183.644 155.158 184.164C153.201 185.846 151.703 186.794 150.296 187.161C147.942 187.772 147.514 187.925 146.321 187.68C146.321 187.68 147.483 185.357 147.392 184.898C146.964 186.121 145.985 187.803 144.334 187.803C144.12 187.803 143.294 187.956 143.508 187.528C142.408 189.27 140.481 189.118 139.044 189.882C137.913 190.463 137.057 191.013 136.262 191.992C135.803 192.573 135.436 192.787 134.794 193.092C133.877 193.521 132.929 194.254 132.226 194.958C131.767 195.416 131.278 195.844 130.85 196.334C130.819 196.364 130.819 196.364 130.789 196.395C130.758 196.425 130.697 196.486 130.666 196.548C130.942 196.456 131.247 196.425 131.492 196.211C131.339 196.425 131.125 196.67 130.85 196.823C131.125 196.945 131.461 196.884 131.737 196.823C131.523 197.037 131.247 197.22 131.003 197.404C131.125 197.434 131.247 197.495 131.339 197.495C131.095 198.046 130.3 198.443 129.596 198.841C129.566 198.994 129.535 199.147 129.474 199.299C129.413 199.544 129.26 199.697 128.985 199.85C128.985 199.85 128.679 200.033 128.648 200.033C128.343 200.156 128.098 200.186 127.853 200.217C127.67 200.247 127.425 200.278 127.181 200.308C126.722 200.339 125.224 200.033 124.918 199.605C124.857 199.575 124.918 199.605 124.857 199.575C125.683 198.657 126.783 197.434 127.976 196.853C128.343 196.303 128.771 195.753 129.229 195.325C130.514 194.101 132.165 193.031 133.449 191.778C133.541 191.686 133.51 191.747 133.541 191.686C133.51 191.655 133.755 191.197 134.244 190.585C134.641 190.065 135.069 189.882 135.589 189.576C136.69 188.904 137.363 187.925 138.158 186.947C138.586 186.427 138.983 185.846 139.442 185.326C139.534 185.204 139.656 185.112 139.748 185.02C140.176 184.592 141.093 183.614 141.918 183.155C140.848 183.553 139.656 184.592 138.891 185.601C137.73 185.296 137.332 182.635 137.577 181.81C136.751 181.932 135.834 180.006 134.427 179.975C133.908 179.975 132.134 179.455 131.614 180.893C131.37 180.556 131.614 180.893 131.186 180.74C131.737 181.259 131.523 181.412 131.675 181.963C131.614 183.339 130.636 183.828 130.238 184.562C129.841 185.296 130.024 186.58 129.657 187.314C129.413 187.803 129.291 187.619 129.168 188.506C129.076 189.179 129.107 189.454 128.679 189.576C128.159 189.729 128.373 189.27 128.006 188.812C127.853 189.423 127.762 189.882 127.456 189.851C126.906 190.096 126.263 190.249 126.172 189.729C126.111 189.362 125.774 188.353 125.774 187.864C126.202 187.497 127.058 188.078 127.548 188.261C127.456 188.17 127.303 188.078 127.12 187.956L127.487 188.078C127.548 188.445 127.976 188.659 128.067 188.261C128.098 188.2 128.067 188.109 128.037 188.047L127.945 187.895C127.823 187.711 127.517 187.772 127.487 187.986C127.456 188.139 127.456 188.139 127.487 187.986C126.997 187.65 126.141 187.191 125.805 187.375C125.805 186.947 125.774 185.815 125.683 185.601C125.438 185.02 125.102 184.348 125.071 183.43C125.071 183.125 125.071 183.155 125.04 182.88C124.888 182.697 124.735 182.452 124.582 182.238C124.46 182.574 124.429 182.941 124.46 183.155C124.154 182.911 123.909 182.268 123.879 181.718C123.787 181.382 123.848 180.831 123.97 180.556C123.726 180.831 123.573 180.862 123.42 181.198C123.45 180.189 123.603 179.975 124.184 179.211C124.154 179.027 124.215 178.722 124.307 178.385C124.123 177.407 124.215 176.276 124.398 175.511C124.337 175.909 124.521 176.367 124.704 176.673C124.857 176.184 124.612 175.603 124.918 175.175C124.888 174.716 124.888 174.227 125.01 173.799C124.979 174.135 125.102 174.502 125.316 174.686C125.316 173.982 125.193 172.668 125.683 172.148C125.744 172.301 125.805 172.515 125.866 172.668C125.713 171.322 126.63 169.946 127.517 169.029C128.343 168.142 129.199 167.286 130.177 166.308C129.749 166.889 129.596 167.5 129.566 168.142C129.596 168.081 129.627 168.02 129.657 167.989C129.994 167.317 130.238 166.919 130.819 166.43C131.37 165.971 132.746 165.329 132.501 165.543C131.706 166.033 131.828 166.491 131.645 167.164C132.012 166.644 132.623 166.369 133.204 166.308C132.807 166.736 132.623 167.408 132.348 167.837C132.532 167.775 132.684 167.684 132.837 167.592C133.082 167.256 133.357 166.95 133.755 166.675C133.602 166.858 133.449 167.072 133.327 167.286C133.816 166.858 133.999 166.613 134.488 166.338C135.1 166.002 135.467 165.941 135.65 165.819L135.039 166.522C135.039 166.552 135.375 166.063 135.008 166.583C134.917 166.98 134.794 167.347 134.703 167.745C134.886 167.47 135.131 167.256 135.406 167.133C135.283 167.5 134.947 167.867 134.886 168.234C134.947 168.173 135.039 168.112 135.1 168.051C135.498 167.378 136.537 166.736 136.812 166.613C137.454 166.338 138.311 165.941 139.014 165.849C138.861 166.002 138.677 166.185 138.494 166.399C138.525 166.399 138.525 166.399 138.555 166.399C138.525 166.399 138.494 166.43 138.494 166.43C138.158 166.797 137.791 167.225 137.516 167.684C138.341 166.95 140.206 166.705 141.001 167.103C140.665 167.317 140.267 167.775 140.176 168.203C140.848 168.142 141.766 167.745 142.102 167.47C141.857 167.684 141.674 167.959 141.735 168.295C142.163 168.417 142.561 168.051 142.928 167.867C142.683 168.142 142.408 168.448 142.53 168.754C142.805 168.693 143.08 168.57 143.325 168.509C143.233 168.632 143.203 168.876 143.111 168.998C143.508 169.151 144.089 168.968 144.517 168.846C144.089 169.426 143.784 170.13 143.57 170.833C144.12 170.344 144.823 170.038 145.618 170.13C146.413 169.671 147.3 169.06 147.697 168.295C147.728 168.234 147.789 168.265 147.728 168.234C147.33 168.051 147.392 167.347 147.575 167.194C147.942 166.95 148.37 166.828 148.89 166.124L149.134 166.247C149.685 165.849 151.03 164.657 151.642 164.412C151.947 164.29 152.1 164.229 152.345 164.167C152.345 164.167 152.712 164.015 152.804 163.648C152.895 163.158 153.476 162.272 153.843 161.874C154.516 161.232 154.638 161.018 154.638 161.018C154.638 161.018 154.791 160.193 156.167 160.04C155.953 160.315 155.831 160.559 155.739 160.865C156.106 160.345 156.228 160.101 156.503 159.948C157.023 159.826 157.849 160.009 158.154 160.193C158.399 160.254 158.521 160.345 158.705 160.345L158.919 160.315L158.949 160.345C158.919 159.673 158.43 158.48 158.491 158.083C158.368 158.48 158.552 159.459 158.583 159.55C158.491 159.55 158.246 159.428 158.124 159.428C157.604 159.336 156.136 159.275 155.831 158.725C155.555 158.205 156.32 157.227 157.91 156.89C159.347 156.585 160.02 156.829 160.57 156.737C160.601 156.737 161.243 156.737 161.273 156.737C161.243 156.737 161.304 156.737 161.273 156.737C161.029 156.554 159.469 156.615 158.644 156.676C158.644 156.676 159.225 155.086 159.561 155.147C159.592 155.117 159.622 155.117 159.683 155.117C160.784 155.178 159.775 155.514 159.958 155.514C160.356 155.575 160.631 155.117 161.029 155.178C162.038 155.3 162.038 155.912 162.16 156.523C162.466 156.585 163.964 156.921 164.086 157.043C165.218 157.655 165.279 158.664 162.007 159.642C162.068 159.52 162.435 157.93 161.793 159.581C161.548 160.223 161.243 160.468 161.273 160.773C161.273 160.773 161.181 160.773 161.426 160.896C161.273 160.957 161.12 160.987 160.967 161.018C161.181 161.018 161.396 161.018 161.579 161.018C161.579 161.018 161.579 161.018 161.61 161.049C162.099 160.896 162.802 161.11 164.637 160.743C164.881 160.682 166.318 160.865 166.655 160.621C166.685 160.559 166.013 160.559 166.013 160.559C166.013 160.559 166.165 159.795 167.022 158.755C167.511 158.174 168.397 157.135 168.917 156.432C168.978 156.34 168.764 156.309 168.826 156.218C169.101 155.851 169.345 155.759 169.131 154.995C169.07 154.781 168.826 154.505 168.764 154.261C168.642 154.047 168.764 153.802 169.162 153.588C169.437 153.496 169.406 153.405 169.529 153.557C169.682 153.741 169.284 153.924 169.315 154.047C169.376 154.108 169.437 154.077 169.498 154.108C169.59 154.016 169.712 153.741 169.804 153.741C169.804 153.741 169.835 153.771 169.835 153.802C169.804 153.986 169.682 154.322 169.712 154.444C169.773 154.628 169.926 154.566 170.049 154.658C170.11 154.719 170.079 154.811 170.171 154.872C170.263 154.933 170.385 154.903 170.446 154.964C170.507 154.995 170.507 155.086 170.538 155.117C170.446 155.209 170.263 155.453 170.201 155.545C170.14 155.667 170.049 155.912 170.049 156.065C170.14 155.698 170.263 155.606 170.507 155.331C170.568 155.27 170.691 155.239 170.782 155.209C170.813 155.209 170.844 155.209 170.874 155.178H170.844L170.721 155.147C170.66 155.117 170.63 155.086 170.599 155.056C170.538 154.995 170.568 154.933 170.538 154.903C170.446 154.811 170.263 154.872 170.14 154.719C170.079 154.658 170.11 154.597 170.079 154.536C170.018 154.414 170.049 154.505 169.957 154.475C169.865 154.444 169.835 154.444 169.804 154.383C169.773 154.352 169.804 154.138 169.835 153.986C169.865 153.833 169.926 153.588 169.957 153.496C170.049 153.252 170.507 153.252 170.477 153.557C170.477 153.588 170.507 153.619 170.538 153.619C170.874 153.466 171.21 153.802 171.639 154.352C171.822 154.689 171.394 155.606 170.935 156.095C170.477 156.554 170.446 157.135 170.324 157.257L170.049 157.196C169.682 157.838 169.498 158.908 169.315 159.336C168.734 160.804 168.856 160.559 168.367 161.599C168.275 161.752 168.061 162.18 167.908 162.333C166.96 163.281 164.82 163.648 164.759 163.678C164.606 163.709 163.322 163.8 163.2 163.831C162.527 164.015 161.732 164.412 161.304 165.085C161.181 165.207 160.784 165.666 160.692 165.757C160.264 166.155 159.408 166.797 159.041 167.347C158.735 167.745 158.307 168.846 158.644 169.274C158.552 169.488 158.613 169.365 158.613 169.365C158.46 169.488 157.726 169.579 157.176 169.579C156.87 170.038 156.198 170.741 155.739 171.108C154.913 171.597 154.76 171.597 154.332 171.842C153.904 172.025 153.476 172.209 153.048 172.362C152.528 172.545 151.061 172.912 150.143 173.34C150.082 173.371 150.021 173.279 150.052 173.218C150.419 172.82 151.03 172.423 151.428 172.301C151.458 172.301 151.489 172.27 151.519 172.27C151.581 172.27 151.642 172.24 151.672 172.24C151.611 172.24 151.55 172.27 151.519 172.27C154.088 171.169 154.057 171.2 155.036 170.497L149.624 173.004L149.563 172.637C149.563 172.668 149.532 172.851 149.532 172.882L149.196 172.301C149.165 172.27 149.44 172.82 149.379 172.851C149.379 172.882 149.349 172.79 149.349 172.82C149.226 172.729 149.043 172.392 148.951 172.301C149.043 172.637 149.379 173.096 149.563 173.401V173.432C149.563 173.463 149.593 173.493 149.593 173.524C149.593 173.524 149.593 173.524 149.593 173.554C149.593 173.615 149.593 173.677 149.624 173.738L149.685 173.921L149.624 173.738C149.654 173.768 149.654 173.829 149.715 173.891C149.746 174.013 149.777 174.135 149.838 174.288L149.868 174.135C149.96 174.227 150.113 174.472 150.205 174.563L150.48 175.083C150.48 175.022 150.358 174.808 150.358 174.747L150.724 175.358C150.694 175.236 150.358 174.624 150.235 174.472C150.205 174.38 150.266 174.533 150.235 174.472C150.205 174.38 150.143 174.288 150.082 174.166L149.96 173.921C150.174 174.227 150.419 174.533 150.541 174.808C150.51 174.686 150.449 174.594 150.388 174.472L149.929 173.707C149.929 173.677 149.929 173.677 149.96 173.646C149.991 173.646 149.929 173.646 149.96 173.646C150.113 173.86 150.572 174.533 150.663 174.686L150.143 173.585C150.205 173.554 150.205 173.585 150.205 173.585C150.633 173.463 151.458 173.126 151.795 173.034C152.376 172.882 154.394 172.148 154.699 171.995C156.412 171.108 156.534 170.833 156.901 170.527C156.993 170.436 157.329 169.977 157.512 169.977C157.788 169.977 157.91 169.946 158.185 169.977C158.43 170.007 157.971 171.72 156.381 172.912C157.665 172.362 158.399 170.925 158.399 170.925C160.662 169.824 165.279 170.313 166.991 172.331C166.899 172.056 165.554 170.68 165.554 170.68C166.257 169.763 167.419 167.867 169.621 168.387C170.079 168.142 170.415 167.867 170.966 167.775C171.363 167.714 171.791 167.714 172.189 167.806C173.106 167.989 173.259 168.142 173.412 168.295C172.005 168.02 171.608 168.815 171.608 169.426C172.281 169.09 172.984 168.509 173.962 168.632C174.666 168.723 175.124 169.06 175.094 169.732C175.858 170.007 176.622 170.436 177.142 171.016C177.479 171.383 177.876 171.781 178.396 171.689C178.916 171.597 179.344 171.23 179.038 170.772C179.619 171.597 178.824 172.209 177.845 172.423C177.845 172.454 177.845 172.454 177.845 172.484C178.396 172.515 179.435 172.484 179.68 172.209C179.925 171.995 180.2 171.475 180.169 171.108C180.353 171.506 180.536 171.903 180.506 172.331C180.475 172.698 180.322 173.004 180.078 173.218C180.169 173.187 180.23 173.187 180.261 173.157C180.506 173.034 180.75 172.851 180.964 172.698C181.27 172.454 181.606 172.178 181.79 171.811C182.157 171.139 182.248 170.16 181.759 169.518C182.279 169.885 182.585 170.283 182.707 170.955C182.921 172.209 182.31 173.034 181.392 173.646C180.934 174.441 180.322 175.053 179.435 175.481C178.732 175.817 177.845 175.786 177.081 175.572C176.989 175.664 176.898 175.725 176.806 175.756C176.989 175.817 177.142 176.031 177.57 175.725C177.173 177.101 174.971 177.04 174.146 176.123C174.115 176.123 174.085 176.123 174.054 176.123C173.809 176.123 173.381 176.306 173.137 176.367C172.464 176.459 171.639 176.306 170.996 176.123C170.507 176 170.079 175.786 169.651 175.572C169.743 175.756 169.835 175.909 169.926 176.062C170.354 176.704 170.599 177.254 171.333 177.866C172.128 178.661 172.648 178.813 173.045 178.966C173.076 178.966 173.076 179.027 173.045 179.027C172.678 178.997 172.495 179.058 172.097 179.058C171.883 179.058 171.425 178.936 171.18 178.905C171.455 179.364 173.014 179.211 173.504 179.18C174.757 179.119 176.531 178.661 177.754 178.477H177.662C178.304 178.08 178.793 178.446 179.344 178.997C179.374 179.027 180.139 179.7 180.169 179.7C181.239 180.617 181.27 180.22 181.668 180.617C182.187 181.107 183.563 181.626 184.175 182.024C184.266 182.085 184.328 182.146 184.45 182.177C184.633 182.054 184.786 181.871 184.878 181.718C184.817 181.932 184.786 182.146 184.786 182.36C184.817 182.391 184.817 182.391 184.847 182.391C185.214 182.299 185.459 181.993 185.795 181.688C185.795 181.932 185.704 182.207 185.704 182.421C186.009 182.299 186.223 182.024 186.437 181.749C186.376 181.871 186.376 182.024 186.315 182.146C186.804 182.33 187.63 181.351 187.752 180.893C188.027 181.657 187.874 182.299 187.477 182.727C188.364 182.33 188.822 181.535 189.526 181.902C191.177 182.727 192.706 184.745 192.614 185.999C192.706 186.396 192.583 185.999 192.614 185.999ZM150.51 179.67C150.449 179.608 150.266 179.517 150.113 179.425L149.929 179.241C149.929 179.241 149.807 179.119 150.113 179.486L151.336 180.617C151.244 180.22 150.847 179.914 150.51 179.67ZM151.061 180.067C150.816 179.608 150.052 178.752 149.715 178.538L151.061 180.067ZM151.244 179.853C151.03 179.364 150.51 179.058 150.174 178.752L149.746 178.355C149.807 178.416 150.082 178.722 150.143 178.783L151.244 179.853ZM150.174 177.866L149.501 176.948C149.563 177.132 149.96 177.743 150.143 177.927L151.214 179.241C151.305 178.813 150.633 178.324 150.174 177.866ZM150.205 177.346C150.174 177.315 150.052 177.223 149.96 177.101L149.685 176.765L149.257 176.214C149.196 176.123 149.257 176.276 149.379 176.49C149.593 176.948 149.96 177.315 150.327 177.682L150.816 178.385C150.908 178.508 151.153 178.875 151.275 178.936C151.03 178.385 150.541 177.927 150.327 177.682L149.838 177.009C149.868 177.04 149.899 177.071 149.929 177.101L151 178.446C151.061 178.538 151.122 178.599 151.183 178.691C151.061 178.141 150.572 177.713 150.205 177.346ZM151.122 178.08C151.03 177.713 150.663 177.346 150.296 176.979L149.471 175.847C149.471 175.909 149.685 176.276 149.746 176.398L149.44 175.97C149.44 176 149.471 176.031 149.501 176.062C149.593 176.398 150.052 176.795 150.388 177.162L151.122 178.08ZM149.226 173.371C149.257 173.585 149.379 173.799 149.532 174.013C149.532 173.982 149.532 173.952 149.532 173.921C149.593 174.013 149.654 174.135 149.715 174.227L149.838 174.502C149.777 174.38 149.654 174.258 149.563 174.135C149.715 174.472 149.868 174.838 150.235 175.175C150.235 175.175 150.877 176 151 176.092C150.938 175.847 150.572 175.267 150.358 175.053L149.807 174.38C149.96 174.533 150.113 174.716 150.235 174.869L150.602 175.328C150.51 175.144 150.235 174.686 150.082 174.502L149.226 173.371ZM149.012 173.829C148.951 174.41 149.624 175.022 149.96 175.481C150.113 175.695 150.724 176.459 150.908 176.642L149.715 174.93C150.113 175.419 150.602 176 150.816 176.306L150.877 176.398C150.847 176.367 150.847 176.337 150.816 176.306L149.257 174.044C149.226 174.074 149.226 174.166 149.287 174.288L149.012 173.829ZM148.768 174.044C148.768 174.747 149.838 175.603 150.266 176.123C150.296 176.153 150.419 176.306 150.449 176.367L151.214 177.407C151.183 177.376 150.969 176.948 150.816 176.734C150.694 176.581 150.694 176.581 150.572 176.428L150.205 175.97L148.768 174.044ZM146.444 169.824C147.239 169.61 148.217 168.846 148.278 168.234C148.278 168.203 148.278 168.234 148.309 168.203C148.217 168.234 148.156 168.142 148.034 168.142C147.911 168.509 147.147 169.335 146.444 169.824ZM148.187 182.544L147.575 182.972C147.606 182.941 147.636 182.88 147.667 182.819C147.759 182.605 147.85 182.421 147.911 182.177C147.911 182.146 147.911 182.146 147.911 182.116C148.156 182.024 148.401 181.993 148.645 182.054C148.339 181.902 148.095 181.626 147.911 181.321C147.881 180.831 146.077 180.617 146.352 179.761C146.505 179.272 146.841 177.162 146.627 175.939C146.597 175.817 146.444 174.227 146.413 174.105C146.23 173.34 147.3 177.346 147.3 177.132C147.33 175.022 146.107 171.322 146.383 170.833C146.688 170.283 147.82 169.671 148.37 169.365C149.96 168.417 151.733 167.592 152.742 167.164C152.742 167.164 154.057 166.522 152.284 167.194C152.223 167.225 152.223 167.103 152.223 167.042C152.162 166.919 152.1 166.797 152.07 166.766C151.917 166.552 152.59 166.399 153.599 165.666C153.69 165.543 154.118 163.923 155.005 162.272C154.577 162.975 153.813 164.657 153.629 164.932C152.681 166.247 151.061 166.338 149.96 166.766C149.868 166.797 149.991 167.042 149.991 167.042C149.899 167.072 149.471 167.164 149.41 167.194C149.134 167.439 149.41 168.02 148.645 168.203C148.248 169.426 146.841 169.977 146.23 170.344C146.199 170.65 145.741 171.108 145.832 171.659C145.832 171.72 145.863 171.811 145.863 171.873C145.893 171.811 145.802 175.114 145.832 175.083C145.863 176.184 145.985 173.126 146.046 173.738C146.107 174.441 146.23 174.777 146.321 175.511C146.688 178.446 145.802 180.495 145.802 180.495C146.505 180.709 147.759 181.474 147.269 182.697C147.178 182.941 146.75 183.492 146.291 183.736C146.077 183.828 145.863 183.889 145.649 183.889C146.138 185.082 147.973 182.758 148.187 182.544ZM149.624 183.094C148.798 183.155 148.187 183.308 147.483 183.797L149.624 183.094ZM151.275 181.168C150.816 180.831 150.327 180.098 149.746 180.22L151.275 181.168ZM179.497 190.646C179.099 190.188 178.64 190.371 178.029 190.463C178.457 190.157 178.335 189.729 178.518 189.24C178.396 189.515 178.182 189.698 177.907 189.729C177.998 189.637 178.06 189.423 178.151 189.332C177.693 189.729 177.234 189.515 176.653 189.699C176.806 189.546 176.928 189.301 176.959 189.087C176.684 189.332 176.286 189.515 175.919 189.546C176.072 189.362 176.225 189.148 176.347 188.934C175.98 189.362 175.583 189.27 175.216 189.087C175.032 188.873 174.849 188.659 174.727 188.475C174.299 187.895 172.464 185.938 172.067 185.387C171.791 185.02 171.577 184.745 171.333 184.501C171.363 184.501 171.21 184.103 171.241 184.072C171.119 183.461 170.568 183.644 170.599 183.644C170.415 183.706 170.079 183.736 169.926 183.767C167.969 184.103 166.563 183.95 164.698 183.614C163.2 183.339 161.151 182.666 159.897 181.81C159.561 181.993 159.469 181.963 158.919 182.238C158.797 182.299 158.644 182.391 158.521 182.421C157.849 182.788 157.145 182.941 156.626 183.308C157.329 183.889 158.521 184.745 159.286 185.082C160.998 185.815 163.108 186.305 165.065 186.121C165.218 186.121 165.401 186.091 165.584 186.06C165.615 186.06 165.89 186.029 166.288 185.938C166.899 185.815 168.153 185.571 168.703 185.479C169.957 185.54 171.944 188.2 172.617 188.904C174.085 190.493 175.522 192.328 177.387 193.612C178.09 194.101 179.435 194.652 180.964 195.294C180.964 195.294 180.964 195.661 181.117 195.294C181.515 194.316 180.72 192.022 179.497 190.646ZM125.102 173.707C125.132 173.646 125.132 173.554 125.163 173.493C125.132 173.554 125.102 173.646 125.102 173.707ZM124.49 175.419C124.49 175.389 124.49 175.358 124.521 175.328C124.49 175.358 124.49 175.389 124.49 175.419ZM173.259 161.263C173.228 160.926 173.198 160.621 173.137 160.284C173.045 159.978 172.984 159.703 172.862 159.428C172.495 158.389 172.036 157.594 171.7 157.074C171.547 156.799 171.394 156.615 171.302 156.493C171.272 156.432 171.058 156.187 171.027 156.156L170.996 156.187C171.027 156.218 171.21 156.462 171.241 156.523C171.333 156.676 171.455 156.86 171.608 157.135C171.883 157.685 172.281 158.48 172.586 159.55C172.648 159.826 172.739 160.101 172.8 160.376C172.862 160.651 172.862 160.957 172.862 161.293C172.862 161.935 172.77 162.608 172.556 163.281C172.434 163.678 172.128 164.137 171.853 164.443C172.005 164.504 172.281 164.595 172.403 164.595C172.403 164.595 172.495 164.504 172.495 164.473C172.739 164.137 172.892 163.77 173.014 163.403C173.228 162.669 173.259 161.935 173.259 161.263ZM170.844 164.932C170.691 164.962 170.446 164.962 170.263 164.932C169.896 164.871 169.559 164.687 169.254 164.473C168.734 164.106 168.367 163.556 168.092 162.975C168.031 162.822 167.939 162.639 167.878 162.486C167.786 162.577 167.694 162.639 167.602 162.73C167.541 162.761 167.48 162.791 167.45 162.822C167.511 162.944 167.541 163.067 167.602 163.22C167.878 163.862 168.306 164.473 168.917 164.932C169.284 165.207 169.712 165.421 170.171 165.482C170.385 165.513 170.63 165.543 170.874 165.513C171.058 165.482 171.363 165.39 171.516 165.299C171.424 165.238 170.966 165.024 170.844 164.932ZM167.266 158.022C167.266 157.96 167.266 157.899 167.266 157.869C167.297 157.379 167.388 156.89 167.48 156.493C167.602 156.095 167.755 155.698 167.878 155.392C168 155.117 168.122 154.903 168.214 154.719V154.689C168.275 154.536 168.336 154.444 168.336 154.444C168.336 154.444 168.306 154.505 168.275 154.597C168.275 154.597 168.275 154.597 168.275 154.566C168.336 154.475 168.397 154.383 168.459 154.322V154.291V154.261C168.367 154.322 168.306 154.414 168.214 154.505C168.061 154.719 167.878 154.995 167.694 155.3C167.511 155.606 167.358 155.973 167.205 156.401C167.083 156.829 166.991 157.288 166.899 157.808C166.869 158.052 166.838 158.297 166.838 158.541C166.96 158.388 167.113 158.205 167.266 158.022ZM167.908 157.349C167.908 156.554 167.969 155.881 168.061 155.392C168.122 155.086 168.214 154.842 168.245 154.689C168.245 154.658 168.275 154.628 168.275 154.597C168.245 154.628 168.245 154.658 168.214 154.689C168.153 154.842 168.061 155.056 167.969 155.361C167.817 155.881 167.694 156.646 167.664 157.563C167.755 157.532 167.817 157.441 167.908 157.349ZM175.491 162.18C175.369 161.385 175.063 160.682 174.757 160.101C174.421 159.489 174.054 158.969 173.718 158.511C173.014 157.594 172.311 156.951 171.791 156.554C171.669 156.462 171.547 156.37 171.455 156.309C171.425 156.309 171.21 156.126 171.18 156.126C171.18 156.126 171.18 156.156 171.149 156.156C171.18 156.156 171.394 156.34 171.425 156.37C171.516 156.462 171.639 156.554 171.73 156.646C172.189 157.074 172.831 157.746 173.504 158.694C173.84 159.153 174.146 159.703 174.421 160.284C174.696 160.896 174.941 161.568 175.032 162.272C175.094 162.639 175.094 163.006 175.032 163.372C174.971 163.739 174.818 164.076 174.604 164.351C174.36 164.626 174.085 164.84 173.718 164.901C173.351 164.962 172.953 164.932 172.556 164.84C172.495 164.809 172.403 164.81 172.342 164.779C172.158 164.718 171.975 164.657 171.791 164.595C171.302 164.381 170.813 164.076 170.415 163.739C169.804 163.22 169.345 162.608 168.978 161.966C168.887 161.782 168.795 161.599 168.734 161.446C168.642 161.599 168.55 161.782 168.459 161.935C168.489 162.027 168.55 162.119 168.581 162.211C168.917 162.914 169.437 163.617 170.079 164.198C170.415 164.504 170.782 164.748 171.18 164.962C171.394 165.085 171.608 165.176 171.822 165.238C172.036 165.299 172.219 165.36 172.434 165.421C172.892 165.513 173.351 165.574 173.84 165.482C174.329 165.39 174.757 165.085 175.032 164.718C175.308 164.351 175.491 163.923 175.552 163.495C175.583 162.975 175.552 162.577 175.491 162.18ZM168.245 154.689C168.245 154.689 168.214 154.689 168.245 154.689C168.245 154.689 168.275 154.628 168.306 154.597C168.336 154.505 168.367 154.444 168.367 154.444C168.367 154.444 168.306 154.536 168.245 154.689ZM185.061 154.261C184.878 153.619 184.572 152.977 184.144 152.426C183.288 151.295 182.065 150.408 180.659 149.797C179.283 149.154 177.723 148.757 176.103 148.512C174.482 148.268 172.77 148.268 171.027 148.39C169.284 148.512 167.511 148.849 165.737 149.246C164.82 149.46 163.933 149.674 163.016 149.919C162.955 149.919 162.924 149.949 162.863 149.949C160.203 150.683 157.512 151.539 154.73 152.457C152.834 153.068 150.908 153.68 148.951 154.23C146.994 154.781 144.976 155.27 142.897 155.575C140.818 155.851 138.769 156.034 136.721 155.942C134.703 155.881 132.685 155.545 130.942 154.75C130.086 154.352 129.26 153.802 128.679 153.099L128.465 152.824L128.312 152.548C128.22 152.334 128.129 152.12 128.098 151.906C128.006 151.478 127.976 151.02 128.098 150.622C128.22 150.194 128.434 149.797 128.71 149.46C128.985 149.124 129.321 148.818 129.688 148.543C130.422 148.023 131.217 147.595 132.042 147.228C133.694 146.525 135.436 146.127 137.118 145.852C137.974 145.73 138.8 145.638 139.625 145.608C140.023 145.608 140.451 145.608 140.879 145.608C141.093 145.608 141.276 145.608 141.49 145.608C141.704 145.608 141.888 145.608 142.102 145.608C145.343 145.669 148.339 145.975 151.061 146.433C153.782 146.892 156.198 147.503 158.277 148.207C158.552 148.298 158.797 148.36 159.041 148.451C159.286 148.543 159.53 148.635 159.775 148.726C160.02 148.818 160.264 148.91 160.478 148.971C160.692 149.063 160.937 149.154 161.151 149.246C161.579 149.43 162.007 149.583 162.405 149.766C162.557 149.827 162.466 149.797 162.619 149.858C162.71 149.827 162.71 149.827 162.771 149.797C162.588 149.705 162.649 149.735 162.466 149.644C162.068 149.46 161.671 149.307 161.212 149.124C160.998 149.032 160.784 148.94 160.539 148.849C160.295 148.757 160.081 148.665 159.836 148.574C159.592 148.482 159.347 148.39 159.102 148.298C158.858 148.207 158.613 148.115 158.338 148.023C156.259 147.32 153.843 146.647 151.122 146.158C148.401 145.669 145.374 145.332 142.133 145.21C141.918 145.21 141.735 145.21 141.521 145.18C141.307 145.18 141.124 145.18 140.909 145.18C140.481 145.18 140.084 145.149 139.656 145.18C138.8 145.18 137.944 145.271 137.087 145.394C135.375 145.638 133.602 146.066 131.89 146.77C131.033 147.106 130.177 147.565 129.413 148.115C129.015 148.39 128.648 148.726 128.343 149.124C128.006 149.491 127.762 149.949 127.609 150.469C127.456 150.958 127.456 151.509 127.578 152.029C127.639 152.273 127.731 152.518 127.823 152.762L128.006 153.099L128.22 153.405C128.862 154.2 129.749 154.781 130.666 155.209C132.532 156.065 134.58 156.401 136.659 156.493C138.739 156.585 140.818 156.401 142.928 156.126C145.037 155.82 147.055 155.331 149.043 154.75C151.03 154.2 152.956 153.557 154.822 152.946C157.788 151.968 160.662 151.02 163.475 150.255C163.505 150.255 163.566 150.225 163.597 150.225C164.331 150.041 165.034 149.858 165.768 149.674C167.541 149.277 169.284 148.94 170.996 148.788C172.709 148.635 174.39 148.635 175.98 148.849C177.57 149.063 179.099 149.46 180.444 150.041C181.79 150.622 183.013 151.478 183.838 152.548C184.236 153.068 184.542 153.68 184.725 154.291C184.909 154.903 184.909 155.545 184.725 156.095C184.633 156.37 184.45 156.615 184.297 156.86C184.114 157.074 183.9 157.288 183.655 157.441C183.196 157.746 182.646 157.96 182.126 158.083C181.606 158.205 181.087 158.236 180.567 158.236C180.047 158.236 179.588 158.174 179.13 158.113C178.212 157.96 177.387 157.716 176.684 157.41C175.98 157.135 175.338 156.829 174.849 156.523C174.727 156.462 174.604 156.37 174.482 156.309C174.36 156.248 174.268 156.156 174.146 156.095C173.932 155.973 173.748 155.851 173.565 155.728C173.228 155.514 172.984 155.331 172.8 155.209C172.648 155.086 172.556 155.025 172.556 155.025C172.556 155.025 172.648 155.086 172.8 155.209C172.953 155.331 173.198 155.514 173.534 155.759C173.687 155.881 173.901 156.004 174.085 156.126C174.176 156.187 174.299 156.248 174.421 156.34C174.543 156.401 174.666 156.493 174.788 156.554C175.308 156.86 175.919 157.165 176.622 157.471C177.326 157.777 178.151 158.052 179.099 158.205C179.558 158.297 180.047 158.358 180.567 158.358C181.087 158.358 181.606 158.327 182.157 158.236C182.707 158.144 183.257 157.93 183.747 157.594C183.991 157.441 184.236 157.227 184.45 157.013C184.633 156.768 184.817 156.493 184.939 156.187C185.245 155.606 185.245 154.903 185.061 154.261ZM166.716 151.876C166.379 151.662 165.921 151.417 165.401 151.142C165.126 150.989 164.851 150.867 164.545 150.683C164.392 150.592 164.239 150.53 164.086 150.439C164.056 150.408 163.933 150.378 163.903 150.347C163.872 150.347 163.842 150.347 163.78 150.378C163.842 150.408 163.994 150.469 164.056 150.5C164.209 150.561 164.361 150.653 164.514 150.744C164.82 150.897 165.095 151.05 165.37 151.173C165.921 151.448 166.349 151.692 166.716 151.876C167.419 152.304 167.786 152.518 167.786 152.518C167.786 152.518 167.419 152.304 166.716 151.876Z" fill="url(#paint4_linear_97_9)"/>
<path d="M164.178 171.964H164.147V171.781H164.208C164.239 171.781 164.239 171.781 164.239 171.781V171.811V171.842C164.239 171.842 164.239 171.842 164.208 171.873C164.208 171.873 164.208 171.873 164.208 171.903V171.934H164.147V171.903V171.873L164.178 171.964ZM164.178 171.842C164.178 171.842 164.208 171.842 164.178 171.842C164.208 171.842 164.208 171.811 164.208 171.811C164.208 171.811 164.208 171.811 164.208 171.781C164.208 171.781 164.208 171.781 164.178 171.781V171.842ZM163.994 171.964V171.842V171.964H164.086L164.116 171.781H164.086V171.903L164.055 171.781H163.994L163.964 171.903V171.781H163.933L163.964 171.964H163.994ZM164.269 171.934H164.3C164.33 171.934 164.33 171.934 164.33 171.934C164.33 171.934 164.361 171.903 164.361 171.873C164.361 171.873 164.361 171.842 164.33 171.842C164.33 171.842 164.33 171.842 164.3 171.811C164.3 171.811 164.269 171.811 164.269 171.781C164.269 171.781 164.269 171.781 164.269 171.811H164.3C164.3 171.781 164.3 171.781 164.269 171.75H164.239H164.208V171.781C164.208 171.811 164.208 171.811 164.239 171.811C164.239 171.811 164.239 171.811 164.269 171.842C164.269 171.842 164.3 171.842 164.3 171.873C164.3 171.873 164.3 171.903 164.269 171.903C164.3 171.934 164.3 171.934 164.269 171.934C164.3 171.903 164.3 171.903 164.3 171.903H164.269V171.934ZM164.269 173.157H164.239V173.249C164.269 173.249 164.3 173.249 164.33 173.218C164.361 173.187 164.361 173.157 164.361 173.126C164.361 173.096 164.361 173.065 164.33 173.034C164.3 173.004 164.3 173.004 164.239 173.004C164.208 173.004 164.178 173.004 164.147 173.034C164.147 173.034 164.116 173.065 164.086 173.096C164.055 173.126 164.055 173.126 164.025 173.126C163.994 173.126 163.994 173.126 163.994 173.096V173.065H164.025H164.055V172.973H164.025C163.994 172.973 163.964 172.973 163.964 173.004C163.964 173.034 163.933 173.065 163.933 173.096C163.933 173.126 163.933 173.157 163.964 173.187C163.994 173.218 164.025 173.218 164.055 173.218H164.086C164.116 173.218 164.147 173.218 164.178 173.187C164.178 173.187 164.208 173.157 164.208 173.126C164.208 173.096 164.239 173.096 164.269 173.096H164.3C164.269 173.096 164.3 173.126 164.269 173.157C164.269 173.126 164.3 173.126 164.269 173.157ZM163.964 173.004H164.361V172.882L164.116 172.82L164.361 172.759V172.637H163.964V172.729H164.269L163.964 172.79V172.851L164.269 172.912H163.964V173.004ZM163.964 172.423H164.3V172.515H164.392V172.27H164.3V172.331H163.964V172.423ZM163.964 172.606H164.361V172.515H163.964V172.606ZM164.361 172.24V172.025H163.964V172.117H164.147V172.24H164.239V172.117H164.3V172.24H164.361ZM164.636 172.301V172.668C165.125 172.851 165.462 173.34 165.462 173.891C165.462 174.624 164.881 175.205 164.147 175.205C163.413 175.205 162.832 174.624 162.832 173.891C162.832 173.34 163.169 172.851 163.658 172.668V172.301C162.985 172.515 162.465 173.126 162.465 173.891C162.465 174.808 163.199 175.542 164.116 175.542C165.034 175.542 165.768 174.808 165.768 173.891C165.798 173.157 165.309 172.515 164.636 172.301Z" fill="white"/>
<path d="M38.6851 239.086C38.2719 226.066 37.7553 213.045 37.2903 200.025C33.5708 201.927 17.9179 199.257 17.9179 199.257C17.9179 199.257 17.6855 185.651 14.7925 184.298C11.8996 182.945 12.6228 157.489 12.6228 157.489C12.6228 157.489 12.6228 151.783 9.23911 150.467C5.85541 149.15 8.51588 133.313 5.39047 133.313C3.45323 133.313 1.02522 132.984 -0.524566 132.728C-1.37695 132.582 -2.10018 134.191 -2.10018 136.203V173.326C-2.10018 173.326 -12.7163 175.081 -13.9044 185.614C-15.1184 196.148 -12.2255 195.709 -17.5206 196.148C-22.8157 196.587 -34.3875 209.315 -36.7897 215.935C-37.8487 218.861 -1.91937 240.842 38.556 264.469C38.6851 256.093 38.8401 247.645 38.6851 239.086Z" fill="#DA6524"/>
<path d="M252.844 201.768C252.844 201.768 262.798 197.25 272.945 196.304C283.093 195.357 281.882 182.81 281.882 182.81C281.882 182.81 281.688 180.551 284.473 180.246C287.259 179.94 286.508 179.574 286.508 179.574L286.605 169.53C286.605 169.53 285.975 167.485 287.404 167.301C288.833 167.118 290.867 166.721 291.013 167.301C291.158 167.881 292.03 178.231 292.03 178.231C292.03 178.231 293.192 179.91 294.258 180.001C295.299 180.093 294.258 160.432 294.258 160.432C294.258 160.432 294.524 157.868 295.88 157.868C297.237 157.868 298.932 156.616 298.932 156.616V150.358C298.932 150.358 298.472 148.252 301.184 147.702C303.897 147.153 306.609 145.443 306.609 145.443C306.609 145.443 309.782 144.497 309.879 147.702C309.976 150.908 311.017 174.873 311.017 174.873C311.017 174.873 314.408 174.873 314.529 177.071C314.65 179.269 316.103 195.021 316.103 195.021C316.103 195.021 317.12 197.769 319.615 197.769C322.109 197.769 330.126 195.357 334.316 199.723C338.505 204.088 339.184 204.943 345.844 205.279C352.504 205.584 355.337 206.286 356.234 207.477C356.33 207.599 356.573 207.691 356.936 207.752C356.5 212.362 356.016 217.002 355.628 221.642C355.483 224.695 355.628 227.687 355.749 230.679C307.699 241.303 252.844 252.904 252.844 252.904V201.768Z" fill="#DA6524"/>
<path d="M310 201.167C306.553 200.857 284.368 197.81 281.699 198.854C278.718 200.01 279.807 199.39 276.697 198.544C275.142 198.12 272.939 197.81 271.539 198.233C270.917 197.923 269.984 197.161 269.362 197.077C268.274 196.767 265.915 196.541 264.982 196.231C263.116 195.61 263.272 195.074 261.717 194.115C260.162 193.382 258.425 193.043 256.87 192.31C255.16 191.351 254.538 189.884 252.205 189.348C248.914 188.699 244.974 191.125 242.461 192.197C238.988 193.579 238.029 196.626 234.245 197.782C232.664 198.205 230.798 197.669 229.217 198.515C228.258 199.051 228.258 200.405 227.636 200.744C227.04 201.139 226.392 201.252 225.692 201.223V199.136C225.692 198.797 226.288 198.769 226.288 198.769H227.04C227.947 198.769 227.921 198.177 227.921 198.177L227.895 195.328C227.895 195.328 228.051 194.848 227.506 194.848C226.962 194.848 227.04 195.243 227.04 195.243V197.838C227.04 197.838 227.04 198.374 226.625 198.374C226.211 198.374 226.185 198.064 226.185 198.064L226.055 192.282C226.055 192.282 226.107 191.887 225.537 191.887C224.967 191.887 224.967 192.225 224.967 192.225L225.07 197.19C225.07 197.19 225.174 197.669 224.682 197.669C224.189 197.669 224.215 197.19 224.215 197.19V188.84C224.215 188.84 224.215 188.502 223.8 188.502C223.386 188.502 223.438 188.84 223.438 188.84L223.515 197.782C223.515 197.782 223.489 198.515 223.075 198.515C222.66 198.515 222.764 197.838 222.764 197.838V193.946C222.764 193.946 222.919 193.353 222.323 193.353C221.727 193.353 221.857 193.833 221.857 193.833C221.857 193.833 222.09 198.092 222.09 198.544C222.09 199.08 222.634 199.305 223.152 199.305C224.008 199.305 223.956 199.813 223.956 199.813L223.982 200.913C221.779 200.151 219.446 198.487 217.451 198.487C215.403 198.487 214.159 199.446 212.267 199.757C210.686 200.067 208.82 199.954 207.395 200.292C204.104 200.913 200.631 202.408 197.339 203.339C192 204.806 189.305 207.401 183.344 207.824L183.24 219.615C172.744 215.355 163.803 211.181 161.03 210.419C154.861 208.698 138.119 205.088 130.526 205.934C122.932 206.78 119.2 198.487 116.375 198.628C113.55 198.769 111.217 189.602 106.734 189.461C102.224 189.32 98.2849 195.131 93.2571 197.556C88.2292 199.982 87.9441 199.08 81.9573 196.061C68.2732 189.122 62.5196 195.779 57.4918 195.215C52.4639 194.651 53.6301 190.194 52.2047 189.63C50.7793 189.066 46.9177 185.484 46.6585 190.928C46.3993 196.372 44.7407 197.359 42.7969 196.879C40.8531 196.4 42.5377 185.343 42.7969 179.786C43.0561 174.201 37.8986 176.767 36.9915 176.767C36.0844 176.767 35.6957 187.797 35.9548 191.097C36.214 194.397 30.4345 192.535 29.3979 192.394C28.3612 192.253 28.2316 176.796 28.4908 170.336C28.7499 163.877 23.6962 164.723 23.6962 164.723C23.6962 164.723 13.4071 163.566 8.89761 163.736C4.38807 163.905 5.29517 169.603 5.29517 169.603C5.29517 169.603 5.036 179.899 5.29517 185.202C5.55433 190.504 0.319122 189.433 0.319122 189.433C0.319122 189.433 -3.85349 189.207 -5.38259 189.348C-6.9376 189.489 -7.32636 195.356 -7.32636 195.356L-14.5312 197.782L-12.3542 249.938H186.376L220.12 229.685C217.917 229.769 215.377 229.515 212.63 229.008L309.171 228.979L310 201.167Z" fill="url(#paint5_linear_97_9)"/>
<path d="M-95.9062 279.711H126.243V226.121C120.405 225.551 69.8271 215.308 65.2808 217.243C60.192 219.367 60.2437 220.382 54.9483 218.828" fill="#993118"/>
<path d="M167.308 208.536C168.034 208.114 169.02 207.482 170.006 206.875C168.916 207.508 167.801 208.141 167.308 208.536Z" fill="#993118"/>
<path d="M218.986 203.711C216.34 202.578 213.383 202.103 210.736 200.969C207.805 199.519 206.767 197.252 202.772 196.461C197.168 195.485 190.449 199.203 186.142 200.811C180.227 202.921 173.897 207.06 167.463 208.826C166.892 208.958 166.918 208.826 167.282 208.536C167.022 208.695 166.789 208.826 166.607 208.905C162.352 211.331 155.296 213.44 149.952 214.099C149.355 213.915 148.784 213.73 148.317 213.598C144.348 212.544 139.626 213.203 135.657 212.649C126.136 211.199 123.671 207.429 114.954 205.742C109.065 204.529 100.089 201.866 92.228 202.077V198.386C92.228 197.911 93.136 197.858 93.136 197.858H94.3034C95.7044 197.858 95.6784 196.988 95.6784 196.988L95.6525 192.902C95.6525 192.902 95.886 192.216 95.0817 192.216C94.2775 192.216 94.3813 192.77 94.3813 192.77V196.461C94.3813 196.461 94.3813 197.226 93.7327 197.226C93.0841 197.226 93.0582 196.777 93.0582 196.777L92.8506 188.499C92.8506 188.499 92.9285 187.945 92.0723 187.945C91.2162 187.945 91.2162 188.42 91.2162 188.42L91.3719 195.538C91.3719 195.538 91.5275 196.224 90.7752 196.224C90.0228 196.224 90.0747 195.538 90.0747 195.538V183.568C90.0747 183.568 90.0488 183.094 89.4261 183.094C88.8035 183.094 88.8813 183.568 88.8813 183.568L89.011 196.356C89.011 196.356 88.9851 197.41 88.3625 197.41C87.7398 197.41 87.8955 196.435 87.8955 196.435L87.8695 190.845C87.8695 190.845 88.129 190.001 87.195 190.001C86.2611 190.001 86.4686 190.687 86.4686 190.687C86.4686 190.687 86.8318 196.777 86.8318 197.41C86.8318 198.201 87.662 198.517 88.4403 198.517C89.7634 198.517 89.6596 199.229 89.6596 199.229L89.7115 202.261C84.4191 202.973 82.8366 204.661 78.7116 205.768C74.7942 206.664 70.4357 207.06 66.5183 207.93C62.6009 209.09 63.016 209.749 58.2943 210.514C55.9335 210.909 50.0184 211.147 47.2685 211.516C45.6859 211.647 43.351 212.544 41.7685 212.939C38.1884 212.412 32.6884 212.781 28.745 213.308C20.8843 214.337 23.6602 215.101 16.1107 213.678C9.36549 212.359 8.69096 205.768 0.0259432 206.137L0 254.781L224.564 206.928C221.373 205.979 221.658 205.162 218.986 203.711Z" fill="#993118"/>
<path d="M172.418 205.478C171.77 205.794 170.914 206.322 170.006 206.875C171.874 205.794 173.741 204.819 172.418 205.478Z" fill="#993118"/>
<path d="M300.054 199.078V198.616C302.379 198.616 302.302 197.229 302.302 197.229V195.676V195.643V181.905C302.302 181.905 302.276 181.244 301.63 181.244C300.984 181.244 301.062 181.905 301.062 181.905L301.191 196.04C301.191 196.04 301.139 197.493 300.519 197.493C299.899 197.493 300.028 196.139 300.028 196.139L299.899 188.081C299.899 188.081 299.977 187.024 299.279 187.057C298.375 187.09 298.53 187.949 298.53 187.949C298.53 187.949 298.633 190.657 298.711 194.488C298.246 194.488 297.497 194.322 297.497 193.233C297.497 191.68 297.445 185.373 297.445 185.373C297.445 185.373 297.497 184.283 296.644 184.382C296.05 184.448 296.179 185.571 296.179 185.571L296.334 192.902C296.334 192.902 296.308 195.313 298.737 195.511C298.762 196.7 298.788 197.856 298.814 198.946C294.526 198.418 290.186 197.988 285.717 197.823C278.69 197.526 272.8 196.832 265.489 197.427C263.758 197.526 262.131 197.724 260.555 197.922L254.613 198.682C252.547 198.913 250.428 199.111 248.077 199.144C244.151 199.243 239.372 198.748 235.729 199.045C232.913 199.243 230.382 200.036 227.592 200.234C225.06 200.432 222.244 200.036 220.022 200.432C216.922 200.828 213.28 202.315 210.464 203.14C203.437 205.023 200.079 205.848 191.089 205.749C182.667 205.65 179.852 206.146 172.283 207.037C164.972 207.929 159.443 213.874 152.443 213.477C144.873 213.18 136.994 220.148 129.425 219.95C117.903 219.653 115.656 217.044 106.95 215.261L106.097 215.062C98.2442 214.369 94.5758 213.378 86.1542 213.18C79.6958 213.081 74.09 212.288 67.3475 212.09C59.4942 211.892 59.21 210.406 52.4675 209.481C46.5775 208.689 35.34 208.887 29.1658 208.788C23.8183 208.788 23.2758 208.887 19.6075 209.977C18.3158 210.307 17.1533 210.604 16.0942 210.868V207.797C16.0942 206.476 17.0758 206.344 17.0758 206.344H18.3417C19.8658 206.344 19.84 203.966 19.84 203.966L19.7883 192.704C19.7883 192.704 20.0467 190.789 19.1425 190.789C18.2383 190.789 18.3675 192.275 18.3675 192.275V202.447C18.3675 202.447 18.3675 204.56 17.67 204.56C16.9725 204.56 16.9467 203.338 16.9467 203.338L16.7142 180.518C16.7142 180.518 16.8175 178.999 15.8358 178.999C14.8542 178.999 14.88 180.32 14.88 180.32L15.0608 199.904C15.0608 199.904 15.2158 201.786 14.415 201.786C13.6142 201.786 13.64 199.904 13.64 199.904V166.977C13.64 166.977 13.6142 165.656 12.9167 165.656C12.2192 165.656 12.3225 166.977 12.3225 166.977L12.4517 202.216C12.4517 202.216 12.4 205.089 11.7283 205.089C11.0567 205.089 11.2117 202.381 11.2117 202.381L11.1858 187.024C11.1858 187.024 11.47 184.679 10.4367 184.679C9.40333 184.679 9.63583 186.561 9.63583 186.561C9.63583 186.561 10.0233 203.305 10.0233 205.089C10.0233 207.235 10.9275 208.127 11.8058 208.127C13.2525 208.127 13.1492 210.109 13.1492 210.109V211.496C9.6875 212.222 6.30333 212.619 0 212.916V267.375H310V200.597C306.745 200.069 303.412 199.54 300.054 199.078Z" fill="#51190B"/>
<path d="M261.334 211.362C262.264 210.849 263.375 210.195 263.246 210.009C263.065 209.752 260.378 210.965 259.578 211.339C259.526 211.339 259.5 211.339 259.448 211.339C260.094 210.522 264.46 205.178 264.408 204.898C264.356 204.595 258.26 210.919 258.079 210.919C257.899 210.919 260.895 205.832 260.74 205.622C260.585 205.412 256.891 210.872 256.71 210.779C256.529 210.685 259.371 201.305 259.164 201.025C258.958 200.745 255.806 210.755 255.496 210.732C255.186 210.709 255.651 205.528 255.496 205.015C255.341 204.502 254.592 210.545 254.282 210.452C253.972 210.359 253.869 202.612 253.662 201.935C253.456 201.258 253.326 210.125 253.171 210.125C253.016 210.125 252.758 207.932 252.5 207.489C252.241 207.045 252.655 210.265 252.319 210.265C251.983 210.265 250.924 207.232 250.588 206.649C250.278 206.065 251.337 210.382 250.95 210.382C250.562 210.382 248.083 206.579 247.592 206.252C247.024 205.855 249.607 210.359 249.348 210.639C249.09 210.919 244.647 207.139 243.407 206.462C242.167 205.762 248.444 211.129 247.566 211.222C246.662 211.315 243.821 209.915 243.252 210.009C242.916 210.079 244.285 210.755 245.396 211.292C234.676 211.199 223.698 211.105 213.417 210.989L213.391 201.562C217.705 201.468 217.421 198.295 217.421 198.295L217.989 192.111C217.989 192.111 218.222 189.777 216.439 189.777C214.683 189.777 214.967 191.994 214.967 191.994C214.967 191.994 215.096 197.641 214.967 198.971C214.89 199.835 213.986 200.091 213.366 200.161V192.158C213.366 192.158 213.934 187.584 210.602 187.584C207.269 187.584 207.786 191.364 207.786 191.364L208.251 204.852C207.631 204.782 206.649 204.548 206.572 203.662C206.443 202.355 206.572 196.685 206.572 196.685C206.572 196.685 206.882 194.468 205.1 194.468C203.317 194.468 203.55 196.801 203.55 196.801L204.118 202.985C204.118 202.985 203.834 206.228 208.251 206.252L208.406 210.942C187.018 210.709 169.478 210.429 164.932 210.125C151.293 209.239 149.795 211.455 138.817 217.359C135.743 219.016 126.857 219.926 115.491 220.346C116.628 219.903 118.126 219.296 117.764 219.249C117.222 219.156 114.355 220.323 113.451 220.253C112.546 220.159 118.849 215.796 117.609 216.379C116.369 216.939 111.901 220.019 111.668 219.786C111.41 219.553 113.993 215.889 113.425 216.216C112.934 216.496 110.454 219.599 110.067 219.599C109.679 219.599 110.738 216.052 110.428 216.542C110.118 217.033 109.033 219.483 108.723 219.483C108.413 219.483 108.827 216.846 108.543 217.219C108.258 217.593 108.026 219.366 107.871 219.366C107.716 219.366 107.587 212.132 107.38 212.692C107.199 213.252 107.096 219.576 106.76 219.646C106.424 219.716 105.701 214.792 105.546 215.212C105.391 215.632 105.83 219.856 105.546 219.879C105.262 219.903 102.085 211.736 101.878 211.969C101.672 212.202 104.513 219.833 104.332 219.926C104.151 220.019 100.457 215.539 100.302 215.726C100.147 215.912 103.144 220.043 102.963 220.043C102.782 220.043 96.6861 214.886 96.6344 215.119C96.5828 215.352 101.672 220.463 101.672 220.463C101.672 220.463 98.0035 219.039 97.7969 219.296C97.6419 219.459 99.2951 220.206 100.251 220.626C90.5383 220.673 80.18 220.486 70.6224 220.206L71.0616 207.629C78.036 207.582 77.571 202.472 77.571 202.472L78.4751 192.741C78.4751 192.741 78.8368 189.054 76.047 189.054C73.2572 189.054 73.748 192.554 73.748 192.554C73.748 192.554 73.9288 201.445 73.748 203.522C73.6189 204.922 72.0948 205.295 71.1132 205.412L71.8623 184.2C71.8623 184.2 72.6631 178.25 67.4194 178.25C62.1757 178.25 63.0539 185.46 63.0539 185.46L63.0281 198.061C62.0465 197.945 60.6258 197.548 60.4966 196.195C60.3158 194.141 60.4966 185.227 60.4966 185.227C60.4966 185.227 60.9874 181.727 58.1977 181.727C55.4079 181.727 55.7695 185.414 55.7695 185.414L56.6736 195.144C56.6736 195.144 56.2087 200.161 63.0023 200.301L62.9764 219.996C58.3785 219.833 54.0905 219.646 50.3191 219.436C51.2749 218.713 52.4631 217.756 52.334 217.499C52.1532 217.149 49.4151 218.876 48.6659 219.366C48.6143 219.366 48.5885 219.366 48.5368 219.366C49.1826 218.269 53.548 210.825 53.4964 210.452C53.4447 210.032 47.3486 218.783 47.1677 218.783C46.9869 218.783 49.9833 211.759 49.8284 211.456C49.6734 211.152 45.9795 218.713 45.7987 218.573C45.6179 218.433 48.4593 205.482 48.2526 205.085C48.046 204.712 44.8946 218.526 44.5846 218.503C44.2746 218.479 44.7396 211.292 44.5846 210.592C44.4296 209.869 43.7064 218.246 43.3706 218.106C43.0606 217.966 42.9573 207.279 42.7506 206.322C42.5698 205.365 42.4148 217.639 42.2598 217.639C42.1048 217.639 41.8465 214.629 41.5882 213.999C41.3041 213.392 41.7432 217.849 41.4074 217.849C41.0716 217.849 40.0125 213.672 39.7025 212.832C39.3926 211.992 40.4516 218.013 40.0642 218.013C39.6767 218.013 37.1969 212.762 36.7319 212.296C36.1637 211.736 38.7468 217.989 38.4885 218.363C38.2301 218.736 33.7872 213.532 32.5215 212.576C31.4624 211.782 35.6987 216.823 36.6028 218.573C35.9312 218.503 35.4145 218.433 35.0787 218.386C34.8463 218.339 34.6138 218.316 34.3555 218.293C33.4772 217.849 32.6506 217.406 32.3665 217.476C32.1856 217.523 32.5215 217.849 33.0639 218.246C23.4805 218.153 0 225.76 0 225.76V306.125H310V211.666C310 211.666 288.147 211.549 261.334 211.362Z" fill="url(#paint6_linear_97_9)"/>
</g>
<defs>
<linearGradient id="paint0_linear_97_9" x1="155" y1="319.688" x2="155" y2="3.81097e-05" gradientUnits="userSpaceOnUse">
<stop stop-color="#F9E99F"/>
<stop offset="0.8" stop-color="#ABCC9F"/>
<stop offset="1" stop-color="#71BB9A"/>
</linearGradient>
<linearGradient id="paint1_linear_97_9" x1="41.9849" y1="136.383" x2="41.9849" y2="254.152" gradientUnits="userSpaceOnUse">
<stop stop-color="#F08127"/>
<stop offset="1" stop-color="#FCCA59"/>
</linearGradient>
<linearGradient id="paint2_linear_97_9" x1="266.43" y1="124.344" x2="266.43" y2="242.568" gradientUnits="userSpaceOnUse">
<stop stop-color="#F08127"/>
<stop offset="1" stop-color="#FCCA59"/>
</linearGradient>
<radialGradient id="paint3_radial_97_9" cx="0" cy="0" r="1" gradientUnits="userSpaceOnUse" gradientTransform="translate(154.516 173.891) scale(44.6076 44.6076)">
<stop stop-color="#F9E99F"/>
<stop offset="0.8587" stop-color="#F9E99F" stop-opacity="0.8283"/>
<stop offset="1" stop-color="#F9E99F" stop-opacity="0.8"/>
</radialGradient>
<linearGradient id="paint4_linear_97_9" x1="121.754" y1="172.742" x2="192.728" y2="172.742" gradientUnits="userSpaceOnUse">
<stop stop-color="#0E0502"/>
<stop offset="0.05" stop-color="#130602"/>
<stop offset="0.1" stop-color="#140602"/>
<stop offset="0.15" stop-color="#160703"/>
<stop offset="0.2" stop-color="#170703"/>
<stop offset="0.25" stop-color="#190804"/>
<stop offset="0.3" stop-color="#1B0804"/>
<stop offset="0.35" stop-color="#1B0804"/>
<stop offset="0.4" stop-color="#1C0804"/>
<stop offset="0.45" stop-color="#1D0804"/>
<stop offset="0.5" stop-color="#1E0904"/>
<stop offset="0.55" stop-color="#200A04"/>
<stop offset="0.6" stop-color="#210A04"/>
<stop offset="0.65" stop-color="#230B05"/>
<stop offset="0.7" stop-color="#250B05"/>
<stop offset="0.75" stop-color="#270C05"/>
<stop offset="0.8" stop-color="#280C05"/>
<stop offset="0.85" stop-color="#2A0C05"/>
<stop offset="0.9" stop-color="#2C0D05"/>
<stop offset="0.95" stop-color="#2E0E05"/>
<stop offset="1" stop-color="#300F06"/>
</linearGradient>
<linearGradient id="paint5_linear_97_9" x1="147.729" y1="163.712" x2="147.729" y2="249.954" gradientUnits="userSpaceOnUse">
<stop stop-color="#CD4424"/>
<stop offset="1" stop-color="#DA6524"/>
</linearGradient>
<linearGradient id="paint6_linear_97_9" x1="0.00518942" y1="217.007" x2="310" y2="217.007" gradientUnits="userSpaceOnUse">
<stop stop-color="#0E0502"/>
<stop offset="0.05" stop-color="#130602"/>
<stop offset="0.1" stop-color="#140602"/>
<stop offset="0.15" stop-color="#160703"/>
<stop offset="0.2" stop-color="#170703"/>
<stop offset="0.25" stop-color="#190804"/>
<stop offset="0.3" stop-color="#1B0804"/>
<stop offset="0.35" stop-color="#1B0804"/>
<stop offset="0.4" stop-color="#1C0804"/>
<stop offset="0.45" stop-color="#1D0804"/>
<stop offset="0.5" stop-color="#1E0904"/>
<stop offset="0.55" stop-color="#200A04"/>
<stop offset="0.6" stop-color="#210A04"/>
<stop offset="0.65" stop-color="#230B05"/>
<stop offset="0.7" stop-color="#250B05"/>
<stop offset="0.75" stop-color="#270C05"/>
<stop offset="0.8" stop-color="#280C05"/>
<stop offset="0.85" stop-color="#2A0C05"/>
<stop offset="0.9" stop-color="#2C0D05"/>
<stop offset="0.95" stop-color="#2E0E05"/>
<stop offset="1" stop-color="#300F06"/>
</linearGradient>
</defs>
</svg>
