<?xml version="1.0" encoding="utf-8"?>
<!-- Generator: Adobe Illustrator 26.4.1, SVG Export Plug-In . SVG Version: 6.00 Build 0)  -->
<svg version="1.1" id="Layer_1" xmlns="http://www.w3.org/2000/svg" xmlns:xlink="http://www.w3.org/1999/xlink" x="0px"
	y="0px" viewBox="0 0 1200 628" style="enable-background:new 0 0 1200 628;" xml:space="preserve">
	<style type="text/css">
		.st0 {
			clip-path: url(#SVGID_00000019638710616400297660000004212859104618458559_);
		}

		.st1 {
			fill: url(#SVGID_00000033340973495778519720000014855312790355234743_);
		}

		.st2 {
			opacity: 0.2;
			fill: #F9E99F;
			enable-background: new;
		}

		.st3 {
			fill: url(#SVGID_00000176040536727533101840000017052421795530505907_);
		}

		.st4 {
			fill: url(#SVGID_00000183230415048302129660000010183384925826923187_);
		}

		.st5 {
			fill: #DA6524;
		}

		.st6 {
			fill: url(#SVGID_00000098917179172113118150000000590953867730004135_);
		}

		.st7 {
			opacity: 0.35;
			fill: #F9E99F;
			enable-background: new;
		}

		.st8 {
			fill: url(#SVGID_00000113344915447855858990000000919495090310288828_);
		}

		.st9 {
			fill: #FFFFFF;
		}

		.st10 {
			fill: url(#SVGID_00000063613588235768107280000012783368878318036128_);
		}

		.st11 {
			fill: #993118;
		}

		.st12 {
			fill: #51190B;
		}

		.st13 {
			fill: url(#SVGID_00000163781485775744135700000000547049455258223538_);
		}
	</style>
	<g>
		<defs>
			<rect id="SVGID_1_" width="1200" height="628" />
		</defs>
		<clipPath id="SVGID_00000053519496227369894340000009575775892572196488_">
			<use xlink:href="#SVGID_1_" style="overflow:visible;" />
		</clipPath>
		<g style="clip-path:url(#SVGID_00000053519496227369894340000009575775892572196488_);">

			<linearGradient id="SVGID_00000005227739545007235920000002971838230343239862_"
				gradientUnits="userSpaceOnUse" x1="600" y1="2" x2="600" y2="630"
				gradientTransform="matrix(1 0 0 -1 0 630)">
				<stop offset="0" style="stop-color:#F9E99F" />
				<stop offset="0.8" style="stop-color:#ABCC9F" />
				<stop offset="1" style="stop-color:#71BB9A" />
			</linearGradient>
			<path style="fill:url(#SVGID_00000005227739545007235920000002971838230343239862_);"
				d="M1200,0H0v628h1200V0z" />
			<path class="st2" d="M0,8v72.9c0,0,185.6-12.2,117.8-25.8c-11-2.2-60.7-3.7-73.9-11c-15.8-8.8,6.7-14,36.6-14.6
			c73.2-1.5,417.1,2.9,365.9-14.6C362.1-14,0,8,0,8z" />
			<path class="st2" d="M0,229.1v78.4c0,0,673.2,7.4,679-33.6c3.1-21.5-529.8,22-533.3-5.6c0,0-0.8-14.9,69.4-14.9
			S423.3,245.6,388,229S0,229.1,0,229.1z" />
			<path class="st2" d="M1200,2.3c0,0-452.8-12.5-379.3,21.1s328.1-0.1,288.6,30.6S68,64.5,134.6,100.8
			C199.5,136,623.4,89.4,799,127.1c109.3,23.4-116.2,38.5-156.6,42.4c-12.2,1.2-103.9,14.6,42.4,24.9c140.6,9.8,515.1,5.9,515.1,5.9
			v-49.8c0,0-319,21.9-336.6-1.5c-14.3-19.1,30.7-27.8,127.3-33.7c96.6-5.8,209.3-10.3,209.3-10.3L1200,2.3L1200,2.3z" />

			<linearGradient id="SVGID_00000108992221749871868480000015809539273491947422_"
				gradientUnits="userSpaceOnUse" x1="94.0484" y1="417.1523" x2="94.0484" y2="-0.2877"
				gradientTransform="matrix(1 0 0 -1 0 630)">
				<stop offset="0" style="stop-color:#F08127" />
				<stop offset="1" style="stop-color:#FCCA59" />
			</linearGradient>
			<path style="fill:url(#SVGID_00000108992221749871868480000015809539273491947422_);"
				d="M-499.2,496.6c0,0,98.4-41.5,148.5-41.5
			s92.6,3.1,96.4-14.5c3.9-17.6,9.6-30.1,67.5-35.8c57.9-5.7,99.9-120,105.7-133c5.8-13,5.8-37.3,20.3-38.4
			c14.5-1.1,7.7-82.2,21.2-81.8c13.5,0.4,50.2-5.3,53,17c2.9,22.3,1.9,48.2,12.5,52.4s14.5,9.9,14.5-3.6V121c0,0,2.9-13.5,26-12.4
			s81-10.4,85.8,17.1s-2.9,35.3,11.6,36.3s38.6-3.6,41.5,16.6c2.9,20.2-1,97,10.6,101.1s16.4-5.2,13.5-23.3c-2.9-18.1,0.8-42,0.8-42
			s-5.6-18.1,26.2-17.6s26,24.4,27,33.2c0.5,4.9,0.5,25.2,0.3,42.6c-0.2,24,2.3,48,8,71.2c5.2,21.4,12.9,45,23.9,58
			c26.2,31.2,86.2,59.3,166.7,70.2c44.1,6,59.8,22.5,82,23c22.2,0.5,107.6,32.2,122.9,68.8C702.7,600.2-296.7,573.3-499.2,496.6z" />

			<linearGradient id="SVGID_00000005231222336627769320000003477460028283397255_"
				gradientUnits="userSpaceOnUse" x1="1061.8" y1="496.31" x2="1061.8" y2="77.26"
				gradientTransform="matrix(1 0 0 -1 0 630)">
				<stop offset="0" style="stop-color:#F08127" />
				<stop offset="1" style="stop-color:#FCCA59" />
			</linearGradient>
			<path style="fill:url(#SVGID_00000005231222336627769320000003477460028283397255_);"
				d="M625.7,489.7c0,0,75.9-76.5,132.2-77.7
			c56.3-1.2,109.1-2.5,112.6-35.7s10-42.6,16.4-42.6c6.4,0,53.4,5,55.1,4.4s18.8,1.9,18.2-24.4c-0.6-26.3,13.5-93.9,13.5-93.9
			s1.5-20.5,10.7-20.5c9.2,0,18.5-0.5,18.5,26.8s-5.3,74.2,0,74.7c5.3,0.5,18.5,7.5,17.2-15c-1.3-22.5,0.1-122.1,0.1-122.1
			s-5.4-31.9,2.5-34.8c7.9-2.8,3.1-22.5,8.8-23.9h19.8l63.8,3.3c0,0,17.2-4.2,18.5,17.8c1.3,22.1,0,114.6,0,114.6
			s-4.8,18.8,7.9,18.3s17.2-11.3,18-33.8s0.4-44.6,2.6-46c2.2-1.4,12.3-0.9,12.3-5.2s-0.4-37.1,9.2-37.1s20.2,0,19.4,31
			s3.1,139.5,3.1,139.5s-0.4,17.9,17.2,16c17.6-1.9,33,1.8,32.6-14.6c-0.4-16.4,0.8-19.3,0.8-19.3s-2.2-20.7,14.1-20.7
			c16.3,0,29.9-5.2,29.9,27.2s4,55,4,55s-4.4,123.6,18.4,120.3c22.9-3.3,174.8,34.3,174.8,34.3L1482,582l-831.4-7.5L625.7,489.7z" />
			<path class="st5" d="M148.8,521.1c-1.6-35.6-3.6-71.2-5.4-106.8c-14.4,5.2-75-2.1-75-2.1s-0.9-37.2-12.1-40.9
			c-11.2-3.7-8.4-73.3-8.4-73.3s0-15.6-13.1-19.2c-13.1-3.6-2.8-46.9-14.9-46.9c-7.5,0-16.9-0.9-22.9-1.6c-3.3-0.4-6.1,4-6.1,9.5
			v101.5c0,0-41.1,4.8-45.7,33.6c-4.7,28.8,6.5,27.6-14,28.8c-20.5,1.2-65.3,36-74.6,54.1c-4.1,8,135,68.1,291.7,132.7
			C148.8,567.6,149.4,544.5,148.8,521.1z" />
			<path class="st5"
				d="M1003.3,431.9c0,0,41.1-14.8,83-17.9c41.9-3.1,36.9-44.2,36.9-44.2s-0.8-7.4,10.7-8.4s8.4-2.2,8.4-2.2
			l0.4-32.9c0,0-2.6-6.7,3.3-7.3s14.3-1.9,14.9,0s4.2,35.8,4.2,35.8s4.8,5.5,9.2,5.8c4.3,0.3,0-64.1,0-64.1s1.1-8.4,6.7-8.4
			s12.6-4.1,12.6-4.1v-20.5c0,0-1.9-6.9,9.3-8.7c11.2-1.8,22.4-7.4,22.4-7.4s13.1-3.1,13.5,7.4c0.4,10.5,4.7,89,4.7,89
			s14,0,14.5,7.2s6.5,58.8,6.5,58.8s4.2,9,14.5,9s43.4-7.9,60.7,6.4c17.3,14.3,20.1,17.1,47.6,18.2c27.5,1,39.2,3.3,42.9,7.2
			c0.4,0.4,1.4,0.7,2.9,0.9c-1.8,15.1-3.8,30.3-5.4,45.5c-0.6,10,0,19.8,0.5,29.6c-198.4,34.8-424.9,72.8-424.9,72.8V431.9z" />

			<radialGradient id="SVGID_00000002345496993093294260000008929492150331186606_" cx="129.1089" cy="708.4585"
				r="1.0001" gradientTransform="matrix(145.89 0 0 -145.89 -18235.6992 103687.0078)"
				gradientUnits="userSpaceOnUse">
				<stop offset="0" style="stop-color:#F9E99F" />
				<stop offset="0.8587" style="stop-color:#F9E99F;stop-opacity:0.8283" />
				<stop offset="1" style="stop-color:#F9E99F;stop-opacity:0.8" />
			</radialGradient>
			<path style="fill:url(#SVGID_00000002345496993093294260000008929492150331186606_);" d="M600,475.9
			c80.6,0,145.9-65.3,145.9-145.9S680.6,184.1,600,184.1S454.1,249.4,454.1,330S519.4,475.9,600,475.9z" />
			<path class="st7" d="M600,200.3c71.6,0,129.7,58.1,129.7,129.7S671.6,459.7,600,459.7S470.3,401.6,470.3,330
			S528.4,200.3,600,200.3z M440,330c0,88.4,71.6,160,160,160s160-71.6,160-160s-71.6-160-160-160S440,241.6,440,330z" />

			<linearGradient id="SVGID_00000016069836862638956990000005233243535251768218_"
				gradientUnits="userSpaceOnUse" x1="492.9" y1="303.7688" x2="725.02" y2="303.7688"
				gradientTransform="matrix(1 0 0 -1 0 630)">
				<stop offset="0" style="stop-color:#0E0502" />
				<stop offset="5.000000e-02" style="stop-color:#130602" />
				<stop offset="0.1" style="stop-color:#140602" />
				<stop offset="0.15" style="stop-color:#160703" />
				<stop offset="0.2" style="stop-color:#170703" />
				<stop offset="0.25" style="stop-color:#190804" />
				<stop offset="0.3" style="stop-color:#1B0804" />
				<stop offset="0.35" style="stop-color:#1B0804" />
				<stop offset="0.4" style="stop-color:#1C0804" />
				<stop offset="0.45" style="stop-color:#1D0804" />
				<stop offset="0.5" style="stop-color:#1E0904" />
				<stop offset="0.55" style="stop-color:#200A04" />
				<stop offset="0.6" style="stop-color:#210A04" />
				<stop offset="0.65" style="stop-color:#230B05" />
				<stop offset="0.7" style="stop-color:#250B05" />
				<stop offset="0.75" style="stop-color:#270C05" />
				<stop offset="0.8" style="stop-color:#280C05" />
				<stop offset="0.85" style="stop-color:#2A0C05" />
				<stop offset="0.9" style="stop-color:#2C0D05" />
				<stop offset="0.95" style="stop-color:#2E0E05" />
				<stop offset="1" style="stop-color:#300F06" />
			</linearGradient>
			<path style="fill:url(#SVGID_00000016069836862638956990000005233243535251768218_);" d="M504.9,410.1c1.7-0.5,2.2-1.4,2.7-2
			c0.7-1,1-2,1.2-3.1c1.9-1.1,3.6-2.6,4.5-4.3c-0.4,0-0.9-0.2-1.2-0.2c0.9-0.7,2.3-1.2,3.1-2.1c-0.8,0.2-1.7,0.4-2.5,0.6
			c0,0,0.1-0.1,0.2-0.1c1.5-1.5,3.3-2.8,4.9-4.1c2.5-2.1,5.9-4.2,8.9-5.3c1.7-0.6,2.8-1.2,4.1-2.2c0.1-2.4,2.1-4,3.7-5.7
			c2.5-2.7,5.1-3.3,7.8-5.8c1.2-2,3.6-4.6,5.3-6.2c-2.3-1.4-3.9-7.8-4.1-8.3c-0.2,0.5-2.7,5.2-3,7.3l-0.2,0.3
			c-3.8,5.5-5.9,7.2-9.7,9c-1.7,0.9-3.2,1.4-4.7,2.9c-1.8,1.9-2.7,3.3-2.7,3.4c-0.1,0.1,0,0-0.3,0.2c-4.5,3.7-10.2,6.7-14.8,10.3
			c-1.6,1.3-5,3.3-6.3,4.9c-4.4,2.5-5.5,4.8-8.9,8c0.2,0.2,0.4,0.3,0.6,0.3c0.8,1.5,4.9,2.4,6.4,2.5c0.8,0,1.6,0,2.2-0.1
			c0.8,0,1.6,0,2.6-0.3C504.8,410.2,504.8,410.1,504.9,410.1z M724.6,369.6c-5.5,0.2-9.9,0.2-12.7-0.3c-7.3-1.4-14.4-5-20.7-8.1
			c-3-1.5-8.5-5.4-13.7-6.9c-2.7-0.7-5.2-0.3-6.4,0.1c-0.2,0.1-0.5,0.2-0.8,0.3c-1.9,0.7-5.2,2-7.2,2.8c-0.1,0-0.1,0.1-0.2,0.1
			c-1.3,0.6-2.4,1-2.5,0.9c-0.6,0.2-1.3,0.4-1.9,0.6c-7.1,2.1-18.3,2.4-25.5,1.3c-9.6-1.5-19-8.1-23.1-13.8l6,8.4
			c-3.1,1.5-6,2.4-8.1,3.9c-1.9,1.3-3.8,3-5.7,4.7c-6.4,5.5-11.3,8.6-15.9,9.8c-7.7,2-9.1,2.5-13,1.7c0,0,3.8-7.6,3.5-9.1
			c-1.4,4-4.6,9.5-10,9.5c-0.7,0-3.4,0.5-2.7-0.9c-3.6,5.7-9.9,5.2-14.6,7.7c-3.7,1.9-6.5,3.7-9.1,6.9c-1.5,1.9-2.7,2.6-4.8,3.6
			c-3,1.4-6.1,3.8-8.4,6.1c-1.5,1.5-3.1,2.9-4.5,4.5c-0.1,0.1-0.1,0.1-0.2,0.2c-0.1,0.1-0.3,0.3-0.4,0.5c0.9-0.3,1.9-0.4,2.7-1.1
			c-0.5,0.7-1.2,1.5-2.1,2c0.9,0.4,2,0.2,2.9,0c-0.7,0.7-1.6,1.3-2.4,1.9c0.4,0.1,0.8,0.3,1.1,0.3c-0.8,1.8-3.4,3.1-5.7,4.4
			c-0.1,0.5-0.2,1-0.4,1.5c-0.2,0.8-0.7,1.3-1.6,1.8c0,0-1,0.6-1.1,0.6c-1,0.4-1.8,0.5-2.6,0.6c-0.6,0.1-1.4,0.2-2.2,0.3
			c-1.5,0.1-6.4-0.9-7.4-2.3c-0.2-0.1,0,0-0.2-0.1c2.7-3,6.3-7,10.2-8.9c1.2-1.8,2.6-3.6,4.1-5c4.2-4,9.6-7.5,13.8-11.6
			c0.3-0.3,0.2-0.1,0.3-0.3c-0.1-0.1,0.7-1.6,2.3-3.6c1.3-1.7,2.7-2.3,4.4-3.3c3.6-2.2,5.8-5.4,8.4-8.6c1.4-1.7,2.7-3.6,4.2-5.3
			c0.3-0.4,0.7-0.7,1-1c1.4-1.4,4.4-4.6,7.1-6.1c-3.5,1.3-7.4,4.7-9.9,8c-3.8-1-5.1-9.7-4.3-12.4c-2.7,0.4-5.7-5.9-10.3-6
			c-1.7,0-7.5-1.7-9.2,3c-0.8-1.1,0,0-1.4-0.5c1.8,1.7,1.1,2.2,1.6,4c-0.2,4.5-3.4,6.1-4.7,8.5c-1.3,2.4-0.7,6.6-1.9,9
			c-0.8,1.6-1.2,1-1.6,3.9c-0.3,2.2-0.2,3.1-1.6,3.5c-1.7,0.5-1-1-2.2-2.5c-0.5,2-0.8,3.5-1.8,3.4c-1.8,0.8-3.9,1.3-4.2-0.4
			c-0.2-1.2-1.3-4.5-1.3-6.1c1.4-1.2,4.2,0.7,5.8,1.3c-0.3-0.3-0.8-0.6-1.4-1l1.2,0.4c0.2,1.2,1.6,1.9,1.9,0.6
			c0.1-0.2,0-0.5-0.1-0.7l-0.3-0.5c-0.4-0.6-1.4-0.4-1.5,0.3c-0.1,0.5-0.1,0.5,0,0c-1.6-1.1-4.4-2.6-5.5-2c0-1.4-0.1-5.1-0.4-5.8
			c-0.8-1.9-1.9-4.1-2-7.1c0-1,0-0.9-0.1-1.8c-0.5-0.6-1-1.4-1.5-2.1c-0.4,1.1-0.5,2.3-0.4,3c-1-0.8-1.8-2.9-1.9-4.7
			c-0.3-1.1-0.1-2.9,0.3-3.8c-0.8,0.9-1.3,1-1.8,2.1c0.1-3.3,0.6-4,2.5-6.5c-0.1-0.6,0.1-1.6,0.4-2.7c-0.6-3.2-0.3-6.9,0.3-9.4
			c-0.2,1.3,0.4,2.8,1,3.8c0.5-1.6-0.3-3.5,0.7-4.9c-0.1-1.5-0.1-3.1,0.3-4.5c-0.1,1.1,0.3,2.3,1,2.9c0-2.3-0.4-6.6,1.2-8.3
			c0.2,0.5,0.4,1.2,0.6,1.7c-0.5-4.4,2.5-8.9,5.4-11.9c2.7-2.9,5.5-5.7,8.7-8.9c-1.4,1.9-1.9,3.9-2,6c0.1-0.2,0.2-0.4,0.3-0.5
			c1.1-2.2,1.9-3.5,3.8-5.1c1.8-1.5,6.3-3.6,5.5-2.9c-2.6,1.6-2.2,3.1-2.8,5.3c1.2-1.7,3.2-2.6,5.1-2.8c-1.3,1.4-1.9,3.6-2.8,5
			c0.6-0.2,1.1-0.5,1.6-0.8c0.8-1.1,1.7-2.1,3-3c-0.5,0.6-1,1.3-1.4,2c1.6-1.4,2.2-2.2,3.8-3.1c2-1.1,3.2-1.3,3.8-1.7l-2,2.3
			c0,0.1,1.1-1.5-0.1,0.2c-0.3,1.3-0.7,2.5-1,3.8c0.6-0.9,1.4-1.6,2.3-2c-0.4,1.2-1.5,2.4-1.7,3.6c0.2-0.2,0.5-0.4,0.7-0.6
			c1.3-2.2,4.7-4.3,5.6-4.7c2.1-0.9,4.9-2.2,7.2-2.5c-0.5,0.5-1.1,1.1-1.7,1.8c0.1,0,0.1,0,0.2,0c-0.1,0-0.2,0.1-0.2,0.1
			c-1.1,1.2-2.3,2.6-3.2,4.1c2.7-2.4,8.8-3.2,11.4-1.9c-1.1,0.7-2.4,2.2-2.7,3.6c2.2-0.2,5.2-1.5,6.3-2.4c-0.8,0.7-1.4,1.6-1.2,2.7
			c1.4,0.4,2.7-0.8,3.9-1.4c-0.8,0.9-1.7,1.9-1.3,2.9c0.9-0.2,1.8-0.6,2.6-0.8c-0.3,0.4-0.4,1.2-0.7,1.6c1.3,0.5,3.2-0.1,4.6-0.5
			c-1.4,1.9-2.4,4.2-3.1,6.5c1.8-1.6,4.1-2.6,6.7-2.3c2.6-1.5,5.5-3.5,6.8-6c0.1-0.2,0.3-0.1,0.1-0.2c-1.3-0.6-1.1-2.9-0.5-3.4
			c1.2-0.8,2.6-1.2,4.3-3.5l0.8,0.4c1.8-1.3,6.2-5.2,8.2-6c1-0.4,1.5-0.6,2.3-0.8c0,0,1.2-0.5,1.5-1.7c0.3-1.6,2.2-4.5,3.4-5.8
			c2.2-2.1,2.6-2.8,2.6-2.8s0.5-2.7,5-3.2c-0.7,0.9-1.1,1.7-1.4,2.7c1.2-1.7,1.6-2.5,2.5-3c1.7-0.4,4.4,0.2,5.4,0.8
			c0.8,0.2,1.2,0.5,1.8,0.5l0.7-0.1l0.1,0.1c-0.1-2.2-1.7-6.1-1.5-7.4c-0.4,1.3,0.2,4.5,0.3,4.8c-0.3,0-1.1-0.4-1.5-0.4
			c-1.7-0.3-6.5-0.5-7.5-2.3c-0.9-1.7,1.6-4.9,6.8-6c4.7-1,6.9-0.2,8.7-0.5c0.1,0,2.2,0,2.3,0c-0.1,0,0.1,0,0,0
			c-0.8-0.6-5.9-0.4-8.6-0.2c0,0,1.9-5.2,3-5c0.1-0.1,0.2-0.1,0.4-0.1c3.6,0.2,0.3,1.3,0.9,1.3c1.3,0.2,2.2-1.3,3.5-1.1
			c3.3,0.4,3.3,2.4,3.7,4.4c1,0.2,5.9,1.3,6.3,1.7c3.7,2,3.9,5.3-6.8,8.5c0.2-0.4,1.4-5.6-0.7-0.2c-0.8,2.1-1.8,2.9-1.7,3.9
			c0,0-0.3,0,0.5,0.4c-0.5,0.2-1,0.3-1.5,0.4c0.7,0,1.4,0,2,0c0,0,0,0,0.1,0.1c1.6-0.5,3.9,0.2,9.9-1c0.8-0.2,5.5,0.4,6.6-0.4
			c0.1-0.2-2.1-0.2-2.1-0.2s0.5-2.5,3.3-5.9c1.6-1.9,4.5-5.3,6.2-7.6c0.2-0.3-0.5-0.4-0.3-0.7c0.9-1.2,1.7-1.5,1-4
			c-0.2-0.7-1-1.6-1.2-2.4c-0.4-0.7,0-1.5,1.3-2.2c0.9-0.3,0.8-0.6,1.2-0.1c0.5,0.6-0.8,1.2-0.7,1.6c0.2,0.2,0.4,0.1,0.6,0.2
			c0.3-0.3,0.7-1.2,1-1.2c0,0,0.1,0.1,0.1,0.2c-0.1,0.6-0.5,1.7-0.4,2.1c0.2,0.6,0.7,0.4,1.1,0.7c0.2,0.2,0.1,0.5,0.4,0.7
			c0.3,0.2,0.7,0.1,0.9,0.3c0.2,0.1,0.2,0.4,0.3,0.5c-0.3,0.3-0.9,1.1-1.1,1.4c-0.2,0.4-0.5,1.2-0.5,1.7c0.3-1.2,0.7-1.5,1.5-2.4
			c0.2-0.2,0.6-0.3,0.9-0.4c0.1,0,0.2,0,0.3-0.1h-0.1l-0.4-0.1c-0.2-0.1-0.3-0.2-0.4-0.3c-0.2-0.2-0.1-0.4-0.2-0.5
			c-0.3-0.3-0.9-0.1-1.3-0.6c-0.2-0.2-0.1-0.4-0.2-0.6c-0.2-0.4-0.1-0.1-0.4-0.2s-0.4-0.1-0.5-0.3c-0.1-0.1,0-0.8,0.1-1.3
			c0.1-0.5,0.3-1.3,0.4-1.6c0.3-0.8,1.8-0.8,1.7,0.2c0,0.1,0.1,0.2,0.2,0.2c1.1-0.5,2.2,0.6,3.6,2.4c0.6,1.1-0.8,4.1-2.3,5.7
			c-1.5,1.5-1.6,3.4-2,3.8l-0.9-0.2c-1.2,2.1-1.8,5.6-2.4,7c-1.9,4.8-1.5,4-3.1,7.4c-0.3,0.5-1,1.9-1.5,2.4
			c-3.1,3.1-10.1,4.3-10.3,4.4c-0.5,0.1-4.7,0.4-5.1,0.5c-2.2,0.6-4.8,1.9-6.2,4.1c-0.4,0.4-1.7,1.9-2,2.2c-1.4,1.3-4.2,3.4-5.4,5.2
			c-1,1.3-2.4,4.9-1.3,6.3c-0.3,0.7-0.1,0.3-0.1,0.3c-0.5,0.4-2.9,0.7-4.7,0.7c-1,1.5-3.2,3.8-4.7,5c-2.7,1.6-3.2,1.6-4.6,2.4
			c-1.4,0.6-2.8,1.2-4.2,1.7c-1.7,0.6-6.5,1.8-9.5,3.2c-0.2,0.1-0.4-0.2-0.3-0.4c1.2-1.3,3.2-2.6,4.5-3c0.1,0,0.2-0.1,0.3-0.1
			c0.2,0,0.4-0.1,0.5-0.1c-0.2,0-0.4,0.1-0.5,0.1c8.4-3.6,8.3-3.5,11.5-5.8l-17.7,8.2l-0.2-1.2c0,0.1-0.1,0.7-0.1,0.8l-1.1-1.9
			c-0.1-0.1,0.8,1.7,0.6,1.8c0,0.1-0.1-0.2-0.1-0.1c-0.4-0.3-1-1.4-1.3-1.7c0.3,1.1,1.4,2.6,2,3.6v0.1c0,0.1,0.1,0.2,0.1,0.3
			c0,0,0,0,0,0.1c0,0.2,0,0.4,0.1,0.6l0.2,0.6l-0.2-0.6c0.1,0.1,0.1,0.3,0.3,0.5c0.1,0.4,0.2,0.8,0.4,1.3l0.1-0.5
			c0.3,0.3,0.8,1.1,1.1,1.4l0.9,1.7c0-0.2-0.4-0.9-0.4-1.1l1.2,2c-0.1-0.4-1.2-2.4-1.6-2.9c-0.1-0.3,0.1,0.2,0,0
			c-0.1-0.3-0.3-0.6-0.5-1l-0.4-0.8c0.7,1,1.5,2,1.9,2.9c-0.1-0.4-0.3-0.7-0.5-1.1l-1.5-2.5c0-0.1,0-0.1,0.1-0.2c0.1,0-0.1,0,0,0
			c0.5,0.7,2,2.9,2.3,3.4l-1.7-3.6c0.2-0.1,0.2,0,0.2,0c1.4-0.4,4.1-1.5,5.2-1.8c1.9-0.5,8.5-2.9,9.5-3.4c5.6-2.9,6-3.8,7.2-4.8
			c0.3-0.3,1.4-1.8,2-1.8c0.9,0,1.3-0.1,2.2,0c0.8,0.1-0.7,5.7-5.9,9.6c4.2-1.8,6.6-6.5,6.6-6.5c7.4-3.6,22.5-2,28.1,4.6
			c-0.3-0.9-4.7-5.4-4.7-5.4c2.3-3,6.1-9.2,13.3-7.5c1.5-0.8,2.6-1.7,4.4-2c1.3-0.2,2.7-0.2,4,0.1c3,0.6,3.5,1.1,4,1.6
			c-4.6-0.9-5.9,1.7-5.9,3.7c2.2-1.1,4.5-3,7.7-2.6c2.3,0.3,3.8,1.4,3.7,3.6c2.5,0.9,5,2.3,6.7,4.2c1.1,1.2,2.4,2.5,4.1,2.2
			c1.7-0.3,3.1-1.5,2.1-3c1.9,2.7-0.7,4.7-3.9,5.4c0,0.1,0,0.1,0,0.2c1.8,0.1,5.2,0,6-0.9c0.8-0.7,1.7-2.4,1.6-3.6
			c0.6,1.3,1.2,2.6,1.1,4c-0.1,1.2-0.6,2.2-1.4,2.9c0.3-0.1,0.5-0.1,0.6-0.2c0.8-0.4,1.6-1,2.3-1.5c1-0.8,2.1-1.7,2.7-2.9
			c1.2-2.2,1.5-5.4-0.1-7.5c1.7,1.2,2.7,2.5,3.1,4.7c0.7,4.1-1.3,6.8-4.3,8.8c-1.5,2.6-3.5,4.6-6.4,6c-2.3,1.1-5.2,1-7.7,0.3
			c-0.3,0.3-0.6,0.5-0.9,0.6c0.6,0.2,1.1,0.9,2.5-0.1c-1.3,4.5-8.5,4.3-11.2,1.3c-0.1,0-0.2,0-0.3,0c-0.8,0-2.2,0.6-3,0.8
			c-2.2,0.3-4.9-0.2-7-0.8c-1.6-0.4-3-1.1-4.4-1.8c0.3,0.6,0.6,1.1,0.9,1.6c1.4,2.1,2.2,3.9,4.6,5.9c2.6,2.6,4.3,3.1,5.6,3.6
			c0.1,0,0.1,0.2,0,0.2c-1.2-0.1-1.8,0.1-3.1,0.1c-0.7,0-2.2-0.4-3-0.5c0.9,1.5,6,1,7.6,0.9c4.1-0.2,9.9-1.7,13.9-2.3h-0.3
			c2.1-1.3,3.7-0.1,5.5,1.7c0.1,0.1,2.6,2.3,2.7,2.3c3.5,3,3.6,1.7,4.9,3c1.7,1.6,6.2,3.3,8.2,4.6c0.3,0.2,0.5,0.4,0.9,0.5
			c0.6-0.4,1.1-1,1.4-1.5c-0.2,0.7-0.3,1.4-0.3,2.1c0.1,0.1,0.1,0.1,0.2,0.1c1.2-0.3,2-1.3,3.1-2.3c0,0.8-0.3,1.7-0.3,2.4
			c1-0.4,1.7-1.3,2.4-2.2c-0.2,0.4-0.2,0.9-0.4,1.3c1.6,0.6,4.3-2.6,4.7-4.1c0.9,2.5,0.4,4.6-0.9,6c2.9-1.3,4.4-3.9,6.7-2.7
			C719.9,358.9,724.9,365.5,724.6,369.6C724.5,369.6,724.9,370.9,724.6,369.6z M586.9,348.9c-0.2-0.2-0.8-0.5-1.3-0.8l-0.6-0.6
			c0,0-0.4-0.4,0.6,0.8l4,3.7C589.3,350.7,588,349.7,586.9,348.9z M588.7,350.2c-0.8-1.5-3.3-4.3-4.4-5L588.7,350.2z M589.3,349.5
			c-0.7-1.6-2.4-2.6-3.5-3.6l-1.4-1.3c0.2,0.2,1.1,1.2,1.3,1.4L589.3,349.5z M585.8,343l-2.2-3c0.2,0.6,1.5,2.6,2.1,3.2l3.5,4.3
			C589.5,346.1,587.3,344.5,585.8,343z M585.9,341.3c-0.1-0.1-0.5-0.4-0.8-0.8l-0.9-1.1l-1.4-1.8c-0.2-0.3,0,0.2,0.4,0.9
			c0.7,1.5,1.9,2.7,3.1,3.9l1.6,2.3c0.3,0.4,1.1,1.6,1.5,1.8c-0.8-1.8-2.4-3.3-3.1-4.1l-1.6-2.2c0.1,0.1,0.2,0.2,0.3,0.3l3.5,4.4
			c0.2,0.3,0.4,0.5,0.6,0.8C588.7,343.9,587.1,342.5,585.9,341.3z M588.9,343.7c-0.3-1.2-1.5-2.4-2.7-3.6l-2.7-3.7
			c0,0.2,0.7,1.4,0.9,1.8l-1-1.4c0,0.1,0.1,0.2,0.2,0.3c0.3,1.1,1.8,2.4,2.9,3.6L588.9,343.7z M582.7,328.3c0.1,0.7,0.5,1.4,1,2.1
			c0-0.1,0-0.2,0-0.3c0.2,0.3,0.4,0.7,0.6,1l0.4,0.9c-0.2-0.4-0.6-0.8-0.9-1.2c0.5,1.1,1,2.3,2.2,3.4c0,0,2.1,2.7,2.5,3
			c-0.2-0.8-1.4-2.7-2.1-3.4l-1.8-2.2c0.5,0.5,1,1.1,1.4,1.6l1.2,1.5c-0.3-0.6-1.2-2.1-1.7-2.7L582.7,328.3z M582,329.8
			c-0.2,1.9,2,3.9,3.1,5.4c0.5,0.7,2.5,3.2,3.1,3.8l-3.9-5.6c1.3,1.6,2.9,3.5,3.6,4.5l0.2,0.3c-0.1-0.1-0.1-0.2-0.2-0.3l-5.1-7.4
			c-0.1,0.1-0.1,0.4,0.1,0.8L582,329.8z M581.2,330.5c0,2.3,3.5,5.1,4.9,6.8c0.1,0.1,0.5,0.6,0.6,0.8l2.5,3.4
			c-0.1-0.1-0.8-1.5-1.3-2.2c-0.4-0.5-0.4-0.5-0.8-1l-1.2-1.5L581.2,330.5z M573.6,316.7c2.6-0.7,5.8-3.2,6-5.2c0-0.1,0,0,0.1-0.1
			c-0.3,0.1-0.5-0.2-0.9-0.2C578.4,312.4,575.9,315.1,573.6,316.7z M579.3,358.3l-2,1.4c0.1-0.1,0.2-0.3,0.3-0.5
			c0.3-0.7,0.6-1.3,0.8-2.1c0-0.1,0-0.1,0-0.2c0.8-0.3,1.6-0.4,2.4-0.2c-1-0.5-1.8-1.4-2.4-2.4c-0.1-1.6-6-2.3-5.1-5.1
			c0.5-1.6,1.6-8.5,0.9-12.5c-0.1-0.4-0.6-5.6-0.7-6c-0.6-2.5,2.9,10.6,2.9,9.9c0.1-6.9-3.9-19-3-20.6c1-1.8,4.7-3.8,6.5-4.8
			c5.2-3.1,11-5.8,14.3-7.2c0,0,4.3-2.1-1.5,0.1c-0.2,0.1-0.2-0.3-0.2-0.5c-0.2-0.4-0.4-0.8-0.5-0.9c-0.5-0.7,1.7-1.2,5-3.6
			c0.3-0.4,1.7-5.7,4.6-11.1c-1.4,2.3-3.9,7.8-4.5,8.7c-3.1,4.3-8.4,4.6-12,6c-0.3,0.1,0.1,0.9,0.1,0.9c-0.3,0.1-1.7,0.4-1.9,0.5
			c-0.9,0.8,0,2.7-2.5,3.3c-1.3,4-5.9,5.8-7.9,7c-0.1,1-1.6,2.5-1.3,4.3c0,0.2,0.1,0.5,0.1,0.7c0.1-0.2-0.2,10.6-0.1,10.5
			c0.1,3.6,0.5-6.4,0.7-4.4c0.2,2.3,0.6,3.4,0.9,5.8c1.2,9.6-1.7,16.3-1.7,16.3c2.3,0.7,6.4,3.2,4.8,7.2c-0.3,0.8-1.7,2.6-3.2,3.4
			c-0.7,0.3-1.4,0.5-2.1,0.5C572.6,366.6,578.6,359,579.3,358.3z M584,360.1c-2.7,0.2-4.7,0.7-7,2.3L584,360.1z M589.4,353.8
			c-1.5-1.1-3.1-3.5-5-3.1L589.4,353.8z M681.7,384.8c-1.3-1.5-2.8-0.9-4.8-0.6c1.4-1,1-2.4,1.6-4c-0.4,0.9-1.1,1.5-2,1.6
			c0.3-0.3,0.5-1,0.8-1.3c-1.5,1.3-3,0.6-4.9,1.2c0.5-0.5,0.9-1.3,1-2c-0.9,0.8-2.2,1.4-3.4,1.5c0.5-0.6,1-1.3,1.4-2
			c-1.2,1.4-2.5,1.1-3.7,0.5c-0.6-0.7-1.2-1.4-1.6-2c-1.4-1.9-7.4-8.3-8.7-10.1c-0.9-1.2-1.6-2.1-2.4-2.9c0.1,0-0.4-1.3-0.3-1.4
			c-0.4-2-2.2-1.4-2.1-1.4c-0.6,0.2-1.7,0.3-2.2,0.4c-6.4,1.1-11,0.6-17.1-0.5c-4.9-0.9-11.6-3.1-15.7-5.9c-1.1,0.6-1.4,0.5-3.2,1.4
			c-0.4,0.2-0.9,0.5-1.3,0.6c-2.2,1.2-4.5,1.7-6.2,2.9c2.3,1.9,6.2,4.7,8.7,5.8c5.6,2.4,12.5,4,18.9,3.4c0.5,0,1.1-0.1,1.7-0.2
			c0.1,0,1-0.1,2.3-0.4c2-0.4,6.1-1.2,7.9-1.5c4.1,0.2,10.6,8.9,12.8,11.2c4.8,5.2,9.5,11.2,15.6,15.4c2.3,1.6,6.7,3.4,11.7,5.5
			c0,0,0,1.2,0.5,0C688.3,396.8,685.7,389.3,681.7,384.8z M503.8,329.4c0.1-0.2,0.1-0.5,0.2-0.7
			C503.9,328.9,503.8,329.2,503.8,329.4z M501.8,335c0-0.1,0-0.2,0.1-0.3C501.8,334.8,501.8,334.9,501.8,335z M661.3,288.7
			c-0.1-1.1-0.2-2.1-0.4-3.2c-0.3-1-0.5-1.9-0.9-2.8c-1.2-3.4-2.7-6-3.8-7.7c-0.5-0.9-1-1.5-1.3-1.9c-0.1-0.2-0.8-1-0.9-1.1
			l-0.1,0.1c0.1,0.1,0.7,0.9,0.8,1.1c0.3,0.5,0.7,1.1,1.2,2c0.9,1.8,2.2,4.4,3.2,7.9c0.2,0.9,0.5,1.8,0.7,2.7c0.2,0.9,0.2,1.9,0.2,3
			c0,2.1-0.3,4.3-1,6.5c-0.4,1.3-1.4,2.8-2.3,3.8c0.5,0.2,1.4,0.5,1.8,0.5c0,0,0.3-0.3,0.3-0.4c0.8-1.1,1.3-2.3,1.7-3.5
			C661.2,293.3,661.3,290.9,661.3,288.7z M653.4,300.7c-0.5,0.1-1.3,0.1-1.9,0c-1.2-0.2-2.3-0.8-3.3-1.5c-1.7-1.2-2.9-3-3.8-4.9
			c-0.2-0.5-0.5-1.1-0.7-1.6c-0.3,0.3-0.6,0.5-0.9,0.8c-0.2,0.1-0.4,0.2-0.5,0.3c0.2,0.4,0.3,0.8,0.5,1.3c0.9,2.1,2.3,4.1,4.3,5.6
			c1.2,0.9,2.6,1.6,4.1,1.8c0.7,0.1,1.5,0.2,2.3,0.1c0.6-0.1,1.6-0.4,2.1-0.7C655.3,301.7,653.8,301,653.4,300.7z M641.7,278.1
			c0-0.2,0-0.4,0-0.5c0.1-1.6,0.4-3.2,0.7-4.5c0.4-1.3,0.9-2.6,1.3-3.6c0.4-0.9,0.8-1.6,1.1-2.2v-0.1c0.2-0.5,0.4-0.8,0.4-0.8
			s-0.1,0.2-0.2,0.5c0,0,0,0,0-0.1c0.2-0.3,0.4-0.6,0.6-0.8v-0.1v-0.1c-0.3,0.2-0.5,0.5-0.8,0.8c-0.5,0.7-1.1,1.6-1.7,2.6
			c-0.6,1-1.1,2.2-1.6,3.6c-0.4,1.4-0.7,2.9-1,4.6c-0.1,0.8-0.2,1.6-0.2,2.4C640.7,279.3,641.2,278.7,641.7,278.1z M643.8,275.9
			c0-2.6,0.2-4.8,0.5-6.4c0.2-1,0.5-1.8,0.6-2.3c0-0.1,0.1-0.2,0.1-0.3c-0.1,0.1-0.1,0.2-0.2,0.3c-0.2,0.5-0.5,1.2-0.8,2.2
			c-0.5,1.7-0.9,4.2-1,7.2C643.3,276.5,643.5,276.2,643.8,275.9z M668.6,291.7c-0.4-2.6-1.4-4.9-2.4-6.8c-1.1-2-2.3-3.7-3.4-5.2
			c-2.3-3-4.6-5.1-6.3-6.4c-0.4-0.3-0.8-0.6-1.1-0.8c-0.1,0-0.8-0.6-0.9-0.6c0,0,0,0.1-0.1,0.1c0.1,0,0.8,0.6,0.9,0.7
			c0.3,0.3,0.7,0.6,1,0.9c1.5,1.4,3.6,3.6,5.8,6.7c1.1,1.5,2.1,3.3,3,5.2c0.9,2,1.7,4.2,2,6.5c0.2,1.2,0.2,2.4,0,3.6
			c-0.2,1.2-0.7,2.3-1.4,3.2c-0.8,0.9-1.7,1.6-2.9,1.8c-1.2,0.2-2.5,0.1-3.8-0.2c-0.2-0.1-0.5-0.1-0.7-0.2c-0.6-0.2-1.2-0.4-1.8-0.6
			c-1.6-0.7-3.2-1.7-4.5-2.8c-2-1.7-3.5-3.7-4.7-5.8c-0.3-0.6-0.6-1.2-0.8-1.7c-0.3,0.5-0.6,1.1-0.9,1.6c0.1,0.3,0.3,0.6,0.4,0.9
			c1.1,2.3,2.8,4.6,4.9,6.5c1.1,1,2.3,1.8,3.6,2.5c0.7,0.4,1.4,0.7,2.1,0.9c0.7,0.2,1.3,0.4,2,0.6c1.5,0.3,3,0.5,4.6,0.2
			c1.6-0.3,3-1.3,3.9-2.5c0.9-1.2,1.5-2.6,1.7-4C668.9,294.3,668.8,293,668.6,291.7z M644.9,267.2
			C644.9,267.2,644.8,267.2,644.9,267.2c0,0,0.1-0.2,0.2-0.3c0.1-0.3,0.2-0.5,0.2-0.5S645.1,266.7,644.9,267.2z M699.9,265.8
			c-0.6-2.1-1.6-4.2-3-6c-2.8-3.7-6.8-6.6-11.4-8.6c-4.5-2.1-9.6-3.4-14.9-4.2c-5.3-0.8-10.9-0.8-16.6-0.4
			c-5.7,0.4-11.5,1.5-17.3,2.8c-3,0.7-5.9,1.4-8.9,2.2c-0.2,0-0.3,0.1-0.5,0.1c-8.7,2.4-17.5,5.2-26.6,8.2c-6.2,2-12.5,4-18.9,5.8
			c-6.4,1.8-13,3.4-19.8,4.4c-6.8,0.9-13.5,1.5-20.2,1.2c-6.6-0.2-13.2-1.3-18.9-3.9c-2.8-1.3-5.5-3.1-7.4-5.4l-0.7-0.9l-0.5-0.9
			c-0.3-0.7-0.6-1.4-0.7-2.1c-0.3-1.4-0.4-2.9,0-4.2c0.4-1.4,1.1-2.7,2-3.8c0.9-1.1,2-2.1,3.2-3c2.4-1.7,5-3.1,7.7-4.3
			c5.4-2.3,11.1-3.6,16.6-4.5c2.8-0.4,5.5-0.7,8.2-0.8c1.3,0,2.7,0,4.1,0c0.7,0,1.3,0,2,0c0.7,0,1.3,0,2,0
			c10.6,0.2,20.4,1.2,29.3,2.7c8.9,1.5,16.8,3.5,23.6,5.8c0.9,0.3,1.7,0.5,2.5,0.8s1.6,0.6,2.4,0.9s1.6,0.6,2.3,0.8
			c0.7,0.3,1.5,0.6,2.2,0.9c1.4,0.6,2.8,1.1,4.1,1.7c0.5,0.2,0.2,0.1,0.7,0.3c0.3-0.1,0.3-0.1,0.5-0.2c-0.6-0.3-0.4-0.2-1-0.5
			c-1.3-0.6-2.6-1.1-4.1-1.7c-0.7-0.3-1.4-0.6-2.2-0.9c-0.8-0.3-1.5-0.6-2.3-0.9c-0.8-0.3-1.6-0.6-2.4-0.9s-1.6-0.6-2.5-0.9
			c-6.8-2.3-14.7-4.5-23.6-6.1c-8.9-1.6-18.8-2.7-29.4-3.1c-0.7,0-1.3,0-2-0.1c-0.7,0-1.3,0-2,0c-1.4,0-2.7-0.1-4.1,0
			c-2.8,0-5.6,0.3-8.4,0.7c-5.6,0.8-11.4,2.2-17,4.5c-2.8,1.1-5.6,2.6-8.1,4.4c-1.3,0.9-2.5,2-3.5,3.3c-1.1,1.2-1.9,2.7-2.4,4.4
			c-0.5,1.6-0.5,3.4-0.1,5.1c0.2,0.8,0.5,1.6,0.8,2.4l0.6,1.1l0.7,1c2.1,2.6,5,4.5,8,5.9c6.1,2.8,12.8,3.9,19.6,4.2
			c6.8,0.3,13.6-0.3,20.5-1.2c6.9-1,13.5-2.6,20-4.5c6.5-1.8,12.8-3.9,18.9-5.9c9.7-3.2,19.1-6.3,28.3-8.8c0.1,0,0.3-0.1,0.4-0.1
			c2.4-0.6,4.7-1.2,7.1-1.8c5.8-1.3,11.5-2.4,17.1-2.9c5.6-0.5,11.1-0.5,16.3,0.2c5.2,0.7,10.2,2,14.6,3.9c4.4,1.9,8.4,4.7,11.1,8.2
			c1.3,1.7,2.3,3.7,2.9,5.7c0.6,2,0.6,4.1,0,5.9c-0.3,0.9-0.9,1.7-1.4,2.5c-0.6,0.7-1.3,1.4-2.1,1.9c-1.5,1-3.3,1.7-5,2.1
			c-1.7,0.4-3.4,0.5-5.1,0.5s-3.2-0.2-4.7-0.4c-3-0.5-5.7-1.3-8-2.3c-2.3-0.9-4.4-1.9-6-2.9c-0.4-0.2-0.8-0.5-1.2-0.7
			c-0.4-0.2-0.7-0.5-1.1-0.7c-0.7-0.4-1.3-0.8-1.9-1.2c-1.1-0.7-1.9-1.3-2.5-1.7c-0.5-0.4-0.8-0.6-0.8-0.6s0.3,0.2,0.8,0.6
			s1.3,1,2.4,1.8c0.5,0.4,1.2,0.8,1.8,1.2c0.3,0.2,0.7,0.4,1.1,0.7c0.4,0.2,0.8,0.5,1.2,0.7c1.7,1,3.7,2,6,3s5,1.9,8.1,2.4
			c1.5,0.3,3.1,0.5,4.8,0.5s3.4-0.1,5.2-0.4c1.8-0.3,3.6-1,5.2-2.1c0.8-0.5,1.6-1.2,2.3-1.9c0.6-0.8,1.2-1.7,1.6-2.7
			C700.5,270.2,700.5,267.9,699.9,265.8z M639.9,258c-1.1-0.7-2.6-1.5-4.3-2.4c-0.9-0.5-1.8-0.9-2.8-1.5c-0.5-0.3-1-0.5-1.5-0.8
			c-0.1-0.1-0.5-0.2-0.6-0.3c-0.1,0-0.2,0-0.4,0.1c0.2,0.1,0.7,0.3,0.9,0.4c0.5,0.2,1,0.5,1.5,0.8c1,0.5,1.9,1,2.8,1.4
			C637.3,256.6,638.7,257.4,639.9,258c2.3,1.4,3.5,2.1,3.5,2.1S642.2,259.4,639.9,258z" />
			<path class="st9" d="M631.6,323.7L631.6,323.7l-0.1-0.6h0.2c0.1,0,0.1,0,0.1,0v0.1v0.1c0,0,0,0-0.1,0.1c0,0,0,0,0,0.1v0.1h-0.2
			v-0.1v-0.1L631.6,323.7z M631.6,323.3C631.6,323.3,631.7,323.3,631.6,323.3c0.1,0,0.1-0.1,0.1-0.1s0,0,0-0.1c0,0,0,0-0.1,0V323.3z
			 M631,323.7v-0.4V323.7h0.3l0.1-0.6h-0.1v0.4l-0.1-0.4H631l-0.1,0.4v-0.4h-0.1L631,323.7L631,323.7z M631.9,323.6L631.9,323.6
			c0.2,0,0.2,0,0.2,0s0.1-0.1,0.1-0.2c0,0,0-0.1-0.1-0.1c0,0,0,0-0.1-0.1c0,0-0.1,0-0.1-0.1c0,0,0,0,0,0.1h0.1c0-0.1,0-0.1-0.1-0.2
			h-0.1h-0.1v0.1c0,0.1,0,0.1,0.1,0.1c0,0,0,0,0.1,0.1c0,0,0.1,0,0.1,0.1c0,0,0,0.1-0.1,0.1C632,323.6,632,323.6,631.9,323.6
			c0.1-0.1,0.1-0.1,0.1-0.1h-0.1V323.6z M631.9,327.6h-0.1v0.3c0.1,0,0.2,0,0.3-0.1c0.1-0.1,0.1-0.2,0.1-0.3s0-0.2-0.1-0.3
			c-0.1-0.1-0.1-0.1-0.3-0.1c-0.1,0-0.2,0-0.3,0.1c0,0-0.1,0.1-0.2,0.2c-0.1,0.1-0.1,0.1-0.2,0.1c-0.1,0-0.1,0-0.1-0.1v-0.1h0.1h0.1
			V327h-0.1c-0.1,0-0.2,0-0.2,0.1s-0.1,0.2-0.1,0.3s0,0.2,0.1,0.3c0.1,0.1,0.2,0.1,0.3,0.1h0.1c0.1,0,0.2,0,0.3-0.1
			c0,0,0.1-0.1,0.1-0.2s0.1-0.1,0.2-0.1h0.1C631.9,327.4,632,327.5,631.9,327.6C632,327.5,631.9,327.5,631.9,327.6z M630.9,327.1
			h1.3v-0.4l-0.8-0.2l0.8-0.2v-0.4h-1.3v0.3h1l-1,0.2v0.2l1,0.2h-1V327.1z M630.9,325.2h1.1v0.3h0.3v-0.8H632v0.2h-1.1V325.2z
			 M630.9,325.8h1.3v-0.3h-1.3V325.8z M632.2,324.6v-0.7h-1.3v0.3h0.6v0.4h0.3v-0.4h0.2v0.4H632.2z M633.1,324.8v1.2
			c1.6,0.6,2.7,2.2,2.7,4c0,2.4-1.9,4.3-4.3,4.3s-4.3-1.9-4.3-4.3c0-1.8,1.1-3.4,2.7-4v-1.2c-2.2,0.7-3.9,2.7-3.9,5.2
			c0,3,2.4,5.4,5.4,5.4s5.4-2.4,5.4-5.4C636.9,327.6,635.3,325.5,633.1,324.8z" />

			<linearGradient id="SVGID_00000085228281751943930100000002069915959664094336_"
				gradientUnits="userSpaceOnUse" x1="573.8" y1="340.56" x2="573.8" y2="34.9"
				gradientTransform="matrix(1 0 0 -1 0 630)">
				<stop offset="0" style="stop-color:#CD4424" />
				<stop offset="1" style="stop-color:#DA6524" />
			</linearGradient>
			<path style="fill:url(#SVGID_00000085228281751943930100000002069915959664094336_);" d="M1199.9,422.2
			c-13.3-1.1-98.9-11.9-109.2-8.2c-11.5,4.1-7.3,1.9-19.3-1.1c-6-1.5-14.5-2.6-19.9-1.1c-2.4-1.1-6-3.8-8.4-4.1
			c-4.2-1.1-13.3-1.9-16.9-3c-7.2-2.2-6.6-4.1-12.6-7.5c-6-2.6-12.7-3.8-18.7-6.4c-6.6-3.4-9-8.6-18-10.5
			c-12.7-2.3-27.9,6.3-37.6,10.1c-13.4,4.9-17.1,15.7-31.7,19.8c-6.1,1.5-13.3-0.4-19.4,2.6c-3.7,1.9-3.7,6.7-6.1,7.9
			c-2.3,1.4-4.8,1.8-7.5,1.7V415c0-1.2,2.3-1.3,2.3-1.3h2.9c3.5,0,3.4-2.1,3.4-2.1l-0.1-10.1c0,0,0.6-1.7-1.5-1.7
			c-2.1,0-1.8,1.4-1.8,1.4v9.2c0,0,0,1.9-1.6,1.9c-1.6,0-1.7-1.1-1.7-1.1l-0.5-20.5c0,0,0.2-1.4-2-1.4s-2.2,1.2-2.2,1.2l0.4,17.6
			c0,0,0.4,1.7-1.5,1.7c-1.9,0-1.8-1.7-1.8-1.7v-29.6c0,0,0-1.2-1.6-1.2c-1.6,0-1.4,1.2-1.4,1.2l0.3,31.7c0,0-0.1,2.6-1.7,2.6
			s-1.2-2.4-1.2-2.4v-13.8c0,0,0.6-2.1-1.7-2.1c-2.3,0-1.8,1.7-1.8,1.7s0.9,15.1,0.9,16.7c0,1.9,2.1,2.7,4.1,2.7
			c3.3,0,3.1,1.8,3.1,1.8l0.1,3.9c-8.5-2.7-17.5-8.6-25.2-8.6c-7.9,0-12.7,3.4-20,4.5c-6.1,1.1-13.3,0.7-18.8,1.9
			c-12.7,2.2-26.1,7.5-38.8,10.8c-20.6,5.2-31,14.4-54,15.9l-0.4,41.8c-40.5-15.1-75-29.9-85.7-32.6c-23.8-6.1-88.4-18.9-117.7-15.9
			c-29.3,3-43.7-26.4-54.6-25.9c-10.9,0.5-19.9-32-37.2-32.5c-17.4-0.5-32.6,20.1-52,28.7s-20.5,5.4-43.6-5.3
			c-52.8-24.6-75-1-94.4-3s-14.9-17.8-20.4-19.8s-20.4-14.7-21.4,4.6c-1,19.3-7.4,22.8-14.9,21.1s-1-40.9,0-60.6
			c1-19.8-18.9-10.7-22.4-10.7s-5,39.1-4,50.8s-21.3,5.1-25.3,4.6s-4.5-55.3-3.5-78.2S95.2,293,95.2,293s-39.7-4.1-57.1-3.5
			s-13.9,20.8-13.9,20.8s-1,36.5,0,55.3c1,18.8-19.2,15-19.2,15s-16.1-0.8-22-0.3c-6,0.5-7.5,21.3-7.5,21.3l-27.8,8.6l8.4,184.9
			h766.8l130.2-71.8c-8.5,0.3-18.3-0.6-28.9-2.4l372.5-0.1L1199.9,422.2z" />
			<path class="st11" d="M340,628h860V459c-22.6-1.8-218.4-34.1-236-28c-19.7,6.7-19.5,9.9-40,5" />
			<path class="st11" d="M644.9,452.6c2.8-1.6,6.6-4,10.4-6.3C651.1,448.7,646.8,451.1,644.9,452.6z" />
			<path class="st11" d="M844.1,434.3c-10.2-4.3-21.6-6.1-31.8-10.4c-11.3-5.5-15.3-14.1-30.7-17.1c-21.6-3.7-47.5,10.4-64.1,16.5
			c-22.8,8-47.2,23.7-72,30.4c-2.2,0.5-2.1,0-0.7-1.1c-1,0.6-1.9,1.1-2.6,1.4c-16.4,9.2-43.6,17.2-64.2,19.7
			c-2.3-0.7-4.5-1.4-6.3-1.9c-15.3-4-33.5-1.5-48.8-3.6c-36.7-5.5-46.2-19.8-79.8-26.2c-22.7-4.6-57.3-14.7-87.6-13.9v-14
			c0-1.8,3.5-2,3.5-2h4.5c5.4,0,5.3-3.3,5.3-3.3l-0.1-15.5c0,0,0.9-2.6-2.2-2.6s-2.7,2.1-2.7,2.1v14c0,0,0,2.9-2.5,2.9
			s-2.6-1.7-2.6-1.7l-0.8-31.4c0,0,0.3-2.1-3-2.1c-3.3,0-3.3,1.8-3.3,1.8l0.6,27c0,0,0.6,2.6-2.3,2.6s-2.7-2.6-2.7-2.6v-45.4
			c0,0-0.1-1.8-2.5-1.8c-2.4,0-2.1,1.8-2.1,1.8l0.5,48.5c0,0-0.1,4-2.5,4s-1.8-3.7-1.8-3.7l-0.1-21.2c0,0,1-3.2-2.6-3.2
			s-2.8,2.6-2.8,2.6s1.4,23.1,1.4,25.5c0,3,3.2,4.2,6.2,4.2c5.1,0,4.7,2.7,4.7,2.7l0.2,11.5c-20.4,2.7-26.5,9.1-42.4,13.3
			c-15.1,3.4-31.9,4.9-47,8.2c-15.1,4.4-13.5,6.9-31.7,9.8c-9.1,1.5-31.9,2.4-42.5,3.8c-6.1,0.5-15.1,3.9-21.2,5.4
			c-13.8-2-35-0.6-50.2,1.4c-30.3,3.9-19.6,6.8-48.7,1.4c-26-5-28.6-30-62-28.6L0,628l865.6-181.5
			C853.3,442.9,854.4,439.8,844.1,434.3z" />
			<path class="st11" d="M664.6,441c-2.5,1.2-5.8,3.2-9.3,5.3C662.5,442.2,669.7,438.5,664.6,441z" />
			<path class="st12" d="M1161.3,421.4V420c9,0,8.7-4.2,8.7-4.2v-4.7V411v-41.6c0,0-0.1-2-2.6-2s-2.2,2-2.2,2l0.5,42.8
			c0,0-0.2,4.4-2.6,4.4s-1.9-4.1-1.9-4.1l-0.5-24.4c0,0,0.3-3.2-2.4-3.1c-3.5,0.1-2.9,2.7-2.9,2.7s0.4,8.2,0.7,19.8
			c-1.8,0-4.7-0.5-4.7-3.8c0-4.7-0.2-23.8-0.2-23.8s0.2-3.3-3.1-3c-2.3,0.2-1.8,3.6-1.8,3.6l0.6,22.2c0,0-0.1,7.3,9.3,7.9
			c0.1,3.6,0.2,7.1,0.3,10.4c-16.6-1.6-33.4-2.9-50.7-3.4c-27.2-0.9-50-3-78.3-1.2c-6.7,0.3-13,0.9-19.1,1.5l-23,2.3
			c-8,0.7-16.2,1.3-25.3,1.4c-15.2,0.3-33.7-1.2-47.8-0.3c-10.9,0.6-20.7,3-31.5,3.6c-9.8,0.6-20.7-0.6-29.3,0.6
			c-12,1.2-26.1,5.7-37,8.2c-27.2,5.7-40.2,8.2-75,7.9c-32.6-0.3-43.5,1.2-72.8,3.9c-28.3,2.7-49.7,20.7-76.8,19.5
			c-29.3-0.9-59.8,20.2-89.1,19.6c-44.6-0.9-53.3-8.8-87-14.2l-3.3-0.6c-30.4-2.1-44.6-5.1-77.2-5.7c-25-0.3-46.7-2.7-72.8-3.3
			c-30.4-0.6-31.5-5.1-57.6-7.9c-22.8-2.4-66.3-1.8-90.2-2.1c-20.7,0-22.8,0.3-37,3.6c-5,1-9.5,1.9-13.6,2.7v-9.3
			c0-4,3.8-4.4,3.8-4.4h4.9c5.9,0,5.8-7.2,5.8-7.2l-0.2-34.1c0,0,1-5.8-2.5-5.8s-3,4.5-3,4.5v30.8c0,0,0,6.4-2.7,6.4
			c-2.7,0-2.8-3.7-2.8-3.7l-0.9-69.1c0,0,0.4-4.6-3.4-4.6c-3.8,0-3.7,4-3.7,4l0.7,59.3c0,0,0.6,5.7-2.5,5.7c-3.1,0-3-5.7-3-5.7
			v-99.7c0,0-0.1-4-2.8-4s-2.3,4-2.3,4L48,430.9c0,0-0.2,8.7-2.8,8.7c-2.6,0-2-8.2-2-8.2l-0.1-46.5c0,0,1.1-7.1-2.9-7.1
			s-3.1,5.7-3.1,5.7s1.5,50.7,1.5,56.1c0,6.5,3.5,9.2,6.9,9.2c5.6,0,5.2,6,5.2,6v4.2c-13.4,2.2-26.5,3.4-50.9,4.3v164.9h1200V426
			C1187.2,424.4,1174.3,422.8,1161.3,421.4z" />

			<linearGradient id="SVGID_00000047761581802966756330000002974835525267818127_"
				gradientUnits="userSpaceOnUse" x1="-0.1" y1="168.3" x2="1200" y2="168.3"
				gradientTransform="matrix(1 0 0 -1 0 630)">
				<stop offset="0" style="stop-color:#0E0502" />
				<stop offset="5.000000e-02" style="stop-color:#130602" />
				<stop offset="0.1" style="stop-color:#140602" />
				<stop offset="0.15" style="stop-color:#160703" />
				<stop offset="0.2" style="stop-color:#170703" />
				<stop offset="0.25" style="stop-color:#190804" />
				<stop offset="0.3" style="stop-color:#1B0804" />
				<stop offset="0.35" style="stop-color:#1B0804" />
				<stop offset="0.4" style="stop-color:#1C0804" />
				<stop offset="0.45" style="stop-color:#1D0804" />
				<stop offset="0.5" style="stop-color:#1E0904" />
				<stop offset="0.55" style="stop-color:#200A04" />
				<stop offset="0.6" style="stop-color:#210A04" />
				<stop offset="0.65" style="stop-color:#230B05" />
				<stop offset="0.7" style="stop-color:#250B05" />
				<stop offset="0.75" style="stop-color:#270C05" />
				<stop offset="0.8" style="stop-color:#280C05" />
				<stop offset="0.85" style="stop-color:#2A0C05" />
				<stop offset="0.9" style="stop-color:#2C0D05" />
				<stop offset="0.95" style="stop-color:#2E0E05" />
				<stop offset="1" style="stop-color:#300F06" />
			</linearGradient>
			<path style="fill:url(#SVGID_00000047761581802966756330000002974835525267818127_);" d="M1011.6,437.3c3.6-2.2,7.9-5,7.4-5.8
			c-0.7-1.1-11.1,4.1-14.2,5.7c-0.2,0-0.3,0-0.5,0c2.5-3.5,19.4-26.4,19.2-27.6c-0.2-1.3-23.8,25.8-24.5,25.8s10.9-21.8,10.3-22.7
			c-0.6-0.9-14.9,22.5-15.6,22.1c-0.7-0.4,10.3-40.6,9.5-41.8s-13,41.7-14.2,41.6s0.6-22.3,0-24.5c-0.6-2.2-3.5,23.7-4.7,23.3
			s-1.6-33.6-2.4-36.5c-0.8-2.9-1.3,35.1-1.9,35.1s-1.6-9.4-2.6-11.3c-1-1.9,0.6,11.9-0.7,11.9s-5.4-13-6.7-15.5
			c-1.2-2.5,2.9,16,1.4,16s-11.1-16.3-13-17.7c-2.2-1.7,7.8,17.6,6.8,18.8c-1,1.2-18.2-15-23-17.9c-4.8-3,19.5,20,16.1,20.4
			c-3.5,0.4-14.5-5.6-16.7-5.2c-1.3,0.3,4,3.2,8.3,5.5c-41.5-0.4-84-0.8-123.8-1.3l-0.1-40.4c16.7-0.4,15.6-14,15.6-14l2.2-26.5
			c0,0,0.9-10-6-10c-6.8,0-5.7,9.5-5.7,9.5s0.5,24.2,0,29.9c-0.3,3.7-3.8,4.8-6.2,5.1V355c0,0,2.2-19.6-10.7-19.6
			c-12.9,0-10.9,16.2-10.9,16.2l1.8,57.8c-2.4-0.3-6.2-1.3-6.5-5.1c-0.5-5.6,0-29.9,0-29.9s1.2-9.5-5.7-9.5c-6.9,0-6,10-6,10
			l2.2,26.5c0,0-1.1,13.9,16,14l0.6,20.1c-82.8-1-150.7-2.2-168.3-3.5c-52.8-3.8-58.6,5.7-101.1,31c-11.9,7.1-46.3,11-90.3,12.8
			c4.4-1.9,10.2-4.5,8.8-4.7c-2.1-0.4-13.2,4.6-16.7,4.3c-3.5-0.4,20.9-19.1,16.1-16.6c-4.8,2.4-22.1,15.6-23,14.6
			c-1-1,9-16.7,6.8-15.3c-1.9,1.2-11.5,14.5-13,14.5s2.6-15.2,1.4-13.1c-1.2,2.1-5.4,12.6-6.6,12.6c-1.2,0,0.4-11.3-0.7-9.7
			s-2,9.2-2.6,9.2s-1.1-31-1.9-28.6c-0.7,2.4-1.1,29.5-2.4,29.8c-1.3,0.3-4.1-20.8-4.7-19c-0.6,1.8,1.1,19.9,0,20
			c-1.1,0.1-13.4-34.9-14.2-33.9c-0.8,1,10.2,33.7,9.5,34.1c-0.7,0.4-15-18.8-15.6-18c-0.6,0.8,11,18.5,10.3,18.5
			s-24.3-22.1-24.5-21.1s19.5,22.9,19.5,22.9s-14.2-6.1-15-5c-0.6,0.7,5.8,3.9,9.5,5.7c-37.6,0.2-77.7-0.6-114.7-1.8l1.7-53.9
			c27-0.2,25.2-22.1,25.2-22.1l3.5-41.7c0,0,1.4-15.8-9.4-15.8c-10.8,0-8.9,15-8.9,15s0.7,38.1,0,47c-0.5,6-6.4,7.6-10.2,8.1
			l2.9-90.9c0,0,3.1-25.5-17.2-25.5c-20.3,0-16.9,30.9-16.9,30.9l-0.1,54c-3.8-0.5-9.3-2.2-9.8-8c-0.7-8.8,0-47,0-47s1.9-15-8.9-15
			s-9.4,15.8-9.4,15.8l3.5,41.7c0,0-1.8,21.5,24.5,22.1l-0.1,84.4c-17.8-0.7-34.4-1.5-49-2.4c3.7-3.1,8.3-7.2,7.8-8.3
			c-0.7-1.5-11.3,5.9-14.2,8c-0.2,0-0.3,0-0.5,0c2.5-4.7,19.4-36.6,19.2-38.2c-0.2-1.8-23.8,35.7-24.5,35.7s10.9-30.1,10.3-31.4
			c-0.6-1.3-14.9,31.1-15.6,30.5c-0.7-0.6,10.3-56.1,9.5-57.8c-0.8-1.6-13,57.6-14.2,57.5s0.6-30.9,0-33.9
			c-0.6-3.1-3.4,32.8-4.7,32.2c-1.2-0.6-1.6-46.4-2.4-50.5c-0.7-4.1-1.3,48.5-1.9,48.5s-1.6-12.9-2.6-15.6
			c-1.1-2.6,0.6,16.5-0.7,16.5s-5.4-17.9-6.6-21.5c-1.2-3.6,2.9,22.2,1.4,22.2s-11.1-22.5-12.9-24.5c-2.2-2.4,7.8,24.4,6.8,26
			c-1,1.6-18.2-20.7-23.1-24.8c-4.1-3.4,12.3,18.2,15.8,25.7c-2.6-0.3-4.6-0.6-5.9-0.8c-0.9-0.2-1.8-0.3-2.8-0.4
			c-3.4-1.9-6.6-3.8-7.7-3.5c-0.7,0.2,0.6,1.6,2.7,3.3C90.8,466.4-0.1,499-0.1,499v129H1200V438.6
			C1200,438.6,1115.4,438.1,1011.6,437.3z" />
		</g>
	</g>
</svg>