<svg width="1200" height="420" viewBox="0 0 1200 420" fill="none" xmlns="http://www.w3.org/2000/svg">
<path d="M1200 0H0V420H1200V0Z" fill="url(#paint0_linear_277_367)"/>
<path opacity="0.3" d="M268.45 0C268.45 0 253.74 40.78 288.51 56.16C323.28 71.54 356.04 60.84 358.71 80.9C361.38 100.96 410.86 97.61 412.86 69.53C414.87 41.45 450.3 47.55 474.37 46.84C498.44 46.13 487.74 108.3 525.18 112.98C562.62 117.66 571.98 151.76 555.93 166.47C539.88 181.18 547.24 208.59 575.99 197.22C600.53 187.52 621.16 234.84 669.07 246.84C677.3 248.9 791.15 249.95 801.14 249.46V0.09L268.45 0Z" fill="white"/>
<path opacity="0.3" d="M0 160.97C0 160.97 49.72 152.46 60.17 173.77C70.62 195.08 72.19 198 75.79 198.42C79.39 198.84 134.05 189.7 146.01 189.26C179.47 188.05 229.22 201.05 255.17 249.25C277.72 291.13 1205.11 286.08 1205.11 286.08V373.92H0V160.97Z" fill="white"/>
<path d="M578.78 236.75C578.78 236.75 555.08 230.95 531.55 227.5C508.02 224.05 510.9 177.73 510.9 177.73C510.9 177.73 511.34 169.39 504.89 168.24C498.44 167.09 500.19 165.75 500.19 165.75L499.98 128.74C499.98 128.74 501.41 121.25 498.1 120.48C494.79 119.71 490.08 118.37 489.74 120.48C489.39 122.59 487.39 160.76 487.39 160.76C487.39 160.76 484.69 166.9 482.25 167.28C479.81 167.66 482.25 95.1699 482.25 95.1699C482.25 95.1699 481.64 85.6799 478.5 85.6799C475.36 85.6799 471.44 81.0799 471.44 81.0799V58.0599C471.44 58.0599 472.49 50.2899 466.21 48.2799C459.94 46.2699 453.66 39.9399 453.66 39.9399C453.66 39.9399 446.34 36.4899 446.08 48.2799C445.82 60.0799 443.47 148.4 443.47 148.4C443.47 148.4 435.63 148.4 435.37 156.46C435.11 164.52 431.71 222.63 431.71 222.63C431.71 222.63 429.36 232.7 423.61 232.7C417.86 232.7 399.3 223.78 389.63 239.89C379.96 256 379.09 248.28 363.67 249.43C348.25 250.58 341.71 253.17 339.62 257.49C337.53 261.81 310.73 257.49 310.73 257.49C310.73 257.49 310.21 239.65 303.93 237.93C297.66 236.2 299.23 202.83 299.23 202.83C299.23 202.83 299.23 195.35 291.91 193.62C284.59 191.89 290.34 148.74 283.55 148.74C276.76 148.74 267.34 147.59 267.34 147.59V223.54C267.34 223.54 244.34 225.84 241.72 239.65C239.11 253.46 245.38 252.88 233.88 253.46C222.38 254.04 197.28 270.72 192.06 279.35C186.83 287.98 593.57 424.79 593.57 424.79L578.81 236.78L578.78 236.75Z" fill="url(#paint1_linear_277_367)"/>
<path d="M0 221.61C0 221.61 32.41 227.22 33.51 265.73C34.61 304.23 52.74 252.09 101.08 253.7C149.42 255.3 158.21 211.75 204.91 250.78C251.6 289.8 298.3 251.3 347.19 303.44L437.28 353.18V369.38H0V221.61Z" fill="url(#paint2_linear_277_367)"/>
<path d="M446.88 284.91C354.08 317.22 313.34 307.45 282.41 305.2C273.36 304.54 236.44 307.36 198.52 307.76V298.14C198.52 296.82 199.85 296.69 199.85 296.69H201.56C203.61 296.69 203.57 294.32 203.57 294.32L203.52 283.13C203.52 283.13 203.86 281.24 202.66 281.24C201.46 281.24 201.63 282.73 201.63 282.73V292.84C201.63 292.84 201.63 294.94 200.69 294.94C199.75 294.94 199.71 293.71 199.71 293.71L199.41 271.05C199.41 271.05 199.54 269.53 198.24 269.53C196.94 269.53 196.97 270.83 196.97 270.83L197.21 290.29C197.21 290.29 197.42 292.15 196.33 292.15C195.24 292.15 195.28 290.29 195.28 290.29V257.59C195.28 257.59 195.26 256.27 194.32 256.27C193.38 256.27 193.51 257.59 193.51 257.59L193.68 292.6C193.68 292.6 193.62 295.46 192.71 295.46C191.8 295.46 192.03 292.77 192.03 292.77L192 277.5C192 277.5 192.37 275.17 191 275.17C189.63 275.17 189.92 277.04 189.92 277.04C189.92 277.04 190.44 293.68 190.44 295.44C190.44 297.57 191.67 298.46 192.83 298.46C194.78 298.46 194.64 300.42 194.64 300.42L194.7 307.77C189.02 307.81 183.34 307.78 177.74 307.68C94.27 306.16 -1.36001 299.92 -1.36001 299.92L-3.51001 419.38L603.81 423.89V284.9C603.81 284.9 539.68 252.59 446.89 284.9L446.88 284.91Z" fill="url(#paint3_linear_277_367)"/>
<path d="M558.03 312.78C510.82 311.39 449.04 317.45 432.37 319.56C414.88 321.77 365.22 320.64 320.48 320.91V315.58C320.48 313.45 322.95 313.24 322.95 313.24H326.13C329.95 313.24 329.88 309.41 329.88 309.41L329.78 291.29C329.78 291.29 330.42 288.24 328.19 288.24C325.96 288.24 326.28 290.65 326.28 290.65V307.03C326.28 307.03 326.28 310.44 324.53 310.44C322.78 310.44 322.7 308.45 322.7 308.45L322.14 271.75C322.14 271.75 322.38 269.28 319.97 269.28C317.56 269.28 317.6 271.39 317.6 271.39L318.04 302.91C318.04 302.91 318.44 305.93 316.41 305.93C314.38 305.93 314.46 302.91 314.46 302.91V249.95C314.46 249.95 314.42 247.82 312.67 247.82C310.92 247.82 311.16 249.95 311.16 249.95L311.48 306.65C311.48 306.65 311.37 311.29 309.68 311.29C307.99 311.29 308.41 306.93 308.41 306.93L308.36 282.21C308.36 282.21 309.05 278.43 306.5 278.43C303.95 278.43 304.48 281.46 304.48 281.46C304.48 281.46 305.45 308.4 305.45 311.25C305.45 314.7 307.74 316.14 309.9 316.14C313.53 316.14 313.26 319.32 313.26 319.32L313.28 320.97C284.82 321.25 259.24 322.22 246.54 325.15C215.51 332.31 183.71 327.34 164.22 322.61C149.36 319 134.12 317.26 118.83 317.59L78.03 318.48C66.99 318.72 55.98 317.42 45.33 314.64C36.82 312.41 28 311.57 19.21 311.84L0 312.44V367.03H621.36V303.75C621.36 303.75 595.01 313.87 558.02 312.78H558.03Z" fill="url(#paint4_linear_277_367)"/>
<path d="M1155.99 -20.55C1113.18 -16.7 805.85 -61.67 787.74 -61.67C769.63 -61.67 770.45 -23.15 770.45 -18.2C770.45 -13.25 680.62 -15.65 676.5 -14C672.94 -12.57 675 15 675 43.5C673.32 46.15 676.5 78.07 664 78.07H616.53C605.83 79.72 615.19 104.77 600.06 106.13C593.89 106.69 591.35 126.42 593.35 137.7C594.72 145.41 595.15 153.27 595 161.1C594.39 192.98 593.18 214.19 595.12 234.9C597.59 261.31 589 254.43 582.42 247.86C575.42 240.87 575.16 193.74 575.16 161.82C575.16 129.9 565.13 129 547.84 129C530.55 129 527.95 151.85 527.81 152.98C527.81 153.01 527.81 153.03 527.81 153.07C527.74 155.14 525.08 233.02 526.16 263.42C527.26 294.23 506.31 295.6 503.02 296.33C499.73 297.06 464.9 291.86 452.83 291.86C445.87 291.86 438.91 295.53 433 306.07C433 306.07 432.98 306.1 432.94 306.18C432.65 306.7 432.36 307.24 432.08 307.79C428.1 314.78 410.54 340.63 369.14 339.28C289.83 336.7 349.18 340.23 331.67 339.11C304.41 337.37 301.38 341.72 279.42 353.31C266.76 359.99 204.56 357.43 151.08 353.56C150.33 353.51 149.87 352.71 150.18 352.02L150.2 351.97C150.59 351.12 149.77 350.19 148.88 350.49C147.71 350.88 146.59 351.33 145.52 351.8L142.61 348.66C145.84 342.59 148.45 335.82 149.7 332.4C150.03 331.49 149.09 330.65 148.21 331.06C143.02 333.46 138.18 338.02 134.09 343.1C133.37 343.99 131.94 343.28 132.2 342.16C132.9 339.24 133.46 336.64 133.84 334.79C134.05 333.76 132.82 333.06 132.05 333.77C131.53 334.25 131.03 334.76 130.56 335.28C129.92 335.99 128.76 335.59 128.69 334.64C128.57 333.04 128.3 331.46 127.96 329.94C127.94 329.87 127.94 329.79 127.93 329.72L127.89 297.41C127.89 296.83 128.35 296.36 128.93 296.33C144.47 295.37 144 281.34 143.95 280.34C143.95 280.3 143.95 280.26 143.95 280.21L146.24 249.92C146.24 249.92 147.16 238.42 140.11 238.42C133.29 238.42 134.21 248.6 134.28 249.27C134.28 249.3 134.28 249.32 134.28 249.35C134.3 250.54 134.73 277.2 134.28 283.5C134.03 286.97 131.51 288.44 129.24 289.05C128.55 289.24 127.87 288.72 127.87 288L127.82 250.08C127.82 250.08 127.82 250.02 127.82 249.99C127.92 248.91 129.73 227.55 116.78 227.55C103.83 227.55 105.44 245.23 105.53 246.12C105.53 246.15 105.53 246.17 105.53 246.2L107.36 311.04C107.38 311.76 106.71 312.29 106.02 312.12C103.69 311.55 100.99 310.11 100.73 306.51C100.28 300.22 100.71 273.55 100.73 272.36C100.73 272.33 100.73 272.31 100.73 272.28C100.8 271.61 101.72 261.43 94.9 261.43C88.08 261.43 88.77 272.93 88.77 272.93L91.06 303.22C91.06 303.22 91.06 303.3 91.06 303.35C91.01 304.36 90.53 318.67 106.56 319.36C107.13 319.38 107.6 319.84 107.61 320.41L108 334.09C108.03 335.26 106.44 335.64 105.94 334.58C104.22 330.88 102.45 327.87 101.26 325.99C100.71 325.12 99.37 325.43 99.27 326.46C98.71 332.02 100.7 340.62 102.94 348.09C103.16 348.83 102.56 349.56 101.79 349.49C100.79 349.4 99.8 349.3 98.83 349.21C98.59 349.19 98.37 349.08 98.2 348.91C95.5 346.3 92.86 344.13 91.14 342.78C90.38 342.19 89.27 342.81 89.4 343.76C89.55 344.85 89.75 345.9 89.98 346.9C90.15 347.62 89.56 348.29 88.82 348.22C79.51 347.27 72.94 346.5 70.39 346.08C55.59 343.66 7.35 358.53 0.72 360.61C0.31 360.75 0 361.17 0 361.64V418.83C0 419.43 0.48 419.91 1.08 419.91H186.89C185.87 420.27 185.09 420.55 184.59 420.74C184.16 420.9 183.89 421.3 183.89 421.75V572.89C183.89 573.49 184.37 573.97 184.97 573.97L1533.72 578.37C1534.19 578.37 1534.6 578.07 1534.75 577.63L1564.09 489.23C1564.19 488.93 1564.16 488.6 1563.99 488.33C1553.91 471.81 1198.1 -24.34 1156 -20.55H1155.99Z" fill="url(#paint5_linear_277_367)"/>
<path d="M176.69 139.66C205.96 139.66 229.68 115.94 229.68 86.6702C229.68 57.4002 205.96 33.6802 176.69 33.6802C147.42 33.6802 123.7 57.4002 123.7 86.6702C123.7 115.94 147.42 139.66 176.69 139.66Z" fill="url(#paint6_radial_277_367)"/>
<path opacity="0.35" d="M176.69 39.5701C202.69 39.5701 223.79 60.6701 223.79 86.6701C223.79 112.67 202.69 133.77 176.69 133.77C150.69 133.77 129.59 112.67 129.59 86.6701C129.59 60.6701 150.69 39.5701 176.69 39.5701ZM118.58 86.6701C118.58 118.77 144.58 144.78 176.69 144.78C208.8 144.78 234.8 118.78 234.8 86.6701C234.8 54.5601 208.8 28.5601 176.69 28.5601C144.58 28.5601 118.58 54.5601 118.58 86.6701Z" fill="#F9E99F"/>
<path d="M45.03 64.9202C45.03 64.9202 45.08 64.8802 45.1 64.8902C46.44 65.5002 47.75 66.1502 49.09 66.7502C49.75 67.0402 50.41 67.3302 51.07 67.6102C51.41 67.7602 51.76 67.9002 52.1 68.0402C52.3 68.1302 52.51 68.2202 52.72 68.3002C52.25 67.9602 51.75 67.6702 51.28 67.3302C50.66 66.8902 50.07 66.4002 49.48 65.9302C48.91 65.4702 48.36 65.0002 47.84 64.4802C47.58 64.2202 47.34 63.9502 47.11 63.6602C46.97 63.4902 46.76 63.2802 46.87 63.0502C46.88 63.0202 46.93 63.0002 46.95 63.0302C48.22 64.0302 49.47 65.0402 50.74 66.0402C51.89 66.9402 53.16 67.6102 54.42 68.3202C53.86 67.7302 53.28 67.1802 52.64 66.6702C52.17 66.2902 51.68 65.9302 51.24 65.5102C50.79 65.0802 50.41 64.5802 50.1 64.0402C49.96 63.8002 49.82 63.5502 49.7 63.2902C49.63 63.1502 49.37 62.8202 49.47 62.6402C49.55 62.5002 49.69 62.6302 49.77 62.7002C50.01 62.9302 50.24 63.1702 50.48 63.4102C50.95 63.8802 51.41 64.3602 51.86 64.8502C52.36 65.4002 52.8 66.0002 53.34 66.5102C53.85 67.0002 54.41 67.4502 54.96 67.8902C55.41 68.2502 55.86 68.6102 56.34 68.9402C56.03 68.5102 55.73 68.0802 55.42 67.6602C55.1 67.2202 54.77 66.7802 54.45 66.3302C54.15 65.9002 53.96 65.4302 53.77 64.9402C53.72 64.8102 53.67 64.6802 53.61 64.5502C53.59 64.4902 53.57 64.4402 53.54 64.3802C53.51 64.3202 53.4 64.1102 53.41 64.0602C53.42 63.9902 53.45 63.9602 53.53 63.9802C53.69 64.0102 53.83 64.3102 53.91 64.4202C54.08 64.6602 54.26 64.9002 54.42 65.1402C55.03 66.0102 55.58 66.9302 56.16 67.8202C56.74 68.7002 57.41 69.5002 58.29 70.0602C58.35 70.0602 58.41 70.0802 58.46 70.0902C58.7 70.1402 58.93 70.2502 59.15 70.3602C59.66 70.6102 60.17 70.8702 60.67 71.1202C61.6 71.5902 62.52 72.0502 63.32 72.7202C64.18 73.4302 64.99 74.1802 65.83 74.9102C66.65 75.6102 67.46 76.3202 68.28 77.0202C68.84 77.5102 69.41 77.9802 69.99 78.4402C70.9 78.5102 71.83 78.7202 72.72 78.9402C73.53 79.1502 74.28 79.4602 74.98 79.9002C75.15 79.9302 75.33 79.9602 75.51 79.9602C76.01 79.9802 76.5 79.9002 77 79.9902C77.81 80.1302 78.62 80.6002 79.07 81.3002C79.33 81.5102 79.64 81.6502 79.86 81.9002C80.03 82.0902 80.14 82.3302 80.17 82.5802C80.21 83.0202 79.97 83.5102 79.53 83.6502H79.51C79.49 83.6502 79.47 83.6602 79.46 83.6702C79.43 83.6702 79.4 83.6402 79.43 83.6202C79.46 83.6002 79.49 83.5602 79.51 83.5202C79.53 83.4502 79.56 83.3702 79.57 83.2902C79.57 83.2502 79.57 83.2102 79.57 83.1702C79.42 83.1002 79.27 83.0302 79.12 82.9602C78.87 82.8402 78.69 82.8802 78.43 82.9202C78.02 82.9802 77.62 83.0502 77.22 83.1102C76.43 83.2402 75.65 83.3702 74.89 83.6502C74.88 83.6502 74.87 83.6502 74.86 83.6502C74.75 83.6902 74.64 83.7302 74.53 83.7702C74.38 83.8302 74.24 83.9002 74.1 83.9802H74.08C74.07 83.9802 74.05 83.9902 74.04 84.0002C74 84.0202 73.97 83.9602 74.01 83.9402C74.07 83.9002 74.14 83.8602 74.21 83.8202C74.23 83.8002 74.25 83.7802 74.28 83.7702C74.2 83.7702 74.12 83.7902 74.04 83.8102C74.04 83.8102 74.04 83.8102 74.03 83.8102C73.73 84.1302 73.29 84.3702 72.91 84.5602C72.7 84.6702 72.48 84.7602 72.25 84.8402C72.03 84.9202 71.8 85.0402 71.58 85.0802C71.1 85.2502 70.61 85.4102 70.12 85.5702C69.68 85.7102 69.25 85.8502 68.79 85.9102C68.32 85.9702 67.85 85.9802 67.38 85.9402C66.94 85.9102 66.48 85.7802 66.04 85.7902C66.04 85.8002 66.02 85.8102 66 85.8102C65.54 85.7402 65.13 85.5202 64.68 85.4102C64.55 85.3802 64.42 85.3502 64.29 85.3602C64.15 85.3602 64.02 85.4602 63.89 85.5202C63.67 85.6202 63.45 85.7102 63.22 85.7902C62.99 85.8702 62.76 85.9402 62.52 85.9702C62.38 85.9902 62.27 85.9902 62.14 86.0402C62.06 86.0702 61.99 86.0902 61.91 86.0902C61.76 86.0902 61.64 86.0102 61.49 86.0502C61.39 86.0702 61.32 86.1202 61.22 86.1302C61.06 86.1502 60.89 86.1002 60.76 86.0002C60.76 86.0002 60.74 86.0002 60.74 85.9902C60.69 85.9102 60.67 85.8402 60.67 85.7602C60.53 85.9302 60.38 86.0302 60.13 86.0502C59.94 86.0702 59.75 86.0902 59.55 86.1002C59.34 86.1102 59.13 86.0602 58.92 86.0802C58.05 86.1702 57.18 85.9802 56.33 85.8202C56.31 85.8202 56.29 85.8002 56.29 85.7802C56.3 85.6602 56.34 85.5702 56.41 85.4902C55.96 85.5202 55.52 85.3502 55.17 85.0802C55.16 85.0702 55.15 85.0502 55.16 85.0302C55.29 84.7502 55.55 84.5402 55.83 84.4002C55.53 84.4002 55.25 84.3202 54.98 84.1902C54.86 84.1302 54.75 84.0702 54.65 84.0002C54.56 83.9402 54.36 83.8502 54.31 83.7502C54.21 83.5502 54.77 83.3202 55.05 83.2702C54.85 83.1602 54.66 83.0102 54.53 82.8202C54.41 82.6502 54.57 82.5802 54.72 82.5302C54.54 82.3802 54.45 82.1602 54.49 81.9102C54.47 81.9102 54.45 81.9002 54.43 81.8902C54.38 81.8702 54.42 81.8102 54.46 81.8102C54.76 81.8702 55.09 81.8102 55.39 81.8302C55.72 81.8502 56.05 81.9002 56.37 81.9502C57.11 82.0602 57.83 82.1202 58.58 82.0802C59.24 82.0502 59.9 81.9702 60.56 81.9102C61.11 81.8502 61.71 81.8402 62.19 81.5402C61.99 81.5402 61.77 81.5202 61.69 81.3802C61.59 81.1902 61.86 80.9302 62.04 80.7502C61.75 80.8402 61.44 80.8802 61.14 80.8402C60.93 80.8102 60.65 80.6602 60.75 80.4202C60.53 80.4902 60.3 80.5302 60.07 80.5002C59.96 80.4802 59.85 80.4502 59.75 80.4002C59.67 80.3502 59.58 80.2302 59.49 80.2102C59.45 80.2102 59.36 80.2202 59.32 80.2202C59.26 80.2202 59.21 80.2102 59.15 80.1902C59.09 80.1702 59.04 80.1502 58.99 80.1202C58.82 80.0202 58.71 79.8702 58.65 79.6902C58.2 79.8102 57.74 79.5602 57.6 79.1102C57.56 78.9702 57.56 78.9602 57.42 78.9002C57.32 78.8602 57.22 78.8002 57.13 78.7402C56.96 78.6102 56.86 78.4602 56.75 78.2802C56.64 78.1102 56.4 78.0702 56.25 77.9202C56.19 77.8602 56.13 77.7802 56.09 77.7002C56.03 77.5902 56.04 77.4502 55.89 77.4302C55.76 77.4102 55.66 77.4602 55.52 77.4102C55.43 77.3802 55.35 77.3402 55.29 77.2802C55.18 77.1802 55.09 77.0402 55.07 76.8902C54.93 76.9202 54.79 76.9002 54.66 76.8302C54.43 76.6902 54.35 76.4402 54.32 76.1902C53.87 76.3602 53.42 76.0102 53.47 75.5302C53.34 75.5202 53.23 75.4302 53.21 75.3002C53.17 75.3402 53.11 75.3702 53.05 75.3902C53.02 75.3902 53 75.3702 53 75.3502C53 75.2602 53 75.1802 53 75.0902C52.69 75.1502 52.36 75.1102 52.14 74.8702C52.03 74.7502 52.02 74.5602 51.91 74.4602C51.77 74.3302 51.54 74.2402 51.37 74.1402C51.36 74.1402 51.35 74.1102 51.35 74.1002C51.38 73.9602 51.45 73.8502 51.56 73.7802C51.4 73.7602 51.25 73.7302 51.09 73.6902C51 73.6702 50.85 73.6402 50.79 73.5502C50.72 73.4402 50.84 73.3302 50.97 73.2502C50.84 73.2502 50.71 73.2302 50.58 73.2002C50.49 73.1802 50.39 73.1602 50.31 73.1102C50.25 73.0702 50.21 73.0002 50.16 72.9702C50.06 72.9102 49.92 72.9202 49.81 72.8802C49.72 72.8502 49.63 72.8002 49.56 72.7302C49.44 72.6002 49.41 72.4102 49.48 72.2602C49.21 72.1202 48.95 71.9502 48.71 71.7702C48.58 71.6802 48.26 71.5202 48.26 71.3302C48.26 71.2302 48.32 71.2202 48.38 71.1602C48.4 71.1602 48.42 71.1402 48.44 71.1402C48.51 71.0602 48.5 71.0002 48.42 70.9702C48.38 70.9102 48.29 70.8702 48.23 70.8202C47.98 70.6302 47.71 70.4702 47.43 70.3202C47.41 70.3102 47.4 70.2702 47.42 70.2602C47.5 70.1702 47.58 70.1002 47.69 70.0402C47.41 69.9002 47.13 69.7602 46.86 69.6302C46.61 69.5002 46.33 69.3902 46.14 69.1702C46.12 69.1402 46.14 69.1002 46.17 69.1102C46.56 69.1802 46.96 69.2402 47.36 69.2902C46.99 69.1602 46.61 69.0502 46.23 68.9602C46.21 68.9602 46.2 68.9402 46.2 68.9302C45.91 68.8202 45.65 68.5902 45.48 68.3502C45.45 68.3102 45.48 68.2602 45.53 68.2602C47.03 68.4602 48.53 68.6602 49.99 69.0702C49.99 69.0002 49.82 68.8902 49.76 68.8602C49.7 68.8302 49.63 68.8102 49.57 68.7802C49.47 68.7402 49.37 68.7002 49.26 68.6602C49.05 68.5802 48.83 68.5102 48.61 68.4402C48.16 68.2902 47.7 68.1602 47.24 68.0102C46.8 67.8602 46.37 67.7002 45.95 67.5002C45.68 67.3702 45.4 67.2002 45.29 66.9002C45.28 66.8602 45.3 66.8202 45.35 66.8302C45.9 67.0302 46.44 67.2202 46.99 67.4002C47.28 67.4902 47.56 67.5802 47.85 67.6502C48.28 67.7502 48.71 67.8502 49.14 67.9602C49.96 68.1702 50.8 68.3902 51.6 68.6902C51.39 68.5302 51.12 68.4202 50.9 68.3102C50.55 68.1302 50.19 67.9502 49.83 67.7802C49.18 67.4702 48.51 67.1802 47.85 66.9002C47.24 66.6402 46.62 66.3802 46.05 66.0402C45.76 65.8702 45.48 65.6802 45.22 65.4702C45.07 65.3402 44.93 65.1802 45 64.9702L45.03 64.9202Z" fill="url(#paint7_linear_277_367)"/>
<path d="M80.79 82.3601C80.72 81.8501 80.26 81.6101 79.88 81.3601C79.59 81.0901 79.32 80.8001 79.03 80.5301H79.01C78.97 80.5201 78.98 80.4501 79.03 80.4601C79.47 80.5301 79.91 80.6501 80.35 80.7201C80.79 80.7901 81.22 80.8101 81.67 80.8201C82.57 80.8201 83.42 81.0701 84.28 81.2701C85.12 81.4701 85.96 81.6701 86.8 81.8601C87.46 81.9901 88.13 82.0601 88.8 82.1001C89.18 82.1301 89.56 82.1701 89.94 82.1201C90.32 82.0701 90.67 81.9201 90.99 81.7201C91.52 81.3901 92.02 80.9501 92.44 80.4901C92.86 80.0201 92.9 79.2801 93.61 79.1301C93.63 79.1301 93.66 79.1301 93.67 79.1601C93.69 79.2101 93.7 79.2401 93.71 79.2901C93.71 79.3001 93.71 79.3201 93.71 79.3301C93.79 79.8901 93.51 80.4301 93.23 80.9001C92.91 81.4401 92.54 81.9801 92.03 82.3501C91.49 82.7401 90.83 82.8801 90.18 82.9001C89.85 82.9101 89.51 82.8901 89.18 82.8601C88.82 82.8301 88.44 82.8001 88.11 82.9601C88.5 83.1301 88.88 83.3201 89.24 83.5601C89.28 83.5901 89.24 83.6501 89.2 83.6401C88.71 83.5501 88.22 83.4601 87.74 83.3701C87.51 83.3301 87.28 83.2801 87.04 83.2301C86.92 83.2001 86.78 83.1601 86.65 83.1501C86.52 83.1501 86.47 83.2301 86.4 83.3301C86.65 83.6801 86.31 84.2001 86.62 84.5101C86.66 84.5501 86.62 84.6301 86.57 84.6001C86.01 84.3101 85.43 84.0701 84.83 83.8701C84.75 84.2701 83.91 84.0901 83.66 84.0301C83.5 83.9901 82.56 83.7501 82.66 83.4401C82.55 83.4501 82.43 83.4501 82.32 83.4401C82.36 83.4701 82.4 83.5101 82.44 83.5401C82.47 83.5701 82.45 83.6201 82.41 83.6301C81.76 83.7701 81.1 83.8201 80.45 83.7501C80.45 83.7501 80.44 83.7501 80.43 83.7501C80.39 83.7801 80.33 83.7201 80.37 83.6801C80.63 83.3001 80.89 82.8801 80.82 82.4001L80.79 82.3601Z" fill="url(#paint8_linear_277_367)"/>
<path d="M75.58 83.8901C76.24 83.6601 76.98 83.6501 77.67 83.5701C78.03 83.5301 78.41 83.4501 78.77 83.4601C79.02 83.4601 79.21 83.5901 79.32 83.8101C79.34 83.8401 79.28 83.8701 79.27 83.8401C79.22 83.9601 79.16 84.0901 79.07 84.1901C78.95 84.3201 78.74 84.2801 78.58 84.2801C78.51 84.2801 78.03 84.3101 78.06 84.1501C77.72 84.1901 77.38 84.1401 77.04 84.1301C76.63 84.1301 76.2 84.2401 75.8 84.0601C75.73 84.0601 75.66 84.0401 75.58 84.0101C75.52 83.9901 75.52 83.9101 75.58 83.8901Z" fill="url(#paint9_linear_277_367)"/>
<path d="M138.08 95.2903C138 95.2603 137.94 95.2503 137.87 95.1903C137.81 95.1403 137.78 95.1003 137.71 95.0703C137.41 94.9203 137.03 94.8803 136.7 94.8603C136.31 94.8403 135.92 94.8303 135.54 94.8303C135.08 94.6403 134.76 94.1503 134.53 93.7203C134.22 93.1503 133.91 92.5803 133.62 92.0003C133.33 91.4203 133.07 90.8203 132.86 90.2103C132.65 89.5703 132.49 88.9203 132.23 88.3003C132.12 88.0503 131.99 87.8003 131.79 87.6103C131.56 87.3903 131.24 87.2703 131.08 86.9903C131.08 86.9803 131.06 86.9703 131.05 86.9703C130.91 86.8003 130.76 86.6303 130.62 86.4603C130.3 86.0903 129.98 85.7203 129.67 85.3503C129.01 84.5803 128.36 83.7903 127.8 82.9403C127.5 82.4803 127.24 82.0003 126.97 81.5203C126.97 81.5003 126.94 81.5003 126.93 81.5203C126.92 81.5203 126.91 81.5203 126.9 81.5203C126.83 81.5403 126.83 81.6203 126.84 81.6703C126.89 82.0303 127.06 82.4003 127.2 82.7303C127.25 82.8303 127.3 82.9403 127.35 83.0403C127.18 82.8303 127.01 82.6203 126.84 82.4203C126.35 81.8503 125.82 81.2903 125.24 80.8103C125.24 80.8003 125.24 80.7803 125.22 80.7803C125.22 80.7803 125.2 80.7803 125.19 80.7803C125.19 80.7803 125.17 80.7803 125.16 80.7903C125.08 80.9103 125.24 81.1303 125.29 81.2403C125.37 81.4203 125.47 81.6003 125.57 81.7703C125.79 82.1403 126.04 82.4903 126.31 82.8203C126.32 82.8403 126.34 82.8503 126.35 82.8703C126.19 82.7403 126.03 82.6203 125.87 82.5003C125.35 82.1003 124.82 81.6803 124.26 81.3203C124.26 81.3103 124.25 81.3003 124.23 81.3003H124.21C124.19 81.3003 124.17 81.3003 124.13 81.3003C124.12 81.3003 124.11 81.3103 124.1 81.3203C124.06 81.4503 124.17 81.5403 124.25 81.6303C124.4 81.7903 124.55 81.9503 124.7 82.1103C125 82.4303 125.32 82.7403 125.64 83.0403C125.95 83.3303 126.26 83.6203 126.58 83.9103C126.51 83.8603 126.43 83.8203 126.36 83.7703C126.04 83.5703 125.68 83.3103 125.3 83.2603C125.3 83.2603 125.29 83.2603 125.28 83.2603C125.26 83.2603 125.25 83.2803 125.26 83.3003C125.35 83.4303 125.46 83.5203 125.58 83.6203C125.74 83.7603 125.9 83.8903 126.06 84.0303C126.31 84.2503 126.57 84.4603 126.82 84.6803C126.23 84.4003 125.74 83.9703 125.21 83.6103C124.58 83.1803 123.88 82.9003 123.12 82.8203C123.08 82.8203 123.07 82.8703 123.1 82.8903C123.62 83.1803 124.12 83.4803 124.63 83.7803C125.08 84.0503 125.52 84.3203 125.94 84.6303C125.14 84.3603 124.33 84.1103 123.49 84.0903C123.46 84.0903 123.44 84.1303 123.46 84.1503C123.65 84.3303 123.89 84.4003 124.13 84.4903C124.38 84.5903 124.62 84.7303 124.86 84.8703C124.65 84.8503 124.45 84.8303 124.24 84.8203C124.21 84.8203 124.2 84.8603 124.21 84.8803C124.49 85.2103 124.81 85.5003 125.18 85.7403C125.07 85.7403 124.96 85.7403 124.85 85.7403C124.82 85.7403 124.81 85.7703 124.82 85.8003C125.01 86.1403 125.27 86.4203 125.6 86.6303C125.49 86.6303 125.37 86.6303 125.26 86.6303C125.24 86.6303 125.23 86.6503 125.23 86.6703C125.25 86.7603 125.29 86.8203 125.35 86.8703C125.31 86.8803 125.26 86.9103 125.22 86.9403C125.2 86.9503 125.21 86.9803 125.22 86.9903C125.52 87.3303 125.9 87.5803 126.32 87.7503C126.11 87.8103 125.9 87.8603 125.69 87.9203C125.66 87.9203 125.66 87.9703 125.68 87.9903C125.94 88.2203 126.21 88.4303 126.5 88.6203C126.41 88.6503 126.33 88.6903 126.24 88.7203C126.21 88.7303 126.21 88.7603 126.23 88.7803C126.38 89.0003 126.65 89.0503 126.9 89.0703C126.8 89.1703 126.7 89.2703 126.61 89.3703C126.56 89.4203 126.53 89.4803 126.57 89.5403C126.67 89.7203 126.94 89.8303 127.14 89.8603C127.07 89.9203 127.01 89.9803 126.95 90.0603C126.95 90.0703 126.95 90.0903 126.95 90.1103C127.01 90.1703 127.08 90.2203 127.16 90.2503C127.06 90.4303 126.95 90.6103 126.85 90.8003C126.85 90.8203 126.85 90.8403 126.86 90.8503C127.06 90.9403 127.26 90.9803 127.47 90.9603C127.37 91.1603 127.34 91.3803 127.36 91.6103C127.36 91.6303 127.38 91.6403 127.39 91.6403C127.49 91.6403 127.58 91.6403 127.67 91.6203C127.59 91.8503 127.57 92.0803 127.62 92.3203C127.62 92.3403 127.63 92.3503 127.65 92.3503C127.94 92.4103 128.2 92.2703 128.45 92.1303C128.73 91.9703 129 91.8203 129.28 91.6603C128.81 92.1003 128.44 92.6503 128.13 93.2003C128.13 93.2103 128.13 93.2403 128.14 93.2503C128.36 93.3803 128.6 93.4503 128.85 93.4603C128.71 93.6403 128.61 93.8403 128.55 94.0603C128.55 94.0803 128.55 94.1003 128.58 94.1103C128.8 94.2003 129.06 94.2503 129.31 94.2203C129.27 94.2603 129.24 94.3003 129.21 94.3503C129.15 94.4403 129.05 94.6203 129.09 94.7303C129.12 94.8303 129.31 94.9003 129.39 94.9403C129.54 95.0103 129.7 95.0503 129.86 95.0603C129.73 95.2303 129.64 95.4203 129.6 95.6303C129.6 95.6503 129.61 95.6703 129.63 95.6803C129.72 95.6803 129.81 95.6903 129.9 95.7003C129.87 95.7603 129.84 95.8203 129.8 95.8803C129.78 95.9003 129.8 95.9303 129.82 95.9403C129.98 96.0303 130.14 96.0803 130.32 96.0903C130.21 96.2703 130.07 96.4103 129.89 96.5103C129.86 96.5303 129.87 96.5703 129.89 96.5903C129.99 96.6303 130.08 96.6503 130.18 96.6503C130.13 96.6903 130.08 96.7203 130.03 96.7503C129.99 96.7703 130.03 96.8203 130.06 96.8303C130.11 96.8303 130.17 96.8303 130.22 96.8303C129.9 97.0503 129.53 97.1603 129.13 97.2203C128.65 97.2903 128.19 97.4003 127.72 97.5403C127.7 97.5403 127.7 97.5603 127.69 97.5703C127.69 97.6403 127.71 97.7003 127.76 97.7403C127.66 97.7903 127.56 97.8503 127.47 97.9203C127.45 97.9403 127.45 97.9703 127.47 97.9803C127.52 98.0003 127.56 98.0303 127.61 98.0503C127.34 98.2803 127.13 98.5703 126.99 98.9003C126.99 98.9203 126.99 98.9403 127 98.9503C127.19 99.0803 127.4 99.1503 127.63 99.1803C127.61 99.3303 128.07 99.3303 128.22 99.3203C128.22 99.3403 128.22 99.3603 128.22 99.3903C128.22 99.4103 128.23 99.4303 128.25 99.4303C128.35 99.4303 128.44 99.4303 128.54 99.4303C128.66 99.4303 128.7 99.4203 128.76 99.5103C128.8 99.5803 128.83 99.6203 128.92 99.6203C129.07 99.6203 129.24 99.5303 129.38 99.4903C129.57 99.4303 129.76 99.3703 129.95 99.3003C130.28 99.1903 130.62 99.1103 130.92 98.9303C131.21 98.7603 131.49 98.6103 131.8 98.4803C132.17 98.5103 132.54 98.5203 132.91 98.5403C133.3 98.5503 133.67 98.4403 134.03 98.3103C134.4 98.1703 134.74 97.9903 135.08 97.7903C135.31 97.6503 135.56 97.5103 135.79 97.3603C136.17 97.2103 136.45 96.9003 136.75 96.6303C136.95 96.4503 137.17 96.2903 137.4 96.1603C137.51 96.0903 137.62 96.0303 137.74 95.9803C137.82 95.9403 137.91 95.9003 137.99 95.8703C138.01 95.8703 138.25 95.7403 138.23 95.8703C138.23 95.8903 138.26 95.9103 138.27 95.8903C138.39 95.7603 138.41 95.5703 138.32 95.4203C138.27 95.3503 138.21 95.3103 138.13 95.2803L138.08 95.2903Z" fill="url(#paint10_linear_277_367)"/>
<path d="M141.91 92.3204C141.89 91.9804 141.76 91.3904 141.33 91.3604C141.31 91.3604 141.3 91.3704 141.3 91.3904C141.35 91.5004 141.39 91.6204 141.43 91.7304C141.32 91.5604 141.16 91.4403 140.94 91.4903C140.92 91.4903 140.91 91.5204 140.92 91.5404C141.06 91.7104 141.14 91.9203 141.15 92.1303C141.1 91.9203 140.99 91.7303 140.79 91.5903C140.77 91.5703 140.74 91.5904 140.75 91.6204C140.81 92.0704 140.85 92.5504 140.59 92.9404C140.58 92.8504 140.55 92.7803 140.49 92.7003C140.48 92.6803 140.45 92.6904 140.44 92.7104C140.42 92.8204 140.35 92.9104 140.26 92.9604C140.26 92.9004 140.25 92.8404 140.19 92.7904C140.17 92.7804 140.15 92.7804 140.14 92.8004C140.08 93.0004 139.93 93.1204 139.76 93.2304C139.56 93.3604 139.35 93.4703 139.14 93.5903C138.76 93.8003 138.38 94.0004 138 94.1904C138 94.1504 138 94.1103 138 94.0603C138 94.0403 137.97 94.0304 137.95 94.0404C137.86 94.1304 137.76 94.2103 137.66 94.2803C137.62 94.3103 137.57 94.3404 137.53 94.3604C137.45 94.4104 137.43 94.4403 137.39 94.3403C137.39 94.3203 137.35 94.3203 137.34 94.3403C137.27 94.4403 137.19 94.5004 137.08 94.5404C137.06 94.5404 137.06 94.5803 137.08 94.5903C137.13 94.6503 137.2 94.6704 137.26 94.6504C137.41 94.6704 137.55 94.6704 137.69 94.7104C137.87 94.7603 138.03 94.8403 138.17 94.9503C138.19 94.9703 138.21 94.9503 138.22 94.9503C138.48 94.8603 138.71 94.6904 138.95 94.5704C139.2 94.4504 139.46 94.3504 139.72 94.2504C140.23 94.0504 140.69 93.7604 141.13 93.4404C141.32 93.3004 141.53 93.1703 141.69 92.9903C141.86 92.8103 141.91 92.5704 141.9 92.3304L141.91 92.3204Z" fill="url(#paint11_linear_277_367)"/>
<path d="M89.52 97.4903C89.52 97.4903 89.55 97.4403 89.58 97.4603C90.08 97.8703 90.59 98.2503 91.11 98.6203C91.11 98.6203 91.09 98.6003 91.08 98.5903C90.83 98.3503 90.58 98.1203 90.34 97.8703C89.89 97.4103 89.46 96.9003 89.25 96.2803C89.24 96.2503 89.28 96.2203 89.31 96.2403C89.89 96.7903 90.47 97.3503 91.1 97.8403C91.59 98.2203 92.11 98.5603 92.58 98.9603C92.17 98.4103 91.7 97.9003 91.32 97.3303C91.12 97.0203 90.94 96.6903 90.81 96.3403C90.7 96.0303 90.61 95.6803 90.73 95.3603C90.73 95.3403 90.77 95.3403 90.78 95.3603C91.38 96.6003 92.2 97.7003 93.2 98.6403C92.83 98.0903 92.53 97.5003 92.25 96.9103C91.96 96.2803 91.56 95.5803 91.68 94.8603C91.68 94.8303 91.72 94.8303 91.73 94.8603C92.15 95.6003 92.53 96.3503 92.88 97.1303C93.2 97.8303 93.56 98.5303 94.15 99.0503C94.08 98.7103 93.89 98.4203 93.71 98.1303C93.49 97.7703 93.35 97.4003 93.24 96.9903C93.05 96.2303 92.82 95.3803 93.13 94.6303C93.14 94.6003 93.18 94.6103 93.18 94.6303C93.4 95.5003 93.63 96.3603 93.87 97.2203C94.06 97.9103 94.24 98.6503 94.74 99.1803C94.49 98.3803 94.27 97.5603 94.31 96.7203C94.35 95.9903 94.59 95.2903 95.08 94.7403C95.1 94.7103 95.13 94.7403 95.13 94.7703C94.95 95.6703 94.88 96.5903 94.84 97.5103C94.82 97.9503 94.83 98.3803 94.92 98.8103C95.01 99.1903 95.15 99.5503 95.35 99.8803C95.2 99.4203 95.13 98.9303 95.12 98.4403C95.11 97.9103 95.12 97.3003 95.35 96.8103C95.41 96.6803 95.52 96.4503 95.67 96.4103C95.91 96.3603 95.81 96.6803 95.79 96.8003C95.7 97.4203 95.66 98.0703 95.69 98.6903C95.71 99.3603 95.85 100.04 96.22 100.61C96.22 100.61 96.22 100.62 96.22 100.63C96.31 100.72 96.4 100.8 96.47 100.9C96.58 101.06 96.67 101.24 96.76 101.41C96.97 101.8 97.23 102.15 97.5 102.5C98.08 103.08 98.67 103.66 99.2 104.29C99.7 104.89 100.11 105.52 100.41 106.24C100.41 106.11 100.39 105.98 100.36 105.85C100.32 105.84 100.33 105.79 100.36 105.78C100.37 105.76 100.4 105.76 100.41 105.78C100.79 105.9 101.15 106.05 101.5 106.23C101.68 106.32 101.86 106.42 102.03 106.52C102.21 106.63 102.39 106.77 102.59 106.84C102.77 106.9 102.97 106.91 103.15 106.96C103.35 107.01 103.55 107.07 103.75 107.14C104.11 107.26 104.52 107.38 104.83 107.61C104.85 107.63 104.83 107.65 104.81 107.65C104.96 107.89 104.91 108.22 104.69 108.41C104.67 108.43 104.64 108.39 104.66 108.37C104.82 108.21 104.56 108.16 104.5 108.16C104.44 108.16 104.37 108.16 104.31 108.16C104.2 108.16 104.08 108.17 103.97 108.18C103.7 108.19 103.46 108.23 103.21 108.32C101.75 108.62 100.32 109.34 99.76 110.84C99.6 110.93 99.44 111.01 99.29 111.12C98.99 111.32 98.79 111.57 98.63 111.89C98.55 112.05 98.43 112.17 98.25 112.21C98.12 112.24 98.02 112.24 97.99 112.39C97.97 112.47 97.96 112.54 97.92 112.61C97.91 112.64 97.86 112.63 97.85 112.61C97.83 112.52 97.81 112.4 97.75 112.33C97.71 112.52 97.68 112.71 97.66 112.91C97.66 112.95 97.6 112.97 97.58 112.93C97.54 112.84 97.5 112.76 97.46 112.67C97.31 112.81 97.17 112.97 97.05 113.14C96.95 113.29 96.87 113.46 96.74 113.6C96.49 113.86 96.2 113.77 95.95 113.58C95.93 113.56 95.93 113.52 95.96 113.52C95.97 113.52 95.98 113.52 96 113.52C95.9 113.46 95.85 113.36 95.84 113.24C95.84 113.21 95.88 113.2 95.9 113.22C96.03 113.39 96.26 113.38 96.42 113.26C96.54 113.17 96.62 113.05 96.7 112.92C96.5 112.97 96.29 113.05 96.22 113.26C96.21 113.29 96.16 113.29 96.15 113.26C96.14 113.2 96.13 113.15 96.11 113.09C96.09 113.09 96.07 113.09 96.05 113.1C96.01 113.1 95.99 113.06 96.02 113.03C96.14 112.92 96.24 112.8 96.33 112.67C96.15 112.78 95.96 112.87 95.77 112.95C95.55 113.04 95.33 113.11 95.09 113.07C95.06 113.07 95.04 113.03 95.06 113C95.12 112.93 95.23 112.81 95.12 112.74C95.04 112.68 94.88 112.67 94.78 112.65C94.74 112.65 94.73 112.6 94.76 112.58C94.85 112.5 94.93 112.42 95.02 112.33C94.82 112.46 94.66 112.65 94.46 112.78C94.23 112.93 93.95 112.98 93.67 112.93C93.64 112.93 93.62 112.9 93.63 112.87C93.69 112.68 93.76 112.49 93.83 112.31C93.67 112.41 93.5 112.51 93.33 112.59C93.15 112.68 92.93 112.8 92.73 112.82C92.32 112.86 92.51 112.41 92.63 112.15C92.27 112.34 91.86 112.42 91.46 112.37C91.43 112.37 91.4 112.32 91.43 112.3C91.49 112.25 91.54 112.21 91.6 112.16C91.34 112.25 91.06 112.24 90.8 112.14C90.77 112.13 90.77 112.08 90.8 112.07C90.88 112.01 90.95 111.95 91.01 111.88C90.89 111.88 90.78 111.85 90.67 111.8C90.64 111.78 90.64 111.74 90.67 111.72C90.98 111.6 91.27 111.44 91.53 111.24C91.14 111.28 90.76 111.23 90.39 111.09C90.36 111.08 90.35 111.03 90.38 111.01C90.62 110.87 90.87 110.73 91.11 110.59C90.81 110.59 90.52 110.48 90.28 110.27C90.25 110.25 90.28 110.21 90.3 110.2C90.42 110.17 90.53 110.13 90.65 110.1C90.69 110.09 91.08 110 91.03 109.92C91.02 109.9 91.03 109.86 91.05 109.86C91.21 109.82 91.37 109.78 91.53 109.75C91.13 109.69 90.74 109.55 90.51 109.2C90.49 109.18 90.51 109.13 90.54 109.13C91 109.08 91.46 109.03 91.92 108.97C91.87 108.95 91.83 108.92 91.79 108.88C91.76 108.85 91.78 108.81 91.81 108.81C91.91 108.8 92 108.78 92.1 108.77C91.73 108.66 91.35 108.5 91.14 108.15C91.12 108.12 91.14 108.09 91.17 108.08C91.6 107.97 92.04 107.93 92.47 107.95C92.43 107.93 92.4 107.9 92.36 107.87C92.33 107.85 92.36 107.8 92.39 107.81C92.53 107.81 92.68 107.82 92.82 107.83C92.47 107.68 92.14 107.51 91.88 107.23C91.85 107.2 91.88 107.15 91.92 107.16C92.54 107.25 93.15 107.4 93.75 107.57C94.05 107.66 94.35 107.75 94.65 107.85C94.94 107.95 95.32 108.1 95.58 107.89C95.34 107.91 95.1 107.88 94.87 107.79C94.85 107.79 94.84 107.75 94.85 107.74C94.91 107.64 94.97 107.54 95.02 107.45C94.93 107.45 94.84 107.43 94.74 107.4C94.72 107.4 94.71 107.38 94.71 107.36C94.75 107.23 94.78 107.1 94.81 106.97C94.62 107.16 94.33 107.22 94.07 107.14C94.05 107.14 94.04 107.12 94.04 107.1C94.06 106.89 94.08 106.68 94.1 106.47C93.88 106.59 93.62 106.62 93.38 106.54C93.36 106.54 93.35 106.51 93.36 106.49C93.43 106.35 93.49 106.21 93.53 106.06C93.33 106.07 93.14 106.05 92.96 105.97C92.94 105.97 92.93 105.94 92.94 105.92C93 105.8 93.05 105.67 93.11 105.55C92.93 105.59 92.74 105.57 92.56 105.52C92.54 105.52 92.52 105.49 92.54 105.47C92.62 105.35 92.69 105.23 92.77 105.11C92.53 105.11 92.29 105.08 92.07 104.98C92.05 104.98 92.04 104.95 92.05 104.93C92.12 104.81 92.19 104.69 92.27 104.57C92.23 104.55 92.2 104.52 92.2 104.47C92.2 104.43 92.2 104.4 92.23 104.37C92.03 104.37 91.84 104.31 91.69 104.18C91.67 104.16 91.67 104.13 91.69 104.12C91.81 104.05 91.93 103.98 92.05 103.92C91.96 103.91 91.87 103.9 91.78 103.88C91.75 103.88 91.73 103.84 91.76 103.82C91.79 103.79 91.81 103.77 91.84 103.74C91.61 103.76 91.39 103.71 91.19 103.59C91.17 103.58 91.17 103.55 91.19 103.53C91.33 103.42 91.48 103.33 91.64 103.25C91.63 103.25 91.62 103.25 91.61 103.24C91.58 103.24 91.58 103.19 91.6 103.18C91.64 103.14 91.68 103.11 91.72 103.06C91.57 103.04 91.43 103.01 91.28 102.97C91.19 102.95 91.1 102.92 91.01 102.89C90.95 102.87 90.87 102.86 90.82 102.81C90.76 102.75 90.78 102.68 90.82 102.63C90.87 102.57 90.96 102.53 91.03 102.49C91.11 102.44 91.19 102.39 91.27 102.34C91.03 102.33 90.81 102.24 90.62 102.09C90.6 102.07 90.6 102.04 90.63 102.03C90.71 102.01 90.79 101.99 90.87 101.97C90.72 101.9 90.59 101.8 90.48 101.68C90.46 101.66 90.47 101.62 90.5 101.62C90.64 101.62 90.78 101.62 90.92 101.61C90.74 101.51 90.59 101.38 90.46 101.22C90.44 101.2 90.46 101.16 90.48 101.17C90.55 101.17 90.62 101.18 90.69 101.19C90.49 101.05 90.31 100.88 90.26 100.63C90.26 100.61 90.27 100.59 90.29 100.59C90.47 100.59 90.65 100.61 90.82 100.67C90.65 100.52 90.48 100.36 90.31 100.21C90.14 100.05 89.98 99.8803 89.96 99.6403C89.96 99.6203 89.98 99.6003 90 99.6003C90.25 99.6203 90.49 99.6803 90.71 99.7803C90.55 99.6503 90.41 99.5003 90.27 99.3503C90.12 99.1903 89.88 98.9803 89.94 98.7303C89.94 98.7103 89.97 98.7003 89.99 98.7103C90.25 98.8703 90.5 99.0303 90.76 99.1803C90.5 98.9203 90.24 98.6703 89.99 98.4103C89.75 98.1603 89.52 97.8803 89.52 97.5203V97.4903Z" fill="url(#paint12_linear_277_367)"/>
<path d="M103.55 108.55C103.33 108.63 103.11 108.71 102.89 108.77C102.94 108.77 102.99 108.76 103.03 108.75C103.24 108.72 103.49 108.65 103.71 108.69C103.89 108.73 104.04 108.85 104.18 108.96C104.29 109.04 104.39 109.12 104.5 109.21C104.92 109.34 105.3 109.58 105.65 109.83C106.12 110.16 106.58 110.52 107.06 110.83C107.55 111.16 108.06 111.46 108.59 111.71C109.14 111.97 109.76 112.27 110.38 112.19C111 112.12 111.48 111.66 111.87 111.21C111.88 111.2 111.9 111.21 111.91 111.21C111.95 111.16 111.99 111.11 112.03 111.06C112.05 111.04 112.08 111.05 112.08 111.07C112.14 111.3 112.08 111.53 111.93 111.71C112.33 111.55 112.65 111.23 112.83 110.83C112.83 110.81 112.86 110.8 112.88 110.81C113.29 111.04 112.78 111.58 112.6 111.77C112.26 112.13 111.86 112.43 111.42 112.65C111.93 112.67 112.45 112.6 112.94 112.43C112.95 112.43 112.97 112.43 112.98 112.45C113.12 112.73 112.43 112.77 112.3 112.79C111.86 112.86 111.41 112.87 110.97 112.86C110.28 112.83 109.58 112.72 108.92 112.51C109.02 112.57 109.13 112.63 109.23 112.68C109.26 112.7 109.23 112.74 109.21 112.75C108.86 112.77 108.53 112.71 108.2 112.59C108.27 112.67 108.34 112.76 108.42 112.84C108.44 112.87 108.41 112.9 108.38 112.9C108.06 112.87 107.76 112.75 107.51 112.55C107.58 112.7 107.67 112.84 107.79 112.96C107.81 112.98 107.79 113.02 107.77 113.03C107.56 113.05 107.36 113.02 107.17 112.93C107.08 112.89 107.01 112.81 106.93 112.76C106.77 112.68 106.6 112.92 106.49 113.02C106.47 113.03 106.45 113.03 106.43 113.02C106.3 112.94 106.22 112.82 106.17 112.68C105.92 112.86 105.62 112.93 105.32 112.88C105.3 112.88 105.28 112.85 105.29 112.83C105.29 112.8 105.29 112.78 105.31 112.76C104.97 112.84 104.62 112.85 104.28 112.78C104.14 112.75 103.89 112.72 103.79 112.61C103.77 112.59 103.76 112.56 103.75 112.53C103.48 112.56 103.2 112.56 102.95 112.47C102.83 112.43 102.68 112.34 102.69 112.21C102.54 112.21 102.38 112.21 102.23 112.21C102.21 112.21 102.19 112.19 102.19 112.17C102.18 112.1 102.18 112.03 102.19 111.96C101.86 112.14 101.46 111.85 101.51 111.48C101.33 111.57 101.11 111.61 100.93 111.48C100.8 111.39 100.73 111.25 100.75 111.1C100.65 111.15 100.55 111.19 100.44 111.15C100.37 111.12 100.32 111.07 100.3 111.01C100.27 111.04 100.24 111.06 100.21 111.09C100.18 111.12 100.15 111.09 100.14 111.06C100.7 109.56 102.13 108.84 103.59 108.54L103.55 108.55Z" fill="url(#paint13_linear_277_367)"/>
<defs>
<linearGradient id="paint0_linear_277_367" x1="600" y1="422.69" x2="600" y2="2.69" gradientUnits="userSpaceOnUse">
<stop stop-color="#F7EBA1"/>
<stop offset="1" stop-color="#7EBE9C"/>
</linearGradient>
<linearGradient id="paint1_linear_277_367" x1="392.76" y1="424.76" x2="392.76" y2="39.45" gradientUnits="userSpaceOnUse">
<stop offset="0.19" stop-color="#FCCA59"/>
<stop offset="0.9" stop-color="#EF8227"/>
</linearGradient>
<linearGradient id="paint2_linear_277_367" x1="218.64" y1="369.36" x2="218.64" y2="221.61" gradientUnits="userSpaceOnUse">
<stop offset="0.17" stop-color="#EF8227"/>
<stop offset="0.87" stop-color="#CD4424"/>
</linearGradient>
<linearGradient id="paint3_linear_277_367" x1="300.14" y1="423.9" x2="300.14" y2="256.29" gradientUnits="userSpaceOnUse">
<stop offset="0.39" stop-color="#CD4424"/>
<stop offset="0.85" stop-color="#993118"/>
</linearGradient>
<linearGradient id="paint4_linear_277_367" x1="310.68" y1="367.03" x2="310.68" y2="247.81" gradientUnits="userSpaceOnUse">
<stop offset="0.07" stop-color="#652013"/>
<stop offset="0.73" stop-color="#411409"/>
</linearGradient>
<linearGradient id="paint5_linear_277_367" x1="782.07" y1="-61" x2="782.07" y2="578.37" gradientUnits="userSpaceOnUse">
<stop stop-color="#0E0502"/>
<stop offset="0.05" stop-color="#130602"/>
<stop offset="0.1" stop-color="#140602"/>
<stop offset="0.15" stop-color="#160703"/>
<stop offset="0.2" stop-color="#170703"/>
<stop offset="0.25" stop-color="#190804"/>
<stop offset="0.3" stop-color="#1B0804"/>
<stop offset="0.35" stop-color="#1B0804"/>
<stop offset="0.4" stop-color="#1C0804"/>
<stop offset="0.45" stop-color="#1D0804"/>
<stop offset="0.5" stop-color="#1E0904"/>
<stop offset="0.55" stop-color="#200A04"/>
<stop offset="0.6" stop-color="#210A04"/>
<stop offset="0.65" stop-color="#230B05"/>
<stop offset="0.7" stop-color="#250B05"/>
<stop offset="0.75" stop-color="#270C05"/>
<stop offset="0.8" stop-color="#280C05"/>
<stop offset="0.85" stop-color="#2A0C05"/>
<stop offset="0.9" stop-color="#2C0D05"/>
<stop offset="0.95" stop-color="#2E0E05"/>
<stop offset="1" stop-color="#300F06"/>
</linearGradient>
<radialGradient id="paint6_radial_277_367" cx="0" cy="0" r="1" gradientUnits="userSpaceOnUse" gradientTransform="translate(176.003 86.1932) scale(52.5204 52.5204)">
<stop stop-color="#F9E99F"/>
<stop offset="0.86" stop-color="#F9E99F" stop-opacity="0.83"/>
<stop offset="1" stop-color="#F9E99F" stop-opacity="0.8"/>
</radialGradient>
<linearGradient id="paint7_linear_277_367" x1="43.613" y1="72.5014" x2="80.8027" y2="79.2667" gradientUnits="userSpaceOnUse">
<stop stop-color="#0E0502"/>
<stop offset="0.05" stop-color="#130602"/>
<stop offset="0.1" stop-color="#140602"/>
<stop offset="0.15" stop-color="#160703"/>
<stop offset="0.2" stop-color="#170703"/>
<stop offset="0.25" stop-color="#190804"/>
<stop offset="0.3" stop-color="#1B0804"/>
<stop offset="0.35" stop-color="#1B0804"/>
<stop offset="0.4" stop-color="#1C0804"/>
<stop offset="0.45" stop-color="#1D0804"/>
<stop offset="0.5" stop-color="#1E0904"/>
<stop offset="0.55" stop-color="#200A04"/>
<stop offset="0.6" stop-color="#210A04"/>
<stop offset="0.65" stop-color="#230B05"/>
<stop offset="0.7" stop-color="#250B05"/>
<stop offset="0.75" stop-color="#270C05"/>
<stop offset="0.8" stop-color="#280C05"/>
<stop offset="0.85" stop-color="#2A0C05"/>
<stop offset="0.9" stop-color="#2C0D05"/>
<stop offset="0.95" stop-color="#2E0E05"/>
<stop offset="1" stop-color="#300F06"/>
</linearGradient>
<linearGradient id="paint8_linear_277_367" x1="79.0263" y1="79.9802" x2="93.1348" y2="82.5467" gradientUnits="userSpaceOnUse">
<stop stop-color="#0E0502"/>
<stop offset="0.05" stop-color="#130602"/>
<stop offset="0.1" stop-color="#140602"/>
<stop offset="0.15" stop-color="#160703"/>
<stop offset="0.2" stop-color="#170703"/>
<stop offset="0.25" stop-color="#190804"/>
<stop offset="0.3" stop-color="#1B0804"/>
<stop offset="0.35" stop-color="#1B0804"/>
<stop offset="0.4" stop-color="#1C0804"/>
<stop offset="0.45" stop-color="#1D0804"/>
<stop offset="0.5" stop-color="#1E0904"/>
<stop offset="0.55" stop-color="#200A04"/>
<stop offset="0.6" stop-color="#210A04"/>
<stop offset="0.65" stop-color="#230B05"/>
<stop offset="0.7" stop-color="#250B05"/>
<stop offset="0.75" stop-color="#270C05"/>
<stop offset="0.8" stop-color="#280C05"/>
<stop offset="0.85" stop-color="#2A0C05"/>
<stop offset="0.9" stop-color="#2C0D05"/>
<stop offset="0.95" stop-color="#2E0E05"/>
<stop offset="1" stop-color="#300F06"/>
</linearGradient>
<linearGradient id="paint9_linear_277_367" x1="75.586" y1="83.4708" x2="79.2263" y2="84.133" gradientUnits="userSpaceOnUse">
<stop stop-color="#0E0502"/>
<stop offset="0.05" stop-color="#130602"/>
<stop offset="0.1" stop-color="#140602"/>
<stop offset="0.15" stop-color="#160703"/>
<stop offset="0.2" stop-color="#170703"/>
<stop offset="0.25" stop-color="#190804"/>
<stop offset="0.3" stop-color="#1B0804"/>
<stop offset="0.35" stop-color="#1B0804"/>
<stop offset="0.4" stop-color="#1C0804"/>
<stop offset="0.45" stop-color="#1D0804"/>
<stop offset="0.5" stop-color="#1E0904"/>
<stop offset="0.55" stop-color="#200A04"/>
<stop offset="0.6" stop-color="#210A04"/>
<stop offset="0.65" stop-color="#230B05"/>
<stop offset="0.7" stop-color="#250B05"/>
<stop offset="0.75" stop-color="#270C05"/>
<stop offset="0.8" stop-color="#280C05"/>
<stop offset="0.85" stop-color="#2A0C05"/>
<stop offset="0.9" stop-color="#2C0D05"/>
<stop offset="0.95" stop-color="#2E0E05"/>
<stop offset="1" stop-color="#300F06"/>
</linearGradient>
<linearGradient id="paint10_linear_277_367" x1="123.06" y1="90.2203" x2="138.33" y2="90.2203" gradientUnits="userSpaceOnUse">
<stop stop-color="#0E0502"/>
<stop offset="0.05" stop-color="#130602"/>
<stop offset="0.1" stop-color="#140602"/>
<stop offset="0.15" stop-color="#160703"/>
<stop offset="0.2" stop-color="#170703"/>
<stop offset="0.25" stop-color="#190804"/>
<stop offset="0.3" stop-color="#1B0804"/>
<stop offset="0.35" stop-color="#1B0804"/>
<stop offset="0.4" stop-color="#1C0804"/>
<stop offset="0.45" stop-color="#1D0804"/>
<stop offset="0.5" stop-color="#1E0904"/>
<stop offset="0.55" stop-color="#200A04"/>
<stop offset="0.6" stop-color="#210A04"/>
<stop offset="0.65" stop-color="#230B05"/>
<stop offset="0.7" stop-color="#250B05"/>
<stop offset="0.75" stop-color="#270C05"/>
<stop offset="0.8" stop-color="#280C05"/>
<stop offset="0.85" stop-color="#2A0C05"/>
<stop offset="0.9" stop-color="#2C0D05"/>
<stop offset="0.95" stop-color="#2E0E05"/>
<stop offset="1" stop-color="#300F06"/>
</linearGradient>
<linearGradient id="paint11_linear_277_367" x1="137.07" y1="93.1603" x2="141.91" y2="93.1603" gradientUnits="userSpaceOnUse">
<stop stop-color="#0E0502"/>
<stop offset="0.05" stop-color="#130602"/>
<stop offset="0.1" stop-color="#140602"/>
<stop offset="0.15" stop-color="#160703"/>
<stop offset="0.2" stop-color="#170703"/>
<stop offset="0.25" stop-color="#190804"/>
<stop offset="0.3" stop-color="#1B0804"/>
<stop offset="0.35" stop-color="#1B0804"/>
<stop offset="0.4" stop-color="#1C0804"/>
<stop offset="0.45" stop-color="#1D0804"/>
<stop offset="0.5" stop-color="#1E0904"/>
<stop offset="0.55" stop-color="#200A04"/>
<stop offset="0.6" stop-color="#210A04"/>
<stop offset="0.65" stop-color="#230B05"/>
<stop offset="0.7" stop-color="#250B05"/>
<stop offset="0.75" stop-color="#270C05"/>
<stop offset="0.8" stop-color="#280C05"/>
<stop offset="0.85" stop-color="#2A0C05"/>
<stop offset="0.9" stop-color="#2C0D05"/>
<stop offset="0.95" stop-color="#2E0E05"/>
<stop offset="1" stop-color="#300F06"/>
</linearGradient>
<linearGradient id="paint12_linear_277_367" x1="89.6527" y1="104.434" x2="104.723" y2="103.67" gradientUnits="userSpaceOnUse">
<stop stop-color="#0E0502"/>
<stop offset="0.05" stop-color="#130602"/>
<stop offset="0.1" stop-color="#140602"/>
<stop offset="0.15" stop-color="#160703"/>
<stop offset="0.2" stop-color="#170703"/>
<stop offset="0.25" stop-color="#190804"/>
<stop offset="0.3" stop-color="#1B0804"/>
<stop offset="0.35" stop-color="#1B0804"/>
<stop offset="0.4" stop-color="#1C0804"/>
<stop offset="0.45" stop-color="#1D0804"/>
<stop offset="0.5" stop-color="#1E0904"/>
<stop offset="0.55" stop-color="#200A04"/>
<stop offset="0.6" stop-color="#210A04"/>
<stop offset="0.65" stop-color="#230B05"/>
<stop offset="0.7" stop-color="#250B05"/>
<stop offset="0.75" stop-color="#270C05"/>
<stop offset="0.8" stop-color="#280C05"/>
<stop offset="0.85" stop-color="#2A0C05"/>
<stop offset="0.9" stop-color="#2C0D05"/>
<stop offset="0.95" stop-color="#2E0E05"/>
<stop offset="1" stop-color="#300F06"/>
</linearGradient>
<linearGradient id="paint13_linear_277_367" x1="100.103" y1="111.093" x2="112.997" y2="110.44" gradientUnits="userSpaceOnUse">
<stop stop-color="#0E0502"/>
<stop offset="0.05" stop-color="#130602"/>
<stop offset="0.1" stop-color="#140602"/>
<stop offset="0.15" stop-color="#160703"/>
<stop offset="0.2" stop-color="#170703"/>
<stop offset="0.25" stop-color="#190804"/>
<stop offset="0.3" stop-color="#1B0804"/>
<stop offset="0.35" stop-color="#1B0804"/>
<stop offset="0.4" stop-color="#1C0804"/>
<stop offset="0.45" stop-color="#1D0804"/>
<stop offset="0.5" stop-color="#1E0904"/>
<stop offset="0.55" stop-color="#200A04"/>
<stop offset="0.6" stop-color="#210A04"/>
<stop offset="0.65" stop-color="#230B05"/>
<stop offset="0.7" stop-color="#250B05"/>
<stop offset="0.75" stop-color="#270C05"/>
<stop offset="0.8" stop-color="#280C05"/>
<stop offset="0.85" stop-color="#2A0C05"/>
<stop offset="0.9" stop-color="#2C0D05"/>
<stop offset="0.95" stop-color="#2E0E05"/>
<stop offset="1" stop-color="#300F06"/>
</linearGradient>
</defs>
</svg>
