<svg width="1200" height="628" viewBox="0 0 1200 628" fill="none" xmlns="http://www.w3.org/2000/svg">
<g clip-path="url(#clip0_52_4)">
<path d="M1200 0H0V628H1200V0Z" fill="url(#paint0_linear_52_4)"/>
<path opacity="0.2" d="M0 8.00003V80.9C0 80.9 185.6 68.7 117.8 55.1C106.8 52.9 57.1 51.4 43.9 44.1C28.1 35.3 50.6 30.1 80.5 29.5C153.7 28 497.6 32.4 446.4 14.9C362.1 -14 0 8.00003 0 8.00003Z" fill="#F9E99F"/>
<path opacity="0.2" d="M0 229.1V307.5C0 307.5 673.2 314.9 679 273.9C682.1 252.4 149.2 295.9 145.7 268.3C145.7 268.3 144.9 253.4 215.1 253.4C285.3 253.4 423.3 245.6 388 229C352.7 212.4 0 229.1 0 229.1Z" fill="#F9E99F"/>
<path opacity="0.2" d="M1200 2.29997C1200 2.29997 747.2 -10.2 820.7 23.4C894.2 57 1148.8 23.3 1109.3 54C1069.8 84.7 68 64.5 134.6 100.8C199.5 136 623.4 89.4 799 127.1C908.3 150.5 682.8 165.6 642.4 169.5C630.2 170.7 538.5 184.1 684.8 194.4C825.4 204.2 1199.9 200.3 1199.9 200.3V150.5C1199.9 150.5 880.9 172.4 863.3 149C849 129.9 894 121.2 990.6 115.3C1087.2 109.5 1199.9 105 1199.9 105V2.29997H1200Z" fill="#F9E99F"/>
<path d="M-459.9 494.4C-459.9 494.4 -361.5 452.9 -311.4 452.9C-261.3 452.9 -218.8 456 -215 438.4C-211.1 420.8 -205.4 408.3 -147.5 402.6C-89.6 396.9 -47.6 282.6 -41.8 269.6C-36 256.6 -36 232.3 -21.5 231.2C-7 230.1 -13.8 149 -0.299988 149.4C13.2 149.8 49.9 144.1 52.7 166.4C55.6 188.7 54.6 214.6 65.2 218.8C75.8 223 79.7 228.7 79.7 215.2V118.8C79.7 118.8 82.6 105.3 105.7 106.4C128.8 107.5 186.7 96 191.5 123.5C196.3 151 188.6 158.8 203.1 159.8C217.6 160.8 241.7 156.2 244.6 176.4C247.5 196.6 243.6 273.4 255.2 277.5C266.8 281.6 271.6 272.3 268.7 254.2C265.8 236.1 269.5 212.2 269.5 212.2C269.5 212.2 263.9 194.1 295.7 194.6C327.5 195.1 321.7 219 322.7 227.8C323.2 232.7 323.2 253 323 270.4C322.8 294.4 325.3 318.4 331 341.6C336.2 363 343.9 386.6 354.9 399.6C381.1 430.8 441.1 458.9 521.6 469.8C565.7 475.8 581.4 492.3 603.6 492.8C625.8 493.3 711.2 525 726.5 561.6C742 598 -257.4 571.1 -459.9 494.4Z" fill="url(#paint1_linear_52_4)"/>
<path d="M625.7 489.7C625.7 489.7 701.6 413.2 757.9 412C814.2 410.8 867 409.5 870.5 376.3C874 343.1 880.5 333.7 886.9 333.7C893.3 333.7 940.3 338.7 942 338.1C943.7 337.5 960.8 340 960.2 313.7C959.6 287.4 973.7 219.8 973.7 219.8C973.7 219.8 975.2 199.3 984.4 199.3C993.6 199.3 1002.9 198.8 1002.9 226.1C1002.9 253.4 997.6 300.3 1002.9 300.8C1008.2 301.3 1021.4 308.3 1020.1 285.8C1018.8 263.3 1020.2 163.7 1020.2 163.7C1020.2 163.7 1014.8 131.8 1022.7 128.9C1030.6 126.1 1025.8 106.4 1031.5 105H1051.3L1115.1 108.3C1115.1 108.3 1132.3 104.1 1133.6 126.1C1134.9 148.2 1133.6 240.7 1133.6 240.7C1133.6 240.7 1128.8 259.5 1141.5 259C1154.2 258.5 1158.7 247.7 1159.5 225.2C1160.3 202.7 1159.9 180.6 1162.1 179.2C1164.3 177.8 1174.4 178.3 1174.4 174C1174.4 169.7 1174 136.9 1183.6 136.9C1193.2 136.9 1203.8 136.9 1203 167.9C1202.2 198.9 1206.1 307.4 1206.1 307.4C1206.1 307.4 1205.7 325.3 1223.3 323.4C1240.9 321.5 1256.3 325.2 1255.9 308.8C1255.5 292.4 1256.7 289.5 1256.7 289.5C1256.7 289.5 1254.5 268.8 1270.8 268.8C1287.1 268.8 1300.7 263.6 1300.7 296C1300.7 328.4 1304.7 351 1304.7 351C1304.7 351 1300.3 474.6 1323.1 471.3C1346 468 1497.9 505.6 1497.9 505.6L1482 582L650.6 574.5L625.7 489.7Z" fill="url(#paint2_linear_52_4)"/>
<path d="M148.8 504C147.2 468.4 145.2 432.8 143.4 397.2C129 402.4 68.4 395.1 68.4 395.1C68.4 395.1 67.5 357.9 56.3 354.2C45.1 350.5 47.9 280.9 47.9 280.9C47.9 280.9 47.9 265.3 34.8 261.7C21.7 258.1 32 214.8 19.9 214.8C12.4 214.8 3 213.9 -3 213.2C-6.3 212.8 -9.09999 217.2 -9.09999 222.7V324.2C-9.09999 324.2 -50.2 329 -54.8 357.8C-59.5 386.6 -48.3 385.4 -68.8 386.6C-89.3 387.8 -134.1 422.6 -143.4 440.7C-147.5 448.7 -8.39998 508.8 148.3 573.4C148.8 550.5 149.4 527.4 148.8 504Z" fill="#DA6524"/>
<path d="M1003.3 431.9C1003.3 431.9 1044.4 417.1 1086.3 414C1128.2 410.9 1123.2 369.8 1123.2 369.8C1123.2 369.8 1122.4 362.4 1133.9 361.4C1145.4 360.4 1142.3 359.2 1142.3 359.2L1142.7 326.3C1142.7 326.3 1140.1 319.6 1146 319C1151.9 318.4 1160.3 317.1 1160.9 319C1161.5 320.9 1165.1 354.8 1165.1 354.8C1165.1 354.8 1169.9 360.3 1174.3 360.6C1178.6 360.9 1174.3 296.5 1174.3 296.5C1174.3 296.5 1175.4 288.1 1181 288.1C1186.6 288.1 1193.6 284 1193.6 284V263.5C1193.6 263.5 1191.7 256.6 1202.9 254.8C1214.1 253 1225.3 247.4 1225.3 247.4C1225.3 247.4 1238.4 244.3 1238.8 254.8C1239.2 265.3 1243.5 343.8 1243.5 343.8C1243.5 343.8 1257.5 343.8 1258 351C1258.5 358.2 1264.5 409.8 1264.5 409.8C1264.5 409.8 1268.7 418.8 1279 418.8C1289.3 418.8 1322.4 410.9 1339.7 425.2C1357 439.5 1359.8 442.3 1387.3 443.4C1414.8 444.4 1426.5 446.7 1430.2 450.6C1430.6 451 1431.6 451.3 1433.1 451.5C1431.3 466.6 1429.3 481.8 1427.7 497C1427.1 507 1427.7 516.8 1428.2 526.6C1229.8 561.4 1003.3 599.4 1003.3 599.4V431.9Z" fill="#DA6524"/>
<path d="M600 475.9C680.578 475.9 745.9 410.578 745.9 330C745.9 249.422 680.578 184.1 600 184.1C519.422 184.1 454.1 249.422 454.1 330C454.1 410.578 519.422 475.9 600 475.9Z" fill="url(#paint3_radial_52_4)"/>
<path opacity="0.35" d="M600 200.3C671.6 200.3 729.7 258.4 729.7 330C729.7 401.6 671.6 459.7 600 459.7C528.4 459.7 470.3 401.6 470.3 330C470.3 258.4 528.4 200.3 600 200.3ZM440 330C440 418.4 511.6 490 600 490C688.4 490 760 418.4 760 330C760 241.6 688.4 170 600 170C511.6 170 440 241.6 440 330Z" fill="#F9E99F"/>
<path d="M504.9 410.1C506.6 409.6 507.1 408.7 507.6 408.1C508.3 407.1 508.6 406.1 508.8 405C510.7 403.9 512.4 402.4 513.3 400.7C512.9 400.7 512.4 400.5 512.1 400.5C513 399.8 514.4 399.3 515.2 398.4C514.4 398.6 513.5 398.8 512.7 399C512.7 399 512.8 398.9 512.9 398.9C514.4 397.4 516.2 396.1 517.8 394.8C520.3 392.7 523.7 390.6 526.7 389.5C528.4 388.9 529.5 388.3 530.8 387.3C530.9 384.9 532.9 383.3 534.5 381.6C537 378.9 539.6 378.3 542.3 375.8C543.5 373.8 545.9 371.2 547.6 369.6C545.3 368.2 543.7 361.8 543.5 361.3C543.3 361.8 540.8 366.5 540.5 368.6L540.3 368.9C536.5 374.4 534.4 376.1 530.6 377.9C528.9 378.8 527.4 379.3 525.9 380.8C524.1 382.7 523.2 384.1 523.2 384.2C523.1 384.3 523.2 384.2 522.9 384.4C518.4 388.1 512.7 391.1 508.1 394.7C506.5 396 503.1 398 501.8 399.6C497.4 402.1 496.3 404.4 492.9 407.6C493.1 407.8 493.3 407.9 493.5 407.9C494.3 409.4 498.4 410.3 499.9 410.4C500.7 410.4 501.5 410.4 502.1 410.3C502.9 410.3 503.7 410.3 504.7 410C504.8 410.2 504.8 410.1 504.9 410.1ZM724.6 369.6C719.1 369.8 714.7 369.8 711.9 369.3C704.6 367.9 697.5 364.3 691.2 361.2C688.2 359.7 682.7 355.8 677.5 354.3C674.8 353.6 672.3 354 671.1 354.4C670.9 354.5 670.6 354.6 670.3 354.7C668.4 355.4 665.1 356.7 663.1 357.5C663 357.5 663 357.6 662.9 357.6C661.6 358.2 660.5 358.6 660.4 358.5C659.8 358.7 659.1 358.9 658.5 359.1C651.4 361.2 640.2 361.5 633 360.4C623.4 358.9 614 352.3 609.9 346.6L615.9 355C612.8 356.5 609.9 357.4 607.8 358.9C605.9 360.2 604 361.9 602.1 363.6C595.7 369.1 590.8 372.2 586.2 373.4C578.5 375.4 577.1 375.9 573.2 375.1C573.2 375.1 577 367.5 576.7 366C575.3 370 572.1 375.5 566.7 375.5C566 375.5 563.3 376 564 374.6C560.4 380.3 554.1 379.8 549.4 382.3C545.7 384.2 542.9 386 540.3 389.2C538.8 391.1 537.6 391.8 535.5 392.8C532.5 394.2 529.4 396.6 527.1 398.9C525.6 400.4 524 401.8 522.6 403.4C522.5 403.5 522.5 403.5 522.4 403.6C522.3 403.7 522.1 403.9 522 404.1C522.9 403.8 523.9 403.7 524.7 403C524.2 403.7 523.5 404.5 522.6 405C523.5 405.4 524.6 405.2 525.5 405C524.8 405.7 523.9 406.3 523.1 406.9C523.5 407 523.9 407.2 524.2 407.2C523.4 409 520.8 410.3 518.5 411.6C518.4 412.1 518.3 412.6 518.1 413.1C517.9 413.9 517.4 414.4 516.5 414.9C516.5 414.9 515.5 415.5 515.4 415.5C514.4 415.9 513.6 416 512.8 416.1C512.2 416.2 511.4 416.3 510.6 416.4C509.1 416.5 504.2 415.5 503.2 414.1C503 414 503.2 414.1 503 414C505.7 411 509.3 407 513.2 405.1C514.4 403.3 515.8 401.5 517.3 400.1C521.5 396.1 526.9 392.6 531.1 388.5C531.4 388.2 531.3 388.4 531.4 388.2C531.3 388.1 532.1 386.6 533.7 384.6C535 382.9 536.4 382.3 538.1 381.3C541.7 379.1 543.9 375.9 546.5 372.7C547.9 371 549.2 369.1 550.7 367.4C551 367 551.4 366.7 551.7 366.4C553.1 365 556.1 361.8 558.8 360.3C555.3 361.6 551.4 365 548.9 368.3C545.1 367.3 543.8 358.6 544.6 355.9C541.9 356.3 538.9 350 534.3 349.9C532.6 349.9 526.8 348.2 525.1 352.9C524.3 351.8 525.1 352.9 523.7 352.4C525.5 354.1 524.8 354.6 525.3 356.4C525.1 360.9 521.9 362.5 520.6 364.9C519.3 367.3 519.9 371.5 518.7 373.9C517.9 375.5 517.5 374.9 517.1 377.8C516.8 380 516.9 380.9 515.5 381.3C513.8 381.8 514.5 380.3 513.3 378.8C512.8 380.8 512.5 382.3 511.5 382.2C509.7 383 507.6 383.5 507.3 381.8C507.1 380.6 506 377.3 506 375.7C507.4 374.5 510.2 376.4 511.8 377C511.5 376.7 511 376.4 510.4 376L511.6 376.4C511.8 377.6 513.2 378.3 513.5 377C513.6 376.8 513.5 376.5 513.4 376.3L513.1 375.8C512.7 375.2 511.7 375.4 511.6 376.1C511.5 376.6 511.5 376.6 511.6 376.1C510 375 507.2 373.5 506.1 374.1C506.1 372.7 506 369 505.7 368.3C504.9 366.4 503.8 364.2 503.7 361.2C503.7 360.2 503.7 360.3 503.6 359.4C503.1 358.8 502.6 358 502.1 357.3C501.7 358.4 501.6 359.6 501.7 360.3C500.7 359.5 499.9 357.4 499.8 355.6C499.5 354.5 499.7 352.7 500.1 351.8C499.3 352.7 498.8 352.8 498.3 353.9C498.4 350.6 498.9 349.9 500.8 347.4C500.7 346.8 500.9 345.8 501.2 344.7C500.6 341.5 500.9 337.8 501.5 335.3C501.3 336.6 501.9 338.1 502.5 339.1C503 337.5 502.2 335.6 503.2 334.2C503.1 332.7 503.1 331.1 503.5 329.7C503.4 330.8 503.8 332 504.5 332.6C504.5 330.3 504.1 326 505.7 324.3C505.9 324.8 506.1 325.5 506.3 326C505.8 321.6 508.8 317.1 511.7 314.1C514.4 311.2 517.2 308.4 520.4 305.2C519 307.1 518.5 309.1 518.4 311.2C518.5 311 518.6 310.8 518.7 310.7C519.8 308.5 520.6 307.2 522.5 305.6C524.3 304.1 528.8 302 528 302.7C525.4 304.3 525.8 305.8 525.2 308C526.4 306.3 528.4 305.4 530.3 305.2C529 306.6 528.4 308.8 527.5 310.2C528.1 310 528.6 309.7 529.1 309.4C529.9 308.3 530.8 307.3 532.1 306.4C531.6 307 531.1 307.7 530.7 308.4C532.3 307 532.9 306.2 534.5 305.3C536.5 304.2 537.7 304 538.3 303.6L536.3 305.9C536.3 306 537.4 304.4 536.2 306.1C535.9 307.4 535.5 308.6 535.2 309.9C535.8 309 536.6 308.3 537.5 307.9C537.1 309.1 536 310.3 535.8 311.5C536 311.3 536.3 311.1 536.5 310.9C537.8 308.7 541.2 306.6 542.1 306.2C544.2 305.3 547 304 549.3 303.7C548.8 304.2 548.2 304.8 547.6 305.5C547.7 305.5 547.7 305.5 547.8 305.5C547.7 305.5 547.6 305.6 547.6 305.6C546.5 306.8 545.3 308.2 544.4 309.7C547.1 307.3 553.2 306.5 555.8 307.8C554.7 308.5 553.4 310 553.1 311.4C555.3 311.2 558.3 309.9 559.4 309C558.6 309.7 558 310.6 558.2 311.7C559.6 312.1 560.9 310.9 562.1 310.3C561.3 311.2 560.4 312.2 560.8 313.2C561.7 313 562.6 312.6 563.4 312.4C563.1 312.8 563 313.6 562.7 314C564 314.5 565.9 313.9 567.3 313.5C565.9 315.4 564.9 317.7 564.2 320C566 318.4 568.3 317.4 570.9 317.7C573.5 316.2 576.4 314.2 577.7 311.7C577.8 311.5 578 311.6 577.8 311.5C576.5 310.9 576.7 308.6 577.3 308.1C578.5 307.3 579.9 306.9 581.6 304.6L582.4 305C584.2 303.7 588.6 299.8 590.6 299C591.6 298.6 592.1 298.4 592.9 298.2C592.9 298.2 594.1 297.7 594.4 296.5C594.7 294.9 596.6 292 597.8 290.7C600 288.6 600.4 287.9 600.4 287.9C600.4 287.9 600.9 285.2 605.4 284.7C604.7 285.6 604.3 286.4 604 287.4C605.2 285.7 605.6 284.9 606.5 284.4C608.2 284 610.9 284.6 611.9 285.2C612.7 285.4 613.1 285.7 613.7 285.7L614.4 285.6L614.5 285.7C614.4 283.5 612.8 279.6 613 278.3C612.6 279.6 613.2 282.8 613.3 283.1C613 283.1 612.2 282.7 611.8 282.7C610.1 282.4 605.3 282.2 604.3 280.4C603.4 278.7 605.9 275.5 611.1 274.4C615.8 273.4 618 274.2 619.8 273.9C619.9 273.9 622 273.9 622.1 273.9C622 273.9 622.2 273.9 622.1 273.9C621.3 273.3 616.2 273.5 613.5 273.7C613.5 273.7 615.4 268.5 616.5 268.7C616.6 268.6 616.7 268.6 616.9 268.6C620.5 268.8 617.2 269.9 617.8 269.9C619.1 270.1 620 268.6 621.3 268.8C624.6 269.2 624.6 271.2 625 273.2C626 273.4 630.9 274.5 631.3 274.9C635 276.9 635.2 280.2 624.5 283.4C624.7 283 625.9 277.8 623.8 283.2C623 285.3 622 286.1 622.1 287.1C622.1 287.1 621.8 287.1 622.6 287.5C622.1 287.7 621.6 287.8 621.1 287.9C621.8 287.9 622.5 287.9 623.1 287.9C623.1 287.9 623.1 287.9 623.2 288C624.8 287.5 627.1 288.2 633.1 287C633.9 286.8 638.6 287.4 639.7 286.6C639.8 286.4 637.6 286.4 637.6 286.4C637.6 286.4 638.1 283.9 640.9 280.5C642.5 278.6 645.4 275.2 647.1 272.9C647.3 272.6 646.6 272.5 646.8 272.2C647.7 271 648.5 270.7 647.8 268.2C647.6 267.5 646.8 266.6 646.6 265.8C646.2 265.1 646.6 264.3 647.9 263.6C648.8 263.3 648.7 263 649.1 263.5C649.6 264.1 648.3 264.7 648.4 265.1C648.6 265.3 648.8 265.2 649 265.3C649.3 265 649.7 264.1 650 264.1C650 264.1 650.1 264.2 650.1 264.3C650 264.9 649.6 266 649.7 266.4C649.9 267 650.4 266.8 650.8 267.1C651 267.3 650.9 267.6 651.2 267.8C651.5 268 651.9 267.9 652.1 268.1C652.3 268.2 652.3 268.5 652.4 268.6C652.1 268.9 651.5 269.7 651.3 270C651.1 270.4 650.8 271.2 650.8 271.7C651.1 270.5 651.5 270.2 652.3 269.3C652.5 269.1 652.9 269 653.2 268.9C653.3 268.9 653.4 268.9 653.5 268.8H653.4L653 268.7C652.8 268.6 652.7 268.5 652.6 268.4C652.4 268.2 652.5 268 652.4 267.9C652.1 267.6 651.5 267.8 651.1 267.3C650.9 267.1 651 266.9 650.9 266.7C650.7 266.3 650.8 266.6 650.5 266.5C650.2 266.4 650.1 266.4 650 266.2C649.9 266.1 650 265.4 650.1 264.9C650.2 264.4 650.4 263.6 650.5 263.3C650.8 262.5 652.3 262.5 652.2 263.5C652.2 263.6 652.3 263.7 652.4 263.7C653.5 263.2 654.6 264.3 656 266.1C656.6 267.2 655.2 270.2 653.7 271.8C652.2 273.3 652.1 275.2 651.7 275.6L650.8 275.4C649.6 277.5 649 281 648.4 282.4C646.5 287.2 646.9 286.4 645.3 289.8C645 290.3 644.3 291.7 643.8 292.2C640.7 295.3 633.7 296.5 633.5 296.6C633 296.7 628.8 297 628.4 297.1C626.2 297.7 623.6 299 622.2 301.2C621.8 301.6 620.5 303.1 620.2 303.4C618.8 304.7 616 306.8 614.8 308.6C613.8 309.9 612.4 313.5 613.5 314.9C613.2 315.6 613.4 315.2 613.4 315.2C612.9 315.6 610.5 315.9 608.7 315.9C607.7 317.4 605.5 319.7 604 320.9C601.3 322.5 600.8 322.5 599.4 323.3C598 323.9 596.6 324.5 595.2 325C593.5 325.6 588.7 326.8 585.7 328.2C585.5 328.3 585.3 328 585.4 327.8C586.6 326.5 588.6 325.2 589.9 324.8C590 324.8 590.1 324.7 590.2 324.7C590.4 324.7 590.6 324.6 590.7 324.6C590.5 324.6 590.3 324.7 590.2 324.7C598.6 321.1 598.5 321.2 601.7 318.9L584 327.1L583.8 325.9C583.8 326 583.7 326.6 583.7 326.7L582.6 324.8C582.5 324.7 583.4 326.5 583.2 326.6C583.2 326.7 583.1 326.4 583.1 326.5C582.7 326.2 582.1 325.1 581.8 324.8C582.1 325.9 583.2 327.4 583.8 328.4V328.5C583.8 328.6 583.9 328.7 583.9 328.8C583.9 328.8 583.9 328.8 583.9 328.9C583.9 329.1 583.9 329.3 584 329.5L584.2 330.1L584 329.5C584.1 329.6 584.1 329.8 584.3 330C584.4 330.4 584.5 330.8 584.7 331.3L584.8 330.8C585.1 331.1 585.6 331.9 585.9 332.2L586.8 333.9C586.8 333.7 586.4 333 586.4 332.8L587.6 334.8C587.5 334.4 586.4 332.4 586 331.9C585.9 331.6 586.1 332.1 586 331.9C585.9 331.6 585.7 331.3 585.5 330.9L585.1 330.1C585.8 331.1 586.6 332.1 587 333C586.9 332.6 586.7 332.3 586.5 331.9L585 329.4C585 329.3 585 329.3 585.1 329.2C585.2 329.2 585 329.2 585.1 329.2C585.6 329.9 587.1 332.1 587.4 332.6L585.7 329C585.9 328.9 585.9 329 585.9 329C587.3 328.6 590 327.5 591.1 327.2C593 326.7 599.6 324.3 600.6 323.8C606.2 320.9 606.6 320 607.8 319C608.1 318.7 609.2 317.2 609.8 317.2C610.7 317.2 611.1 317.1 612 317.2C612.8 317.3 611.3 322.9 606.1 326.8C610.3 325 612.7 320.3 612.7 320.3C620.1 316.7 635.2 318.3 640.8 324.9C640.5 324 636.1 319.5 636.1 319.5C638.4 316.5 642.2 310.3 649.4 312C650.9 311.2 652 310.3 653.8 310C655.1 309.8 656.5 309.8 657.8 310.1C660.8 310.7 661.3 311.2 661.8 311.7C657.2 310.8 655.9 313.4 655.9 315.4C658.1 314.3 660.4 312.4 663.6 312.8C665.9 313.1 667.4 314.2 667.3 316.4C669.8 317.3 672.3 318.7 674 320.6C675.1 321.8 676.4 323.1 678.1 322.8C679.8 322.5 681.2 321.3 680.2 319.8C682.1 322.5 679.5 324.5 676.3 325.2C676.3 325.3 676.3 325.3 676.3 325.4C678.1 325.5 681.5 325.4 682.3 324.5C683.1 323.8 684 322.1 683.9 320.9C684.5 322.2 685.1 323.5 685 324.9C684.9 326.1 684.4 327.1 683.6 327.8C683.9 327.7 684.1 327.7 684.2 327.6C685 327.2 685.8 326.6 686.5 326.1C687.5 325.3 688.6 324.4 689.2 323.2C690.4 321 690.7 317.8 689.1 315.7C690.8 316.9 691.8 318.2 692.2 320.4C692.9 324.5 690.9 327.2 687.9 329.2C686.4 331.8 684.4 333.8 681.5 335.2C679.2 336.3 676.3 336.2 673.8 335.5C673.5 335.8 673.2 336 672.9 336.1C673.5 336.3 674 337 675.4 336C674.1 340.5 666.9 340.3 664.2 337.3C664.1 337.3 664 337.3 663.9 337.3C663.1 337.3 661.7 337.9 660.9 338.1C658.7 338.4 656 337.9 653.9 337.3C652.3 336.9 650.9 336.2 649.5 335.5C649.8 336.1 650.1 336.6 650.4 337.1C651.8 339.2 652.6 341 655 343C657.6 345.6 659.3 346.1 660.6 346.6C660.7 346.6 660.7 346.8 660.6 346.8C659.4 346.7 658.8 346.9 657.5 346.9C656.8 346.9 655.3 346.5 654.5 346.4C655.4 347.9 660.5 347.4 662.1 347.3C666.2 347.1 672 345.6 676 345H675.7C677.8 343.7 679.4 344.9 681.2 346.7C681.3 346.8 683.8 349 683.9 349C687.4 352 687.5 350.7 688.8 352C690.5 353.6 695 355.3 697 356.6C697.3 356.8 697.5 357 697.9 357.1C698.5 356.7 699 356.1 699.3 355.6C699.1 356.3 699 357 699 357.7C699.1 357.8 699.1 357.8 699.2 357.8C700.4 357.5 701.2 356.5 702.3 355.5C702.3 356.3 702 357.2 702 357.9C703 357.5 703.7 356.6 704.4 355.7C704.2 356.1 704.2 356.6 704 357C705.6 357.6 708.3 354.4 708.7 352.9C709.6 355.4 709.1 357.5 707.8 358.9C710.7 357.6 712.2 355 714.5 356.2C719.9 358.9 724.9 365.5 724.6 369.6C724.5 369.6 724.9 370.9 724.6 369.6ZM586.9 348.9C586.7 348.7 586.1 348.4 585.6 348.1L585 347.5C585 347.5 584.6 347.1 585.6 348.3L589.6 352C589.3 350.7 588 349.7 586.9 348.9ZM588.7 350.2C587.9 348.7 585.4 345.9 584.3 345.2L588.7 350.2ZM589.3 349.5C588.6 347.9 586.9 346.9 585.8 345.9L584.4 344.6C584.6 344.8 585.5 345.8 585.7 346L589.3 349.5ZM585.8 343L583.6 340C583.8 340.6 585.1 342.6 585.7 343.2L589.2 347.5C589.5 346.1 587.3 344.5 585.8 343ZM585.9 341.3C585.8 341.2 585.4 340.9 585.1 340.5L584.2 339.4L582.8 337.6C582.6 337.3 582.8 337.8 583.2 338.5C583.9 340 585.1 341.2 586.3 342.4L587.9 344.7C588.2 345.1 589 346.3 589.4 346.5C588.6 344.7 587 343.2 586.3 342.4L584.7 340.2C584.8 340.3 584.9 340.4 585 340.5L588.5 344.9C588.7 345.2 588.9 345.4 589.1 345.7C588.7 343.9 587.1 342.5 585.9 341.3ZM588.9 343.7C588.6 342.5 587.4 341.3 586.2 340.1L583.5 336.4C583.5 336.6 584.2 337.8 584.4 338.2L583.4 336.8C583.4 336.9 583.5 337 583.6 337.1C583.9 338.2 585.4 339.5 586.5 340.7L588.9 343.7ZM582.7 328.3C582.8 329 583.2 329.7 583.7 330.4C583.7 330.3 583.7 330.2 583.7 330.1C583.9 330.4 584.1 330.8 584.3 331.1L584.7 332C584.5 331.6 584.1 331.2 583.8 330.8C584.3 331.9 584.8 333.1 586 334.2C586 334.2 588.1 336.9 588.5 337.2C588.3 336.4 587.1 334.5 586.4 333.8L584.6 331.6C585.1 332.1 585.6 332.7 586 333.2L587.2 334.7C586.9 334.1 586 332.6 585.5 332L582.7 328.3ZM582 329.8C581.8 331.7 584 333.7 585.1 335.2C585.6 335.9 587.6 338.4 588.2 339L584.3 333.4C585.6 335 587.2 336.9 587.9 337.9L588.1 338.2C588 338.1 588 338 587.9 337.9L582.8 330.5C582.7 330.6 582.7 330.9 582.9 331.3L582 329.8ZM581.2 330.5C581.2 332.8 584.7 335.6 586.1 337.3C586.2 337.4 586.6 337.9 586.7 338.1L589.2 341.5C589.1 341.4 588.4 340 587.9 339.3C587.5 338.8 587.5 338.8 587.1 338.3L585.9 336.8L581.2 330.5ZM573.6 316.7C576.2 316 579.4 313.5 579.6 311.5C579.6 311.4 579.6 311.5 579.7 311.4C579.4 311.5 579.2 311.2 578.8 311.2C578.4 312.4 575.9 315.1 573.6 316.7ZM579.3 358.3L577.3 359.7C577.4 359.6 577.5 359.4 577.6 359.2C577.9 358.5 578.2 357.9 578.4 357.1C578.4 357 578.4 357 578.4 356.9C579.2 356.6 580 356.5 580.8 356.7C579.8 356.2 579 355.3 578.4 354.3C578.3 352.7 572.4 352 573.3 349.2C573.8 347.6 574.9 340.7 574.2 336.7C574.1 336.3 573.6 331.1 573.5 330.7C572.9 328.2 576.4 341.3 576.4 340.6C576.5 333.7 572.5 321.6 573.4 320C574.4 318.2 578.1 316.2 579.9 315.2C585.1 312.1 590.9 309.4 594.2 308C594.2 308 598.5 305.9 592.7 308.1C592.5 308.2 592.5 307.8 592.5 307.6C592.3 307.2 592.1 306.8 592 306.7C591.5 306 593.7 305.5 597 303.1C597.3 302.7 598.7 297.4 601.6 292C600.2 294.3 597.7 299.8 597.1 300.7C594 305 588.7 305.3 585.1 306.7C584.8 306.8 585.2 307.6 585.2 307.6C584.9 307.7 583.5 308 583.3 308.1C582.4 308.9 583.3 310.8 580.8 311.4C579.5 315.4 574.9 317.2 572.9 318.4C572.8 319.4 571.3 320.9 571.6 322.7C571.6 322.9 571.7 323.2 571.7 323.4C571.8 323.2 571.5 334 571.6 333.9C571.7 337.5 572.1 327.5 572.3 329.5C572.5 331.8 572.9 332.9 573.2 335.3C574.4 344.9 571.5 351.6 571.5 351.6C573.8 352.3 577.9 354.8 576.3 358.8C576 359.6 574.6 361.4 573.1 362.2C572.4 362.5 571.7 362.7 571 362.7C572.6 366.6 578.6 359 579.3 358.3ZM584 360.1C581.3 360.3 579.3 360.8 577 362.4L584 360.1ZM589.4 353.8C587.9 352.7 586.3 350.3 584.4 350.7L589.4 353.8ZM681.7 384.8C680.4 383.3 678.9 383.9 676.9 384.2C678.3 383.2 677.9 381.8 678.5 380.2C678.1 381.1 677.4 381.7 676.5 381.8C676.8 381.5 677 380.8 677.3 380.5C675.8 381.8 674.3 381.1 672.4 381.7C672.9 381.2 673.3 380.4 673.4 379.7C672.5 380.5 671.2 381.1 670 381.2C670.5 380.6 671 379.9 671.4 379.2C670.2 380.6 668.9 380.3 667.7 379.7C667.1 379 666.5 378.3 666.1 377.7C664.7 375.8 658.7 369.4 657.4 367.6C656.5 366.4 655.8 365.5 655 364.7C655.1 364.7 654.6 363.4 654.7 363.3C654.3 361.3 652.5 361.9 652.6 361.9C652 362.1 650.9 362.2 650.4 362.3C644 363.4 639.4 362.9 633.3 361.8C628.4 360.9 621.7 358.7 617.6 355.9C616.5 356.5 616.2 356.4 614.4 357.3C614 357.5 613.5 357.8 613.1 357.9C610.9 359.1 608.6 359.6 606.9 360.8C609.2 362.7 613.1 365.5 615.6 366.6C621.2 369 628.1 370.6 634.5 370C635 370 635.6 369.9 636.2 369.8C636.3 369.8 637.2 369.7 638.5 369.4C640.5 369 644.6 368.2 646.4 367.9C650.5 368.1 657 376.8 659.2 379.1C664 384.3 668.7 390.3 674.8 394.5C677.1 396.1 681.5 397.9 686.5 400C686.5 400 686.5 401.2 687 400C688.3 396.8 685.7 389.3 681.7 384.8ZM503.8 329.4C503.9 329.2 503.9 328.9 504 328.7C503.9 328.9 503.8 329.2 503.8 329.4ZM501.8 335C501.8 334.9 501.8 334.8 501.9 334.7C501.8 334.8 501.8 334.9 501.8 335ZM661.3 288.7C661.2 287.6 661.1 286.6 660.9 285.5C660.6 284.5 660.4 283.6 660 282.7C658.8 279.3 657.3 276.7 656.2 275C655.7 274.1 655.2 273.5 654.9 273.1C654.8 272.9 654.1 272.1 654 272L653.9 272.1C654 272.2 654.6 273 654.7 273.2C655 273.7 655.4 274.3 655.9 275.2C656.8 277 658.1 279.6 659.1 283.1C659.3 284 659.6 284.9 659.8 285.8C660 286.7 660 287.7 660 288.8C660 290.9 659.7 293.1 659 295.3C658.6 296.6 657.6 298.1 656.7 299.1C657.2 299.3 658.1 299.6 658.5 299.6C658.5 299.6 658.8 299.3 658.8 299.2C659.6 298.1 660.1 296.9 660.5 295.7C661.2 293.3 661.3 290.9 661.3 288.7ZM653.4 300.7C652.9 300.8 652.1 300.8 651.5 300.7C650.3 300.5 649.2 299.9 648.2 299.2C646.5 298 645.3 296.2 644.4 294.3C644.2 293.8 643.9 293.2 643.7 292.7C643.4 293 643.1 293.2 642.8 293.5C642.6 293.6 642.4 293.7 642.3 293.8C642.5 294.2 642.6 294.6 642.8 295.1C643.7 297.2 645.1 299.2 647.1 300.7C648.3 301.6 649.7 302.3 651.2 302.5C651.9 302.6 652.7 302.7 653.5 302.6C654.1 302.5 655.1 302.2 655.6 301.9C655.3 301.7 653.8 301 653.4 300.7ZM641.7 278.1C641.7 277.9 641.7 277.7 641.7 277.6C641.8 276 642.1 274.4 642.4 273.1C642.8 271.8 643.3 270.5 643.7 269.5C644.1 268.6 644.5 267.9 644.8 267.3V267.2C645 266.7 645.2 266.4 645.2 266.4C645.2 266.4 645.1 266.6 645 266.9C645 266.9 645 266.9 645 266.8C645.2 266.5 645.4 266.2 645.6 266V265.9V265.8C645.3 266 645.1 266.3 644.8 266.6C644.3 267.3 643.7 268.2 643.1 269.2C642.5 270.2 642 271.4 641.5 272.8C641.1 274.2 640.8 275.7 640.5 277.4C640.4 278.2 640.3 279 640.3 279.8C640.7 279.3 641.2 278.7 641.7 278.1ZM643.8 275.9C643.8 273.3 644 271.1 644.3 269.5C644.5 268.5 644.8 267.7 644.9 267.2C644.9 267.1 645 267 645 266.9C644.9 267 644.9 267.1 644.8 267.2C644.6 267.7 644.3 268.4 644 269.4C643.5 271.1 643.1 273.6 643 276.6C643.3 276.5 643.5 276.2 643.8 275.9ZM668.6 291.7C668.2 289.1 667.2 286.8 666.2 284.9C665.1 282.9 663.9 281.2 662.8 279.7C660.5 276.7 658.2 274.6 656.5 273.3C656.1 273 655.7 272.7 655.4 272.5C655.3 272.5 654.6 271.9 654.5 271.9C654.5 271.9 654.5 272 654.4 272C654.5 272 655.2 272.6 655.3 272.7C655.6 273 656 273.3 656.3 273.6C657.8 275 659.9 277.2 662.1 280.3C663.2 281.8 664.2 283.6 665.1 285.5C666 287.5 666.8 289.7 667.1 292C667.3 293.2 667.3 294.4 667.1 295.6C666.9 296.8 666.4 297.9 665.7 298.8C664.9 299.7 664 300.4 662.8 300.6C661.6 300.8 660.3 300.7 659 300.4C658.8 300.3 658.5 300.3 658.3 300.2C657.7 300 657.1 299.8 656.5 299.6C654.9 298.9 653.3 297.9 652 296.8C650 295.1 648.5 293.1 647.3 291C647 290.4 646.7 289.8 646.5 289.3C646.2 289.8 645.9 290.4 645.6 290.9C645.7 291.2 645.9 291.5 646 291.8C647.1 294.1 648.8 296.4 650.9 298.3C652 299.3 653.2 300.1 654.5 300.8C655.2 301.2 655.9 301.5 656.6 301.7C657.3 301.9 657.9 302.1 658.6 302.3C660.1 302.6 661.6 302.8 663.2 302.5C664.8 302.2 666.2 301.2 667.1 300C668 298.8 668.6 297.4 668.8 296C668.9 294.3 668.8 293 668.6 291.7ZM644.9 267.2C644.9 267.2 644.8 267.2 644.9 267.2C644.9 267.2 645 267 645.1 266.9C645.2 266.6 645.3 266.4 645.3 266.4C645.3 266.4 645.1 266.7 644.9 267.2ZM699.9 265.8C699.3 263.7 698.3 261.6 696.9 259.8C694.1 256.1 690.1 253.2 685.5 251.2C681 249.1 675.9 247.8 670.6 247C665.3 246.2 659.7 246.2 654 246.6C648.3 247 642.5 248.1 636.7 249.4C633.7 250.1 630.8 250.8 627.8 251.6C627.6 251.6 627.5 251.7 627.3 251.7C618.6 254.1 609.8 256.9 600.7 259.9C594.5 261.9 588.2 263.9 581.8 265.7C575.4 267.5 568.8 269.1 562 270.1C555.2 271 548.5 271.6 541.8 271.3C535.2 271.1 528.6 270 522.9 267.4C520.1 266.1 517.4 264.3 515.5 262L514.8 261.1L514.3 260.2C514 259.5 513.7 258.8 513.6 258.1C513.3 256.7 513.2 255.2 513.6 253.9C514 252.5 514.7 251.2 515.6 250.1C516.5 249 517.6 248 518.8 247.1C521.2 245.4 523.8 244 526.5 242.8C531.9 240.5 537.6 239.2 543.1 238.3C545.9 237.9 548.6 237.6 551.3 237.5C552.6 237.5 554 237.5 555.4 237.5C556.1 237.5 556.7 237.5 557.4 237.5C558.1 237.5 558.7 237.5 559.4 237.5C570 237.7 579.8 238.7 588.7 240.2C597.6 241.7 605.5 243.7 612.3 246C613.2 246.3 614 246.5 614.8 246.8C615.6 247.1 616.4 247.4 617.2 247.7C618 248 618.8 248.3 619.5 248.5C620.2 248.8 621 249.1 621.7 249.4C623.1 250 624.5 250.5 625.8 251.1C626.3 251.3 626 251.2 626.5 251.4C626.8 251.3 626.8 251.3 627 251.2C626.4 250.9 626.6 251 626 250.7C624.7 250.1 623.4 249.6 621.9 249C621.2 248.7 620.5 248.4 619.7 248.1C618.9 247.8 618.2 247.5 617.4 247.2C616.6 246.9 615.8 246.6 615 246.3C614.2 246 613.4 245.7 612.5 245.4C605.7 243.1 597.8 240.9 588.9 239.3C580 237.7 570.1 236.6 559.5 236.2C558.8 236.2 558.2 236.2 557.5 236.1C556.8 236.1 556.2 236.1 555.5 236.1C554.1 236.1 552.8 236 551.4 236.1C548.6 236.1 545.8 236.4 543 236.8C537.4 237.6 531.6 239 526 241.3C523.2 242.4 520.4 243.9 517.9 245.7C516.6 246.6 515.4 247.7 514.4 249C513.3 250.2 512.5 251.7 512 253.4C511.5 255 511.5 256.8 511.9 258.5C512.1 259.3 512.4 260.1 512.7 260.9L513.3 262L514 263C516.1 265.6 519 267.5 522 268.9C528.1 271.7 534.8 272.8 541.6 273.1C548.4 273.4 555.2 272.8 562.1 271.9C569 270.9 575.6 269.3 582.1 267.4C588.6 265.6 594.9 263.5 601 261.5C610.7 258.3 620.1 255.2 629.3 252.7C629.4 252.7 629.6 252.6 629.7 252.6C632.1 252 634.4 251.4 636.8 250.8C642.6 249.5 648.3 248.4 653.9 247.9C659.5 247.4 665 247.4 670.2 248.1C675.4 248.8 680.4 250.1 684.8 252C689.2 253.9 693.2 256.7 695.9 260.2C697.2 261.9 698.2 263.9 698.8 265.9C699.4 267.9 699.4 270 698.8 271.8C698.5 272.7 697.9 273.5 697.4 274.3C696.8 275 696.1 275.7 695.3 276.2C693.8 277.2 692 277.9 690.3 278.3C688.6 278.7 686.9 278.8 685.2 278.8C683.5 278.8 682 278.6 680.5 278.4C677.5 277.9 674.8 277.1 672.5 276.1C670.2 275.2 668.1 274.2 666.5 273.2C666.1 273 665.7 272.7 665.3 272.5C664.9 272.3 664.6 272 664.2 271.8C663.5 271.4 662.9 271 662.3 270.6C661.2 269.9 660.4 269.3 659.8 268.9C659.3 268.5 659 268.3 659 268.3C659 268.3 659.3 268.5 659.8 268.9C660.3 269.3 661.1 269.9 662.2 270.7C662.7 271.1 663.4 271.5 664 271.9C664.3 272.1 664.7 272.3 665.1 272.6C665.5 272.8 665.9 273.1 666.3 273.3C668 274.3 670 275.3 672.3 276.3C674.6 277.3 677.3 278.2 680.4 278.7C681.9 279 683.5 279.2 685.2 279.2C686.9 279.2 688.6 279.1 690.4 278.8C692.2 278.5 694 277.8 695.6 276.7C696.4 276.2 697.2 275.5 697.9 274.8C698.5 274 699.1 273.1 699.5 272.1C700.5 270.2 700.5 267.9 699.9 265.8ZM639.9 258C638.8 257.3 637.3 256.5 635.6 255.6C634.7 255.1 633.8 254.7 632.8 254.1C632.3 253.8 631.8 253.6 631.3 253.3C631.2 253.2 630.8 253.1 630.7 253C630.6 253 630.5 253 630.3 253.1C630.5 253.2 631 253.4 631.2 253.5C631.7 253.7 632.2 254 632.7 254.3C633.7 254.8 634.6 255.3 635.5 255.7C637.3 256.6 638.7 257.4 639.9 258C642.2 259.4 643.4 260.1 643.4 260.1C643.4 260.1 642.2 259.4 639.9 258Z" fill="url(#paint4_linear_52_4)"/>
<path d="M631.6 323.7H631.5V323.1H631.7C631.8 323.1 631.8 323.1 631.8 323.1V323.2V323.3C631.8 323.3 631.8 323.3 631.7 323.4C631.7 323.4 631.7 323.4 631.7 323.5V323.6H631.5V323.5V323.4L631.6 323.7ZM631.6 323.3C631.6 323.3 631.7 323.3 631.6 323.3C631.7 323.3 631.7 323.2 631.7 323.2C631.7 323.2 631.7 323.2 631.7 323.1C631.7 323.1 631.7 323.1 631.6 323.1V323.3ZM631 323.7V323.3V323.7H631.3L631.4 323.1H631.3V323.5L631.2 323.1H631L630.9 323.5V323.1H630.8L630.9 323.7H631ZM631.9 323.6H632C632.1 323.6 632.1 323.6 632.1 323.6C632.1 323.6 632.2 323.5 632.2 323.4C632.2 323.4 632.2 323.3 632.1 323.3C632.1 323.3 632.1 323.3 632 323.2C632 323.2 631.9 323.2 631.9 323.1C631.9 323.1 631.9 323.1 631.9 323.2H632C632 323.1 632 323.1 631.9 323H631.8H631.7V323.1C631.7 323.2 631.7 323.2 631.8 323.2C631.8 323.2 631.8 323.2 631.9 323.3C631.9 323.3 632 323.3 632 323.4C632 323.4 632 323.5 631.9 323.5C632 323.6 632 323.6 631.9 323.6C632 323.5 632 323.5 632 323.5H631.9V323.6ZM631.9 327.6H631.8V327.9C631.9 327.9 632 327.9 632.1 327.8C632.2 327.7 632.2 327.6 632.2 327.5C632.2 327.4 632.2 327.3 632.1 327.2C632 327.1 632 327.1 631.8 327.1C631.7 327.1 631.6 327.1 631.5 327.2C631.5 327.2 631.4 327.3 631.3 327.4C631.2 327.5 631.2 327.5 631.1 327.5C631 327.5 631 327.5 631 327.4V327.3H631.1H631.2V327H631.1C631 327 630.9 327 630.9 327.1C630.9 327.2 630.8 327.3 630.8 327.4C630.8 327.5 630.8 327.6 630.9 327.7C631 327.8 631.1 327.8 631.2 327.8H631.3C631.4 327.8 631.5 327.8 631.6 327.7C631.6 327.7 631.7 327.6 631.7 327.5C631.7 327.4 631.8 327.4 631.9 327.4H632C631.9 327.4 632 327.5 631.9 327.6C632 327.5 631.9 327.5 631.9 327.6ZM630.9 327.1H632.2V326.7L631.4 326.5L632.2 326.3V325.9H630.9V326.2H631.9L630.9 326.4V326.6L631.9 326.8H630.9V327.1ZM630.9 325.2H632V325.5H632.3V324.7H632V324.9H630.9V325.2ZM630.9 325.8H632.2V325.5H630.9V325.8ZM632.2 324.6V323.9H630.9V324.2H631.5V324.6H631.8V324.2H632V324.6H632.2ZM633.1 324.8V326C634.7 326.6 635.8 328.2 635.8 330C635.8 332.4 633.9 334.3 631.5 334.3C629.1 334.3 627.2 332.4 627.2 330C627.2 328.2 628.3 326.6 629.9 326V324.8C627.7 325.5 626 327.5 626 330C626 333 628.4 335.4 631.4 335.4C634.4 335.4 636.8 333 636.8 330C636.9 327.6 635.3 325.5 633.1 324.8Z" fill="white"/>
<path d="M1199.9 422.2C1186.6 421.1 1101 410.3 1090.7 414C1079.2 418.1 1083.4 415.9 1071.4 412.9C1065.4 411.4 1056.9 410.3 1051.5 411.8C1049.1 410.7 1045.5 408 1043.1 407.7C1038.9 406.6 1029.8 405.8 1026.2 404.7C1019 402.5 1019.6 400.6 1013.6 397.2C1007.6 394.6 1000.9 393.4 994.9 390.8C988.3 387.4 985.9 382.2 976.9 380.3C964.2 378 949 386.6 939.3 390.4C925.9 395.3 922.2 406.1 907.6 410.2C901.5 411.7 894.3 409.8 888.2 412.8C884.5 414.7 884.5 419.5 882.1 420.7C879.8 422.1 877.3 422.5 874.6 422.4V415C874.6 413.8 876.9 413.7 876.9 413.7H879.8C883.3 413.7 883.2 411.6 883.2 411.6L883.1 401.5C883.1 401.5 883.7 399.8 881.6 399.8C879.5 399.8 879.8 401.2 879.8 401.2V410.4C879.8 410.4 879.8 412.3 878.2 412.3C876.6 412.3 876.5 411.2 876.5 411.2L876 390.7C876 390.7 876.2 389.3 874 389.3C871.8 389.3 871.8 390.5 871.8 390.5L872.2 408.1C872.2 408.1 872.6 409.8 870.7 409.8C868.8 409.8 868.9 408.1 868.9 408.1V378.5C868.9 378.5 868.9 377.3 867.3 377.3C865.7 377.3 865.9 378.5 865.9 378.5L866.2 410.2C866.2 410.2 866.1 412.8 864.5 412.8C862.9 412.8 863.3 410.4 863.3 410.4V396.6C863.3 396.6 863.9 394.5 861.6 394.5C859.3 394.5 859.8 396.2 859.8 396.2C859.8 396.2 860.7 411.3 860.7 412.9C860.7 414.8 862.8 415.6 864.8 415.6C868.1 415.6 867.9 417.4 867.9 417.4L868 421.3C859.5 418.6 850.5 412.7 842.8 412.7C834.9 412.7 830.1 416.1 822.8 417.2C816.7 418.3 809.5 417.9 804 419.1C791.3 421.3 777.9 426.6 765.2 429.9C744.6 435.1 734.2 444.3 711.2 445.8L710.8 487.6C670.3 472.5 635.8 457.7 625.1 455C601.3 448.9 536.7 436.1 507.4 439.1C478.1 442.1 463.7 412.7 452.8 413.2C441.9 413.7 432.9 381.2 415.6 380.7C398.2 380.2 383 400.8 363.6 409.4C344.2 418 343.1 414.8 320 404.1C267.2 379.5 245 403.1 225.6 401.1C206.2 399.1 210.7 383.3 205.2 381.3C199.7 379.3 184.8 366.6 183.8 385.9C182.8 405.2 176.4 408.7 168.9 407C161.4 405.3 167.9 366.1 168.9 346.4C169.9 326.6 150 335.7 146.5 335.7C143 335.7 141.5 374.8 142.5 386.5C143.5 398.2 121.2 391.6 117.2 391.1C113.2 390.6 112.7 335.8 113.7 312.9C114.7 290 95.2 293 95.2 293C95.2 293 55.5 288.9 38.1 289.5C20.7 290.1 24.2 310.3 24.2 310.3C24.2 310.3 23.2 346.8 24.2 365.6C25.2 384.4 5.00001 380.6 5.00001 380.6C5.00001 380.6 -11.1 379.8 -17 380.3C-23 380.8 -24.5 401.6 -24.5 401.6L-52.3 410.2L-43.9 595.1H722.9L853.1 523.3C844.6 523.6 834.8 522.7 824.2 520.9L1196.7 520.8L1199.9 422.2Z" fill="url(#paint5_linear_52_4)"/>
<path d="M340 628H1200V459C1177.4 457.2 981.6 424.9 964 431C944.3 437.7 944.5 440.9 924 436" fill="#993118"/>
<path d="M644.9 452.6C647.7 451 651.5 448.6 655.3 446.3C651.1 448.7 646.8 451.1 644.9 452.6Z" fill="#993118"/>
<path d="M844.1 434.3C833.9 430 822.5 428.2 812.3 423.9C801 418.4 797 409.8 781.6 406.8C760 403.1 734.1 417.2 717.5 423.3C694.7 431.3 670.3 447 645.5 453.7C643.3 454.2 643.4 453.7 644.8 452.6C643.8 453.2 642.9 453.7 642.2 454C625.8 463.2 598.6 471.2 578 473.7C575.7 473 573.5 472.3 571.7 471.8C556.4 467.8 538.2 470.3 522.9 468.2C486.2 462.7 476.7 448.4 443.1 442C420.4 437.4 385.8 427.3 355.5 428.1V414.1C355.5 412.3 359 412.1 359 412.1H363.5C368.9 412.1 368.8 408.8 368.8 408.8L368.7 393.3C368.7 393.3 369.6 390.7 366.5 390.7C363.4 390.7 363.8 392.8 363.8 392.8V406.8C363.8 406.8 363.8 409.7 361.3 409.7C358.8 409.7 358.7 408 358.7 408L357.9 376.6C357.9 376.6 358.2 374.5 354.9 374.5C351.6 374.5 351.6 376.3 351.6 376.3L352.2 403.3C352.2 403.3 352.8 405.9 349.9 405.9C347 405.9 347.2 403.3 347.2 403.3V357.9C347.2 357.9 347.1 356.1 344.7 356.1C342.3 356.1 342.6 357.9 342.6 357.9L343.1 406.4C343.1 406.4 343 410.4 340.6 410.4C338.2 410.4 338.8 406.7 338.8 406.7L338.7 385.5C338.7 385.5 339.7 382.3 336.1 382.3C332.5 382.3 333.3 384.9 333.3 384.9C333.3 384.9 334.7 408 334.7 410.4C334.7 413.4 337.9 414.6 340.9 414.6C346 414.6 345.6 417.3 345.6 417.3L345.8 428.8C325.4 431.5 319.3 437.9 303.4 442.1C288.3 445.5 271.5 447 256.4 450.3C241.3 454.7 242.9 457.2 224.7 460.1C215.6 461.6 192.8 462.5 182.2 463.9C176.1 464.4 167.1 467.8 161 469.3C147.2 467.3 126 468.7 110.8 470.7C80.5 474.6 91.2 477.5 62.1 472.1C36.1 467.1 33.5 442.1 0.1 443.5L0 628L865.6 446.5C853.3 442.9 854.4 439.8 844.1 434.3Z" fill="#993118"/>
<path d="M664.6 441C662.1 442.2 658.8 444.2 655.3 446.3C662.5 442.2 669.7 438.5 664.6 441Z" fill="#993118"/>
<path d="M1161.3 421.4V420C1170.3 420 1170 415.8 1170 415.8V411.1V411V369.4C1170 369.4 1169.9 367.4 1167.4 367.4C1164.9 367.4 1165.2 369.4 1165.2 369.4L1165.7 412.2C1165.7 412.2 1165.5 416.6 1163.1 416.6C1160.7 416.6 1161.2 412.5 1161.2 412.5L1160.7 388.1C1160.7 388.1 1161 384.9 1158.3 385C1154.8 385.1 1155.4 387.7 1155.4 387.7C1155.4 387.7 1155.8 395.9 1156.1 407.5C1154.3 407.5 1151.4 407 1151.4 403.7C1151.4 399 1151.2 379.9 1151.2 379.9C1151.2 379.9 1151.4 376.6 1148.1 376.9C1145.8 377.1 1146.3 380.5 1146.3 380.5L1146.9 402.7C1146.9 402.7 1146.8 410 1156.2 410.6C1156.3 414.2 1156.4 417.7 1156.5 421C1139.9 419.4 1123.1 418.1 1105.8 417.6C1078.6 416.7 1055.8 414.6 1027.5 416.4C1020.8 416.7 1014.5 417.3 1008.4 417.9L985.4 420.2C977.4 420.9 969.2 421.5 960.1 421.6C944.9 421.9 926.4 420.4 912.3 421.3C901.4 421.9 891.6 424.3 880.8 424.9C871 425.5 860.1 424.3 851.5 425.5C839.5 426.7 825.4 431.2 814.5 433.7C787.3 439.4 774.3 441.9 739.5 441.6C706.9 441.3 696 442.8 666.7 445.5C638.4 448.2 617 466.2 589.9 465C560.6 464.1 530.1 485.2 500.8 484.6C456.2 483.7 447.5 475.8 413.8 470.4L410.5 469.8C380.1 467.7 365.9 464.7 333.3 464.1C308.3 463.8 286.6 461.4 260.5 460.8C230.1 460.2 229 455.7 202.9 452.9C180.1 450.5 136.6 451.1 112.7 450.8C92 450.8 89.9 451.1 75.7 454.4C70.7 455.4 66.2 456.3 62.1 457.1V447.8C62.1 443.8 65.9 443.4 65.9 443.4H70.8C76.7 443.4 76.6 436.2 76.6 436.2L76.4 402.1C76.4 402.1 77.4 396.3 73.9 396.3C70.4 396.3 70.9 400.8 70.9 400.8V431.6C70.9 431.6 70.9 438 68.2 438C65.5 438 65.4 434.3 65.4 434.3L64.5 365.2C64.5 365.2 64.9 360.6 61.1 360.6C57.3 360.6 57.4 364.6 57.4 364.6L58.1 423.9C58.1 423.9 58.7 429.6 55.6 429.6C52.5 429.6 52.6 423.9 52.6 423.9V324.2C52.6 324.2 52.5 320.2 49.8 320.2C47.1 320.2 47.5 324.2 47.5 324.2L48 430.9C48 430.9 47.8 439.6 45.2 439.6C42.6 439.6 43.2 431.4 43.2 431.4L43.1 384.9C43.1 384.9 44.2 377.8 40.2 377.8C36.2 377.8 37.1 383.5 37.1 383.5C37.1 383.5 38.6 434.2 38.6 439.6C38.6 446.1 42.1 448.8 45.5 448.8C51.1 448.8 50.7 454.8 50.7 454.8V459C37.3 461.2 24.2 462.4 -0.200012 463.3V628.2H1199.8V426C1187.2 424.4 1174.3 422.8 1161.3 421.4Z" fill="#51190B"/>
<path d="M1011.6 437.3C1015.2 435.1 1019.5 432.3 1019 431.5C1018.3 430.4 1007.9 435.6 1004.8 437.2C1004.6 437.2 1004.5 437.2 1004.3 437.2C1006.8 433.7 1023.7 410.8 1023.5 409.6C1023.3 408.3 999.7 435.4 999 435.4C998.3 435.4 1009.9 413.6 1009.3 412.7C1008.7 411.8 994.4 435.2 993.7 434.8C993 434.4 1004 394.2 1003.2 393C1002.4 391.8 990.2 434.7 989 434.6C987.8 434.5 989.6 412.3 989 410.1C988.4 407.9 985.5 433.8 984.3 433.4C983.1 433 982.7 399.8 981.9 396.9C981.1 394 980.6 432 980 432C979.4 432 978.4 422.6 977.4 420.7C976.4 418.8 978 432.6 976.7 432.6C975.4 432.6 971.3 419.6 970 417.1C968.8 414.6 972.9 433.1 971.4 433.1C969.9 433.1 960.3 416.8 958.4 415.4C956.2 413.7 966.2 433 965.2 434.2C964.2 435.4 947 419.2 942.2 416.3C937.4 413.3 961.7 436.3 958.3 436.7C954.8 437.1 943.8 431.1 941.6 431.5C940.3 431.8 945.6 434.7 949.9 437C908.4 436.6 865.9 436.2 826.1 435.7L826 395.3C842.7 394.9 841.6 381.3 841.6 381.3L843.8 354.8C843.8 354.8 844.7 344.8 837.8 344.8C831 344.8 832.1 354.3 832.1 354.3C832.1 354.3 832.6 378.5 832.1 384.2C831.8 387.9 828.3 389 825.9 389.3V355C825.9 355 828.1 335.4 815.2 335.4C802.3 335.4 804.3 351.6 804.3 351.6L806.1 409.4C803.7 409.1 799.9 408.1 799.6 404.3C799.1 398.7 799.6 374.4 799.6 374.4C799.6 374.4 800.8 364.9 793.9 364.9C787 364.9 787.9 374.9 787.9 374.9L790.1 401.4C790.1 401.4 789 415.3 806.1 415.4L806.7 435.5C723.9 434.5 656 433.3 638.4 432C585.6 428.2 579.8 437.7 537.3 463C525.4 470.1 491 474 447 475.8C451.4 473.9 457.2 471.3 455.8 471.1C453.7 470.7 442.6 475.7 439.1 475.4C435.6 475 460 456.3 455.2 458.8C450.4 461.2 433.1 474.4 432.2 473.4C431.2 472.4 441.2 456.7 439 458.1C437.1 459.3 427.5 472.6 426 472.6C424.5 472.6 428.6 457.4 427.4 459.5C426.2 461.6 422 472.1 420.8 472.1C419.6 472.1 421.2 460.8 420.1 462.4C419 464 418.1 471.6 417.5 471.6C416.9 471.6 416.4 440.6 415.6 443C414.9 445.4 414.5 472.5 413.2 472.8C411.9 473.1 409.1 452 408.5 453.8C407.9 455.6 409.6 473.7 408.5 473.8C407.4 473.9 395.1 438.9 394.3 439.9C393.5 440.9 404.5 473.6 403.8 474C403.1 474.4 388.8 455.2 388.2 456C387.6 456.8 399.2 474.5 398.5 474.5C397.8 474.5 374.2 452.4 374 453.4C373.8 454.4 393.5 476.3 393.5 476.3C393.5 476.3 379.3 470.2 378.5 471.3C377.9 472 384.3 475.2 388 477C350.4 477.2 310.3 476.4 273.3 475.2L275 421.3C302 421.1 300.2 399.2 300.2 399.2L303.7 357.5C303.7 357.5 305.1 341.7 294.3 341.7C283.5 341.7 285.4 356.7 285.4 356.7C285.4 356.7 286.1 394.8 285.4 403.7C284.9 409.7 279 411.3 275.2 411.8L278.1 320.9C278.1 320.9 281.2 295.4 260.9 295.4C240.6 295.4 244 326.3 244 326.3L243.9 380.3C240.1 379.8 234.6 378.1 234.1 372.3C233.4 363.5 234.1 325.3 234.1 325.3C234.1 325.3 236 310.3 225.2 310.3C214.4 310.3 215.8 326.1 215.8 326.1L219.3 367.8C219.3 367.8 217.5 389.3 243.8 389.9L243.7 474.3C225.9 473.6 209.3 472.8 194.7 471.9C198.4 468.8 203 464.7 202.5 463.6C201.8 462.1 191.2 469.5 188.3 471.6C188.1 471.6 188 471.6 187.8 471.6C190.3 466.9 207.2 435 207 433.4C206.8 431.6 183.2 469.1 182.5 469.1C181.8 469.1 193.4 439 192.8 437.7C192.2 436.4 177.9 468.8 177.2 468.2C176.5 467.6 187.5 412.1 186.7 410.4C185.9 408.8 173.7 468 172.5 467.9C171.3 467.8 173.1 437 172.5 434C171.9 430.9 169.1 466.8 167.8 466.2C166.6 465.6 166.2 419.8 165.4 415.7C164.7 411.6 164.1 464.2 163.5 464.2C162.9 464.2 161.9 451.3 160.9 448.6C159.8 446 161.5 465.1 160.2 465.1C158.9 465.1 154.8 447.2 153.6 443.6C152.4 440 156.5 465.8 155 465.8C153.5 465.8 143.9 443.3 142.1 441.3C139.9 438.9 149.9 465.7 148.9 467.3C147.9 468.9 130.7 446.6 125.8 442.5C121.7 439.1 138.1 460.7 141.6 468.2C139 467.9 137 467.6 135.7 467.4C134.8 467.2 133.9 467.1 132.9 467C129.5 465.1 126.3 463.2 125.2 463.5C124.5 463.7 125.8 465.1 127.9 466.8C90.8 466.4 -0.100006 499 -0.100006 499V628H1200V438.6C1200 438.6 1115.4 438.1 1011.6 437.3Z" fill="url(#paint6_linear_52_4)"/>
</g>
<defs>
<linearGradient id="paint0_linear_52_4" x1="600" y1="628" x2="600" y2="7.48634e-05" gradientUnits="userSpaceOnUse">
<stop stop-color="#F9E99F"/>
<stop offset="0.8" stop-color="#ABCC9F"/>
<stop offset="1" stop-color="#71BB9A"/>
</linearGradient>
<linearGradient id="paint1_linear_52_4" x1="133.457" y1="210.63" x2="133.457" y2="628.07" gradientUnits="userSpaceOnUse">
<stop stop-color="#F08127"/>
<stop offset="1" stop-color="#FCCA59"/>
</linearGradient>
<linearGradient id="paint2_linear_52_4" x1="1061.8" y1="133.69" x2="1061.8" y2="552.74" gradientUnits="userSpaceOnUse">
<stop stop-color="#F08127"/>
<stop offset="1" stop-color="#FCCA59"/>
</linearGradient>
<radialGradient id="paint3_radial_52_4" cx="0" cy="0" r="1" gradientUnits="userSpaceOnUse" gradientTransform="translate(600 330) scale(145.89 145.89)">
<stop stop-color="#F9E99F"/>
<stop offset="0.8587" stop-color="#F9E99F" stop-opacity="0.8283"/>
<stop offset="1" stop-color="#F9E99F" stop-opacity="0.8"/>
</radialGradient>
<linearGradient id="paint4_linear_52_4" x1="492.853" y1="326.242" x2="724.973" y2="326.242" gradientUnits="userSpaceOnUse">
<stop stop-color="#0E0502"/>
<stop offset="0.05" stop-color="#130602"/>
<stop offset="0.1" stop-color="#140602"/>
<stop offset="0.15" stop-color="#160703"/>
<stop offset="0.2" stop-color="#170703"/>
<stop offset="0.25" stop-color="#190804"/>
<stop offset="0.3" stop-color="#1B0804"/>
<stop offset="0.35" stop-color="#1B0804"/>
<stop offset="0.4" stop-color="#1C0804"/>
<stop offset="0.45" stop-color="#1D0804"/>
<stop offset="0.5" stop-color="#1E0904"/>
<stop offset="0.55" stop-color="#200A04"/>
<stop offset="0.6" stop-color="#210A04"/>
<stop offset="0.65" stop-color="#230B05"/>
<stop offset="0.7" stop-color="#250B05"/>
<stop offset="0.75" stop-color="#270C05"/>
<stop offset="0.8" stop-color="#280C05"/>
<stop offset="0.85" stop-color="#2A0C05"/>
<stop offset="0.9" stop-color="#2C0D05"/>
<stop offset="0.95" stop-color="#2E0E05"/>
<stop offset="1" stop-color="#300F06"/>
</linearGradient>
<linearGradient id="paint5_linear_52_4" x1="573.78" y1="289.416" x2="573.78" y2="595.16" gradientUnits="userSpaceOnUse">
<stop stop-color="#CD4424"/>
<stop offset="1" stop-color="#DA6524"/>
</linearGradient>
<linearGradient id="paint6_linear_52_4" x1="-0.0799164" y1="461.49" x2="1200" y2="461.49" gradientUnits="userSpaceOnUse">
<stop stop-color="#0E0502"/>
<stop offset="0.05" stop-color="#130602"/>
<stop offset="0.1" stop-color="#140602"/>
<stop offset="0.15" stop-color="#160703"/>
<stop offset="0.2" stop-color="#170703"/>
<stop offset="0.25" stop-color="#190804"/>
<stop offset="0.3" stop-color="#1B0804"/>
<stop offset="0.35" stop-color="#1B0804"/>
<stop offset="0.4" stop-color="#1C0804"/>
<stop offset="0.45" stop-color="#1D0804"/>
<stop offset="0.5" stop-color="#1E0904"/>
<stop offset="0.55" stop-color="#200A04"/>
<stop offset="0.6" stop-color="#210A04"/>
<stop offset="0.65" stop-color="#230B05"/>
<stop offset="0.7" stop-color="#250B05"/>
<stop offset="0.75" stop-color="#270C05"/>
<stop offset="0.8" stop-color="#280C05"/>
<stop offset="0.85" stop-color="#2A0C05"/>
<stop offset="0.9" stop-color="#2C0D05"/>
<stop offset="0.95" stop-color="#2E0E05"/>
<stop offset="1" stop-color="#300F06"/>
</linearGradient>
<clipPath id="clip0_52_4">
<rect width="1200" height="628" fill="white"/>
</clipPath>
</defs>
</svg>
