<svg width="101" height="180" viewBox="0 0 101 180" fill="none" xmlns="http://www.w3.org/2000/svg">
<path d="M96.369 49.1234V29.6688C96.369 25.6487 94.4112 22.0877 91.4113 19.8553L90.3789 14.5721L87.996 18.0675C86.779 17.6594 85.4819 17.4311 84.1289 17.4311C80.9711 17.4311 78.0975 18.6432 75.9234 20.6132L70.4289 19.0489L73.2247 24.1378C72.377 25.8017 71.8887 27.677 71.8887 29.6664V71.0653C71.8887 75.4085 71.4199 79.5185 66.45 82.1225V17.2805C66.45 13.2336 64.9148 9.54873 62.4104 6.74314L60.5765 1.41616L59.2842 4.02985C56.7847 2.38293 53.7969 1.41616 50.5857 1.41616C48.3363 1.41616 46.2012 1.89226 44.2603 2.74001L39.6718 0L40.8523 4.78287C39.0402 6.19659 37.5463 7.99169 36.4873 10.0491L31.2599 10.8313L35.1391 13.734C34.8768 14.8757 34.7262 16.0587 34.7262 17.2781V96.2743C29.8073 93.7043 29.9773 89.7862 30.1401 85.9799C30.1692 85.3362 30.1935 84.7216 30.1935 84.1532V52.2399C30.1935 47.7315 27.7377 43.7964 24.0989 41.6734L23.0933 35.965L20.0885 40.2013C19.3938 40.0775 18.6821 40.0022 17.9534 40.0022C15.0287 40.0022 12.3422 41.0369 10.2361 42.7543L7.83621 39.6062L6.74555 47.3404C6.08727 48.8416 5.71319 50.4982 5.71319 52.2423V66.7974L-0.00244141 67.6548L5.71319 71.9325V84.1605C5.71319 87.8187 5.71319 98.9536 13.3405 108.553C19.129 115.841 25.5977 119.909 34.7213 121.925V162.005C33.3756 161.235 32.3821 160.49 31.9254 159.836C31.9254 159.836 31.6995 165.161 30.7935 167.767C29.5717 171.277 24.9005 163.837 24.9005 163.837C24.9005 163.837 25.8066 167.993 23.7686 172.297C21.7281 176.602 17.6497 180.002 17.6497 180.002H91.5352C91.5352 180.002 87.2697 178.778 80.2035 170.483C74.9907 164.364 74.5389 156.885 74.5389 156.885L71.1406 166.176C71.1406 166.176 69.7803 161.758 69.326 158.585C69.326 158.585 68.0678 160.06 66.4549 161.884V107.718C76.5574 105.527 84.3912 101.21 89.1838 95.1739C96.369 86.1232 96.369 75.5737 96.369 71.0701V54.171L100.958 48.7906L96.369 49.1282V49.1234ZM27.1499 171.693C27.1304 171.926 27.0818 172.161 27.0308 172.39C26.9847 172.62 26.8948 172.844 26.8244 173.055C26.647 173.478 26.4187 173.852 26.1758 174.129C26.0519 174.27 25.9159 174.382 25.8041 174.476C25.7021 174.581 25.5685 174.634 25.4762 174.688C25.2843 174.785 25.1726 174.824 25.1726 174.824C25.1726 174.824 25.209 174.697 25.2722 174.508C25.3499 174.328 25.4009 174.049 25.4884 173.76C25.5127 173.602 25.5418 173.439 25.5855 173.274C25.6074 173.097 25.6341 172.917 25.6633 172.732C25.7094 172.356 25.7629 171.957 25.8017 171.547C25.8843 170.733 25.9863 169.888 26.0981 169.229C26.2025 168.574 26.3458 168.1 26.3458 168.1C26.3458 168.1 26.6519 168.496 26.8729 169.159C27.1061 169.817 27.2567 170.745 27.1547 171.69L27.1499 171.693ZM89.145 90.6461C88.8073 91.2121 88.4065 91.6833 88.0397 92.1959L87.7604 92.5724L87.4446 92.944L86.8276 93.6533C85.9677 94.5497 85.0932 95.3998 84.1605 96.1261C82.3241 97.6127 80.3978 98.7593 78.5614 99.6677C76.7275 100.588 74.964 101.247 73.3875 101.759C71.811 102.284 70.407 102.634 69.2532 102.918C68.0897 103.178 67.1739 103.36 66.5472 103.462C65.9205 103.571 65.5877 103.632 65.5877 103.632C65.5877 103.632 65.918 103.557 66.5399 103.413C67.1642 103.285 68.0654 103.042 69.2119 102.748C71.4928 102.111 74.7429 101.084 78.3355 99.2159C80.1258 98.2783 81.9889 97.1099 83.7451 95.6185C84.6414 94.8922 85.4673 94.0444 86.2835 93.1578L86.864 92.4582L87.1482 92.1182L87.4252 91.7416C87.7822 91.234 88.1952 90.736 88.5037 90.204C89.8567 88.1175 90.9449 85.7248 91.7101 83.2083C92.4558 80.6796 92.9076 78.0198 93.0776 75.3405C93.2744 72.666 93.2015 69.9479 93.2307 67.2735C93.2404 64.6015 93.2501 61.9708 93.2598 59.4251C93.2744 54.3338 93.3594 49.5849 93.3983 45.5113C93.4687 41.4402 93.5246 38.0467 93.5659 35.6711C93.6217 33.2955 93.6533 31.9376 93.6533 31.9376C93.6533 31.9376 93.6849 33.2955 93.7408 35.6711C93.7821 38.0467 93.8379 41.4402 93.906 45.5113C93.9424 49.5825 94.0298 54.3338 94.0444 59.4251C94.0541 61.9708 94.0638 64.5991 94.0736 67.2735C94.0614 69.943 94.161 72.6588 93.9764 75.4036C93.7821 78.1388 93.2987 80.8618 92.5141 83.4536C91.7028 86.043 90.5805 88.4745 89.1474 90.651L89.145 90.6461ZM63.2218 64.7108C63.2048 68.8548 63.1197 72.7219 63.0833 76.0376C63.0153 79.3509 62.957 82.1128 62.9181 84.0463C62.8623 85.9799 62.8307 87.0851 62.8307 87.0851C62.8307 87.0851 62.7991 85.9799 62.7432 84.0463C62.7044 82.1128 62.6461 79.3509 62.5781 76.0376C62.5416 72.7219 62.4566 68.8548 62.4396 64.7108C62.4202 60.5668 62.4007 56.1483 62.3789 51.7273C62.3983 47.3088 62.4202 42.8879 62.4372 38.7463C62.4517 34.6023 62.5392 30.7352 62.5756 27.4219C62.6169 24.1062 62.7068 21.3444 62.7432 19.4108C62.7991 17.4773 62.8307 16.372 62.8307 16.372C62.8307 16.372 62.8623 17.4773 62.9181 19.4108C62.9546 21.3444 63.0444 24.1062 63.0857 27.4219C63.1222 30.7376 63.2096 34.6047 63.2242 38.7463C63.2436 42.8903 63.2631 47.3088 63.2849 51.7273C63.2655 56.1458 63.2436 60.5668 63.2242 64.7108H63.2218ZM82.584 22.1192V54.6277L79.5306 54.5961L82.584 58.5822V62.2647C82.584 70.5357 79.9509 75.5421 74.9129 79.6691C76.1445 76.9534 76.4263 73.951 76.4263 71.0653V40.2402L79.1638 35.0784L76.4263 35.5666V29.6688C76.4263 25.9499 79.074 22.8382 82.584 22.1192ZM16.8603 44.6198V59.7798L12.8596 60.7344L16.8603 63.9213V87.4203C16.8603 98.186 16.9744 100.792 22.9791 106.459C29.3943 112.513 21.6601 111.461 16.6392 105.381C12.0434 99.4078 10.7535 92.706 10.394 88.2146L12.8596 82.0302L10.2507 82.8901V52.2399C10.2507 48.3631 13.1316 45.1567 16.8603 44.6223V44.6198ZM28.3936 56.5248C28.43 57.3434 28.5199 58.5118 28.5587 59.9134C28.5976 61.3149 28.6753 62.9521 28.702 64.7035C28.7409 66.4549 28.7482 68.3253 28.7579 70.1957C28.7482 72.0661 28.7433 73.934 28.7045 75.6878C28.6778 77.4416 28.6 79.0764 28.5612 80.478C28.5199 81.882 28.43 83.048 28.3936 83.869C28.3377 84.6876 28.3061 85.154 28.3061 85.154C28.3061 85.154 28.2745 84.6852 28.2187 83.869C28.1822 83.0504 28.0923 81.882 28.0535 80.478C28.0146 79.0764 27.9369 77.4416 27.9077 75.6878C27.8689 73.934 27.864 72.0661 27.8543 70.1957C27.864 68.3253 27.8713 66.4549 27.9102 64.7035C27.9393 62.9497 28.0146 61.3149 28.0535 59.9134C28.0948 58.5093 28.1822 57.3434 28.2187 56.5248C28.2745 55.7062 28.3061 55.2398 28.3061 55.2398C28.3061 55.2398 28.3377 55.7086 28.3936 56.5248ZM39.2588 163.832V84.073L42.6207 80.0675H39.2588V37.8257L41.4863 29.3263L39.2588 30.621V17.2781C39.2588 11.8588 43.0847 7.32369 48.1736 6.21117V18.4197L43.5097 20.2318L48.1736 23.0034V116.186L45.8951 115.632L48.1736 120.67V167.087C45.1154 166.307 41.9818 165.272 39.2758 164.165C39.2734 164.055 39.2588 163.946 39.2588 163.834V163.832ZM34.2404 166.174C33.9027 165.673 33.6307 165.18 33.4679 164.728C33.1108 163.837 33.1254 163.174 33.1254 163.174C33.1254 163.174 33.5383 163.667 34.131 164.325C34.4298 164.655 34.7796 165.025 35.161 165.401C35.5496 165.77 35.9529 166.166 36.395 166.514C36.6014 166.708 36.837 166.859 37.0532 167.034C37.267 167.213 37.5075 167.344 37.7188 167.507C37.9326 167.67 38.1609 167.789 38.3674 167.932C38.5738 168.073 38.7827 168.18 38.9746 168.297C39.169 168.399 39.339 168.527 39.5042 168.608C39.6694 168.688 39.8102 168.773 39.9268 168.838C40.1625 168.977 40.3009 169.069 40.3009 169.069C40.3009 169.069 40.143 169.091 39.8661 169.103C39.5868 169.115 39.1835 169.13 38.7147 169.033C38.4767 168.994 38.2143 168.96 37.9569 168.863C37.6969 168.773 37.4055 168.707 37.1358 168.566C36.8686 168.43 36.5698 168.311 36.3099 168.127C36.0427 167.954 35.7682 167.777 35.5253 167.563C35.2751 167.357 35.0347 167.138 34.8258 166.898C34.5999 166.674 34.4177 166.417 34.2379 166.176L34.2404 166.174Z" fill="#300F07"/>
</svg>
