<svg width="84" height="100" viewBox="0 0 84 100" fill="none" xmlns="http://www.w3.org/2000/svg">
<path d="M49.2576 2.08024H47.7053V1.60385C47.7053 1.38154 47.6855 1.23994 47.6458 1.17907C47.6061 1.1182 47.5399 1.08776 47.4473 1.08776C47.3467 1.08776 47.27 1.12878 47.217 1.21083C47.1668 1.29287 47.1416 1.41727 47.1416 1.584C47.1416 1.79838 47.1707 1.95982 47.229 2.06833C47.2845 2.17685 47.442 2.30785 47.7014 2.46136C48.4451 2.90334 48.9135 3.26593 49.1067 3.54912C49.2999 3.83231 49.3965 4.28885 49.3965 4.91874C49.3965 5.37661 49.3423 5.71405 49.2338 5.93108C49.1279 6.1481 48.9215 6.33072 48.6145 6.47893C48.3074 6.62449 47.9502 6.69727 47.5426 6.69727C47.0953 6.69727 46.7129 6.61258 46.3953 6.4432C46.0803 6.27381 45.8739 6.05811 45.776 5.7961C45.678 5.53408 45.6291 5.16223 45.6291 4.68055V4.25973H47.1813V5.04181C47.1813 5.28265 47.2025 5.43748 47.2448 5.50629C47.2898 5.57511 47.3679 5.60951 47.4791 5.60951C47.5902 5.60951 47.6723 5.56584 47.7252 5.4785C47.7808 5.39116 47.8086 5.26148 47.8086 5.08945C47.8086 4.71099 47.757 4.46352 47.6537 4.34707C47.5479 4.23062 47.2872 4.0361 46.8717 3.76349C46.4561 3.48824 46.1809 3.28842 46.0459 3.16403C45.9109 3.03964 45.7985 2.86761 45.7085 2.64795C45.6211 2.42828 45.5775 2.14773 45.5775 1.80632C45.5775 1.31405 45.6397 0.954106 45.764 0.726497C45.8911 0.498888 46.0949 0.321564 46.3754 0.194527C46.656 0.0648419 46.9947 0 47.3917 0C47.8258 0 48.195 0.070137 48.4993 0.210408C48.8063 0.350679 49.0088 0.528003 49.1067 0.742379C49.2073 0.954109 49.2576 1.31537 49.2576 1.82617V2.08024ZM41.3336 0.13498H42.5166C43.3053 0.13498 43.8386 0.165414 44.1165 0.226286C44.3971 0.287158 44.6247 0.44331 44.7994 0.69474C44.9767 0.943521 45.0653 1.34184 45.0653 1.88969C45.0653 2.3899 45.0031 2.72602 44.8788 2.89805C44.7544 3.07008 44.5095 3.1733 44.1443 3.20771C44.4751 3.28975 44.6975 3.39959 44.8113 3.53721C44.9251 3.67483 44.9952 3.80187 45.0217 3.91832C45.0508 4.03213 45.0653 4.3484 45.0653 4.86713V6.5623H43.5131V4.42647C43.5131 4.08241 43.4853 3.86936 43.4297 3.78731C43.3768 3.70527 43.2352 3.66425 43.0049 3.66425V6.5623H41.3336V0.13498ZM43.0049 1.23465V2.66383C43.1929 2.66383 43.3239 2.63868 43.398 2.58839C43.4747 2.53546 43.5131 2.3674 43.5131 2.08421V1.73089C43.5131 1.5271 43.476 1.39345 43.4019 1.32993C43.3305 1.26641 43.1982 1.23465 43.0049 1.23465ZM41.0001 0.13498L40.2578 6.5623H38.1696C37.979 5.57511 37.811 4.45294 37.6654 3.1958C37.5992 3.73306 37.4444 4.85523 37.2009 6.5623H35.1246L34.3783 0.13498H36.002L36.1727 2.37799L36.3474 4.5416C36.4082 3.42208 36.5617 1.95321 36.8079 0.13498H38.5467C38.5705 0.322889 38.6314 1.02954 38.7293 2.25492L38.9119 4.69643C39.0046 3.14286 39.1594 1.62238 39.3764 0.13498H41.0001ZM44.4954 48.1487V44.9571H45.4749C45.932 44.9571 46.2232 44.9163 46.3483 44.8347C46.4735 44.7531 46.5361 44.617 46.5361 44.4266C46.5361 44.2198 46.4517 44.062 46.283 43.9531C46.1143 43.8497 45.8586 43.798 45.5157 43.798C45.0749 43.798 44.743 43.8579 44.5199 43.9776C44.2968 44.0919 44.0274 44.4157 43.7118 44.949C42.803 46.4781 42.0575 47.4413 41.4752 47.8386C40.8929 48.2358 39.9542 48.4344 38.6591 48.4344C37.7176 48.4344 37.0238 48.3229 36.5776 48.0998C36.1314 47.8821 35.7559 47.4576 35.4511 46.8264C35.1518 46.1951 35.0022 45.4605 35.0022 44.6225C35.0022 43.7028 35.1763 42.9165 35.5246 42.2634C35.8729 41.6159 36.3164 41.1914 36.8551 40.9901C37.3939 40.7887 38.1584 40.6881 39.1488 40.6881H40.0141V43.8797H38.406C37.9108 43.8797 37.5925 43.9232 37.451 44.0103C37.3095 44.1028 37.2388 44.2633 37.2388 44.4919C37.2388 44.7204 37.3286 44.8891 37.5081 44.9979C37.6877 45.1122 37.9544 45.1694 38.3081 45.1694C39.0863 45.1694 39.5951 45.0632 39.8345 44.851C40.0739 44.6334 40.4739 44.0973 41.0344 43.243C41.6004 42.3886 42.0112 41.8227 42.267 41.5451C42.5227 41.2676 42.8765 41.0363 43.3281 40.8513C43.7798 40.6717 44.3566 40.5819 45.0586 40.5819C46.0708 40.5819 46.8109 40.7098 47.2789 40.9656C47.7469 41.2268 48.1115 41.6458 48.3727 42.2226C48.6393 42.7995 48.7726 43.496 48.7726 44.3123C48.7726 45.2047 48.6284 45.9639 48.34 46.5897C48.0516 47.2209 47.687 47.6372 47.2462 47.8386C46.8109 48.0454 46.0681 48.1487 45.0178 48.1487H44.4954ZM48.4951 39.4881H35.2797V36.4843H44.2015L35.2797 35.2844V33.1539L43.9975 31.8887H35.2797V28.8848H48.4951V33.3335C47.7006 33.4641 46.7646 33.6028 45.6871 33.7498L42.3241 34.2232L48.4951 35.0068V39.4881ZM48.4951 27.5216H35.2797V24.0852H48.4951V27.5216ZM48.4951 23.3015H45.8504V21.2609H35.2797V17.8244H45.8504V15.7919H48.4951V23.3015ZM48.4951 9.71883V15.5388H45.8504V13.1553H43.3444V15.2776H40.8303V13.1553H35.2797V9.71883H48.4951ZM56.0626 18.8213V28.2653C61.7232 30.946 66.5077 35.1769 69.8609 40.467C73.214 45.7572 74.9983 51.8897 75.0068 58.153C75.0068 66.9368 71.5174 75.3608 65.3063 81.5718C59.0952 87.7829 50.6711 91.2722 41.8874 91.2721C33.1036 91.2721 24.6797 87.7828 18.4686 81.5717C12.2576 75.3607 8.76824 66.9367 8.7682 58.153C8.77516 51.8883 10.5588 45.7541 13.912 40.4624C17.2652 35.1707 22.0505 30.9386 27.7124 28.2573V18.8349C19.6176 21.7491 12.6177 27.0875 7.66598 34.1231C2.71427 41.1587 0.0514115 49.5496 0.0400391 58.153C0.040098 69.2515 4.44903 79.8955 12.2969 87.7433C20.1448 95.5912 30.7888 100 41.8874 100C52.9859 100 63.6299 95.5912 71.4778 87.7433C79.3257 79.8955 83.7346 69.2515 83.7347 58.153C83.7261 49.5473 81.0646 41.1534 76.1128 34.1151C71.1609 27.0768 64.1596 21.7363 56.0626 18.8213Z" fill="white"/>
</svg>
