<?xml version="1.0" encoding="UTF-8" standalone="no"?>
<!DOCTYPE svg PUBLIC "-//W3C//DTD SVG 1.1//EN" "http://www.w3.org/Graphics/SVG/1.1/DTD/svg11.dtd">
<svg xmlns="http://www.w3.org/2000/svg" xmlns:xlink="http://www.w3.org/1999/xlink" version="1.1" width="1179pt" height="558pt" viewBox="0 0 1179 558">
<g enable-background="new">
<g id="Layer-1" data-name="Layer 1">
<path transform="matrix(1,0,0,-1,0,558)" d="M 0 0 L 1179 0 L 1179 557.999 L 0 557.999 Z "/>
<path transform="matrix(1,0,0,-1,616.8477,314.0703)" d="M 0 0 L -37.287 0 L -37.287 1.621 L -37.287 3.404 L 3.892 3.404 L 3.892 .973 L -40.367 -111.051 L 3.892 -111.051 L 3.892 -112.672 L 3.892 -114.455 L -44.419 -114.455 L -44.419 -111.699 Z " fill="#ffffff"/>
<path transform="matrix(1,0,0,-1,616.8477,314.0703)" stroke-width="1" stroke-linecap="butt" stroke-miterlimit="10" stroke-linejoin="miter" fill="none" stroke="#ffffff" d="M 0 0 L -37.287 0 L -37.287 1.621 L -37.287 3.404 L 3.892 3.404 L 3.892 .973 L -40.367 -111.051 L 3.892 -111.051 L 3.892 -112.672 L 3.892 -114.455 L -44.419 -114.455 L -44.419 -111.699 L 0 0 Z "/>
<path transform="matrix(1,0,0,-1,669.2109,310.66603)" d="M 0 0 L .162 0 L .486 0 L .648 0 L .811 0 L 1.135 0 Z M 13.781 -78.951 L .648 -8.916 L -12.969 -78.951 Z M 25.615 -117.859 L 22.049 -117.859 L 14.754 -82.355 L -13.455 -82.355 L -21.076 -117.859 L -24.643 -117.859 L -.811 0 L 1.945 0 Z " fill="#ffffff"/>
<path transform="matrix(1,0,0,-1,669.2109,310.66603)" stroke-width="1" stroke-linecap="butt" stroke-miterlimit="10" stroke-linejoin="miter" fill="none" stroke="#ffffff" d="M 0 0 L .162 0 L .486 0 L .648 0 L .811 0 L 1.135 0 L 0 0 Z M 13.781 -78.951 L .648 -8.916 L -12.969 -78.951 L 13.781 -78.951 Z M 25.615 -117.859 L 22.049 -117.859 L 14.754 -82.355 L -13.455 -82.355 L -21.076 -117.859 L -24.643 -117.859 L -.811 0 L 1.945 0 L 25.615 -117.859 Z "/>
<clipPath id="cp0">
<path transform="matrix(1,0,0,-1,0,558)" d="M 0 558 L 1179 558 L 1179 0 L 0 0 Z "/>
</clipPath>
<g clip-path="url(#cp0)">
<path transform="matrix(1,0,0,-1,745.0801,376.96479)" d="M 0 0 L 0 3.396 L 21.236 3.234 L 21.236 -26.029 C 21.236 -26.357 21.209 -27.225 21.156 -28.635 C 21.1 -30.043 20.885 -31.723 20.508 -33.672 C 20.127 -35.623 19.453 -37.738 18.48 -40.012 C 17.508 -42.289 16.156 -44.402 14.428 -46.354 C 10.213 -50.908 4.43 -53.182 -2.918 -53.182 C -10.375 -53.182 -16.051 -50.969 -19.941 -46.535 C -21.887 -44.484 -23.32 -42.268 -24.236 -39.889 C -25.156 -37.512 -25.777 -35.268 -26.102 -33.16 C -26.426 -31.053 -26.562 -29.244 -26.506 -27.73 C -26.453 -26.217 -26.426 -25.299 -26.426 -24.975 L -26.426 41.656 C -26.426 50.303 -23.832 57.059 -18.645 61.922 C -16.592 63.758 -14.186 65.217 -11.43 66.299 C -8.674 67.377 -5.836 67.92 -2.918 67.92 C -.219 67.92 2.512 67.402 5.268 66.373 C 8.025 65.338 10.537 63.664 12.807 61.346 C 15.076 59.025 16.914 56.111 18.318 52.6 C 19.723 49.086 20.426 44.898 20.426 40.035 L 17.021 40.035 C 17.021 44.25 16.428 47.898 15.238 50.979 C 14.049 54.059 12.508 56.598 10.619 58.598 C 8.727 60.598 6.592 62.084 4.215 63.057 C 1.836 64.029 -.543 64.516 -2.918 64.516 C -5.406 64.516 -7.863 64.082 -10.295 63.217 C -12.727 62.35 -14.891 60.971 -16.779 59.076 C -18.672 57.182 -20.184 54.801 -21.318 51.934 C -22.453 49.066 -23.021 45.682 -23.021 41.785 L -23.021 -25.1 L -23.021 -25.262 C -23.021 -27.971 -22.887 -30.27 -22.615 -32.166 C -22.348 -34.061 -21.805 -36.088 -20.994 -38.252 C -20.184 -40.416 -18.969 -42.363 -17.348 -44.096 C -13.889 -47.885 -9.078 -49.777 -2.918 -49.777 C 3.457 -49.777 8.43 -47.889 11.996 -44.104 C 13.617 -42.377 14.834 -40.484 15.645 -38.43 C 16.455 -36.377 17.021 -34.457 17.346 -32.674 C 17.67 -30.891 17.832 -28.758 17.832 -26.271 L 17.832 -26.109 L 17.67 -.17 Z " fill="#ffffff"/>
<path transform="matrix(1,0,0,-1,745.0801,376.96479)" stroke-width="1" stroke-linecap="butt" stroke-miterlimit="10" stroke-linejoin="miter" fill="none" stroke="#ffffff" d="M 0 0 L 0 3.396 L 21.236 3.234 L 21.236 -26.029 C 21.236 -26.357 21.209 -27.225 21.156 -28.635 C 21.1 -30.043 20.885 -31.723 20.508 -33.672 C 20.127 -35.623 19.453 -37.738 18.48 -40.012 C 17.508 -42.289 16.156 -44.402 14.428 -46.354 C 10.213 -50.908 4.43 -53.182 -2.918 -53.182 C -10.375 -53.182 -16.051 -50.969 -19.941 -46.535 C -21.887 -44.484 -23.32 -42.268 -24.236 -39.889 C -25.156 -37.512 -25.777 -35.268 -26.102 -33.16 C -26.426 -31.053 -26.562 -29.244 -26.506 -27.73 C -26.453 -26.217 -26.426 -25.299 -26.426 -24.975 L -26.426 41.656 C -26.426 50.303 -23.832 57.059 -18.645 61.922 C -16.592 63.758 -14.186 65.217 -11.43 66.299 C -8.674 67.377 -5.836 67.92 -2.918 67.92 C -.219 67.92 2.512 67.402 5.268 66.373 C 8.025 65.338 10.537 63.664 12.807 61.346 C 15.076 59.025 16.914 56.111 18.318 52.6 C 19.723 49.086 20.426 44.898 20.426 40.035 L 17.021 40.035 C 17.021 44.25 16.428 47.898 15.238 50.979 C 14.049 54.059 12.508 56.598 10.619 58.598 C 8.727 60.598 6.592 62.084 4.215 63.057 C 1.836 64.029 -.543 64.516 -2.918 64.516 C -5.406 64.516 -7.863 64.082 -10.295 63.217 C -12.727 62.35 -14.891 60.971 -16.779 59.076 C -18.672 57.182 -20.184 54.801 -21.318 51.934 C -22.453 49.066 -23.021 45.682 -23.021 41.785 L -23.021 -25.1 L -23.021 -25.262 C -23.021 -27.971 -22.887 -30.27 -22.615 -32.166 C -22.348 -34.061 -21.805 -36.088 -20.994 -38.252 C -20.184 -40.416 -18.969 -42.363 -17.348 -44.096 C -13.889 -47.885 -9.078 -49.777 -2.918 -49.777 C 3.457 -49.777 8.43 -47.889 11.996 -44.104 C 13.617 -42.377 14.834 -40.484 15.645 -38.43 C 16.455 -36.377 17.021 -34.457 17.346 -32.674 C 17.67 -30.891 17.832 -28.758 17.832 -26.271 L 17.832 -26.109 L 17.67 -.17 L 0 0 Z "/>
<path transform="matrix(1,0,0,-1,815.1133,310.66603)" d="M 0 0 L .162 0 L .486 0 L .648 0 L .811 0 L 1.135 0 Z M 13.781 -78.951 L .648 -8.916 L -12.969 -78.951 Z M 25.615 -117.859 L 22.049 -117.859 L 14.754 -82.355 L -13.455 -82.355 L -21.074 -117.859 L -24.643 -117.859 L -.811 0 L 1.945 0 Z " fill="#ffffff"/>
<path transform="matrix(1,0,0,-1,815.1133,310.66603)" stroke-width="1" stroke-linecap="butt" stroke-miterlimit="10" stroke-linejoin="miter" fill="none" stroke="#ffffff" d="M 0 0 L .162 0 L .486 0 L .648 0 L .811 0 L 1.135 0 L 0 0 Z M 13.781 -78.951 L .648 -8.916 L -12.969 -78.951 L 13.781 -78.951 Z M 25.615 -117.859 L 22.049 -117.859 L 14.754 -82.355 L -13.455 -82.355 L -21.074 -117.859 L -24.643 -117.859 L -.811 0 L 1.945 0 L 25.615 -117.859 Z "/>
<path transform="matrix(1,0,0,-1,908.9785,336.9297)" d="M 0 0 C 0 3.891 -.568 7.295 -1.703 10.215 C -2.838 13.133 -4.352 15.508 -6.242 17.348 C -8.135 19.184 -10.27 20.562 -12.646 21.48 C -15.023 22.398 -17.455 22.859 -19.941 22.859 L -33.072 22.859 L -40.854 22.859 L -40.854 -88.191 L -33.072 -88.191 L -19.941 -88.191 C -17.455 -88.191 -15.023 -87.762 -12.646 -86.895 C -10.27 -86.031 -8.135 -84.652 -6.242 -82.76 C -4.352 -80.871 -2.838 -78.492 -1.703 -75.627 C -.568 -72.766 0 -69.332 0 -65.334 Z M -44.258 26.264 L -19.941 26.264 C -17.023 26.264 -14.213 25.75 -11.51 24.723 C -8.811 23.695 -6.432 22.211 -4.377 20.266 C .811 15.402 3.404 8.646 3.404 0 L 3.404 -65.334 C 3.404 -74.197 .811 -80.951 -4.377 -85.598 C -6.432 -87.543 -8.811 -89.029 -11.51 -90.057 C -14.213 -91.084 -17.023 -91.596 -19.941 -91.596 L -33.072 -91.596 L -44.258 -91.596 L -44.258 -89.975 Z " fill="#ffffff"/>
<path transform="matrix(1,0,0,-1,908.9785,336.9297)" stroke-width="1" stroke-linecap="butt" stroke-miterlimit="10" stroke-linejoin="miter" fill="none" stroke="#ffffff" d="M 0 0 C 0 3.891 -.568 7.295 -1.703 10.215 C -2.838 13.133 -4.352 15.508 -6.242 17.348 C -8.135 19.184 -10.27 20.562 -12.646 21.48 C -15.023 22.398 -17.455 22.859 -19.941 22.859 L -33.072 22.859 L -40.854 22.859 L -40.854 -88.191 L -33.072 -88.191 L -19.941 -88.191 C -17.455 -88.191 -15.023 -87.762 -12.646 -86.895 C -10.27 -86.031 -8.135 -84.652 -6.242 -82.76 C -4.352 -80.871 -2.838 -78.492 -1.703 -75.627 C -.568 -72.766 0 -69.332 0 -65.334 L 0 0 Z M -44.258 26.264 L -19.941 26.264 C -17.023 26.264 -14.213 25.75 -11.51 24.723 C -8.811 23.695 -6.432 22.211 -4.377 20.266 C .811 15.402 3.404 8.646 3.404 0 L 3.404 -65.334 C 3.404 -74.197 .811 -80.951 -4.377 -85.598 C -6.432 -87.543 -8.811 -89.029 -11.51 -90.057 C -14.213 -91.084 -17.023 -91.596 -19.941 -91.596 L -33.072 -91.596 L -44.258 -91.596 L -44.258 -89.975 L -44.258 26.264 Z "/>
<path transform="matrix(1,0,0,-1,989.2246,425.4453)" d="M 0 0 L 0 -1.459 L 0 -3.08 L -45.717 -3.08 L -45.717 -1.459 L -45.717 112.996 L -45.717 114.779 L -.648 114.779 L -.648 112.996 L -.648 111.699 L -42.313 111.699 L -42.313 50.418 L -9.727 50.418 L -9.727 48.797 L -9.727 47.338 L -42.313 47.338 L -42.313 0 Z " fill="#ffffff"/>
<path transform="matrix(1,0,0,-1,989.2246,425.4453)" stroke-width="1" stroke-linecap="butt" stroke-miterlimit="10" stroke-linejoin="miter" fill="none" stroke="#ffffff" d="M 0 0 L 0 -1.459 L 0 -3.08 L -45.717 -3.08 L -45.717 -1.459 L -45.717 112.996 L -45.717 114.779 L -.648 114.779 L -.648 112.996 L -.648 111.699 L -42.313 111.699 L -42.313 50.418 L -9.727 50.418 L -9.727 48.797 L -9.727 47.338 L -42.313 47.338 L -42.313 0 L 0 0 Z "/>
<path transform="matrix(1,0,0,-1,1068.0137,310.9902)" d="M 0 0 L 4.377 0 L -25.615 -48.311 C -25.398 -48.42 -25.266 -48.529 -25.209 -48.635 C -25.156 -48.744 -25.074 -48.854 -24.967 -48.959 L 9.402 -116.887 L 5.512 -116.887 L -27.561 -51.553 L -44.744 -79.6 L -44.744 -117.373 L -46.447 -117.373 L -48.148 -117.373 L -48.148 .162 L -46.447 .162 L -44.744 .162 L -44.744 -73.439 Z " fill="#ffffff"/>
<path transform="matrix(1,0,0,-1,1068.0137,310.9902)" stroke-width="1" stroke-linecap="butt" stroke-miterlimit="10" stroke-linejoin="miter" fill="none" stroke="#ffffff" d="M 0 0 L 4.377 0 L -25.615 -48.311 C -25.398 -48.42 -25.266 -48.529 -25.209 -48.635 C -25.156 -48.744 -25.074 -48.854 -24.967 -48.959 L 9.402 -116.887 L 5.512 -116.887 L -27.561 -51.553 L -44.744 -79.6 L -44.744 -117.373 L -46.447 -117.373 L -48.148 -117.373 L -48.148 .162 L -46.447 .162 L -44.744 .162 L -44.744 -73.439 L 0 0 Z "/>
<path transform="matrix(1,0,0,-1,593.5928,133.71881)" d="M 0 0 L -28.271 0 L -28.271 1.459 L -28.271 3.08 L 31.336 3.08 L 31.336 1.459 L 31.336 -.162 L 31.507 0 L 3.576 0 L 3.576 -114.619 L 1.703 -114.619 L 0 -114.619 Z " fill="#ffffff"/>
<path transform="matrix(1,0,0,-1,593.5928,133.71881)" stroke-width="1" stroke-linecap="butt" stroke-miterlimit="10" stroke-linejoin="miter" fill="none" stroke="#ffffff" d="M 0 0 L -28.271 0 L -28.271 1.459 L -28.271 3.08 L 31.336 3.08 L 31.336 1.459 L 31.336 -.162 L 31.507 0 L 3.576 0 L 3.576 -114.619 L 1.703 -114.619 L 0 -114.619 L 0 0 Z "/>
<path transform="matrix(1,0,0,-1,700.7129,130.80081)" d="M 0 0 L 4.599 0 L -26.908 -48.312 C -26.682 -48.421 -26.541 -48.53 -26.482 -48.636 C -26.426 -48.745 -26.341 -48.854 -26.227 -48.96 L 9.878 -116.889 L 5.791 -116.889 L -28.951 -51.554 L -47.004 -79.601 L -47.004 -117.375 L -48.792 -117.375 L -50.58 -117.375 L -50.58 .162 L -48.792 .162 L -47.004 .162 L -47.004 -73.44 Z " fill="#ffffff"/>
<path transform="matrix(1,0,0,-1,700.7129,130.80081)" stroke-width="1" stroke-linecap="butt" stroke-miterlimit="10" stroke-linejoin="miter" fill="none" stroke="#ffffff" d="M 0 0 L 4.599 0 L -26.908 -48.312 C -26.682 -48.421 -26.541 -48.53 -26.482 -48.636 C -26.426 -48.745 -26.341 -48.854 -26.227 -48.96 L 9.878 -116.889 L 5.791 -116.889 L -28.951 -51.554 L -47.004 -79.601 L -47.004 -117.375 L -48.792 -117.375 L -50.58 -117.375 L -50.58 .162 L -48.792 .162 L -47.004 .162 L -47.004 -73.44 L 0 0 Z "/>
<path transform="matrix(1,0,0,-1,755.2109,130.4766)" d="M 0 0 L .17 0 L .511 0 L .681 0 L .851 0 L 1.191 0 Z M 14.476 -78.953 L .681 -8.917 L -13.625 -78.953 Z M 26.908 -117.861 L 23.161 -117.861 L 15.497 -82.357 L -14.136 -82.357 L -22.141 -117.861 L -25.887 -117.861 L -.852 0 L 2.043 0 Z " fill="#ffffff"/>
<path transform="matrix(1,0,0,-1,755.2109,130.4766)" stroke-width="1" stroke-linecap="butt" stroke-miterlimit="10" stroke-linejoin="miter" fill="none" stroke="#ffffff" d="M 0 0 L .17 0 L .511 0 L .681 0 L .851 0 L 1.191 0 L 0 0 Z M 14.476 -78.953 L .681 -8.917 L -13.625 -78.953 L 14.476 -78.953 Z M 26.908 -117.861 L 23.161 -117.861 L 15.497 -82.357 L -14.136 -82.357 L -22.141 -117.861 L -25.887 -117.861 L -.852 0 L 2.043 0 L 26.908 -117.861 Z "/>
<path transform="matrix(1,0,0,-1,812.0908,248.33789)" d="M 0 0 L 0 1.621 L 0 117.861 L 1.788 117.861 L 3.576 117.861 L 3.576 3.081 L 49.218 3.081 L 49.218 1.621 L 49.218 0 Z " fill="#ffffff"/>
<path transform="matrix(1,0,0,-1,812.0908,248.33789)" stroke-width="1" stroke-linecap="butt" stroke-miterlimit="10" stroke-linejoin="miter" fill="none" stroke="#ffffff" d="M 0 0 L 0 1.621 L 0 117.861 L 1.788 117.861 L 3.576 117.861 L 3.576 3.081 L 49.218 3.081 L 49.218 1.621 L 49.218 0 L 0 0 Z "/>
<path transform="matrix(1,0,0,-1,950.377,248.33789)" d="M 0 0 L -.341 0 L -.682 0 L -1.022 0 L -1.192 0 Z M -52.284 117.861 L -52.454 117.861 L -52.625 117.861 L -52.795 117.861 L -52.965 117.861 L -53.136 117.861 L -53.306 117.861 L -53.477 117.861 Z M -51.092 0 L -52.88 0 L -54.668 0 L -54.668 116.24 L -54.668 117.861 L -51.773 117.861 L -4.606 14.591 C -3.925 13.076 -3.44 11.888 -3.153 11.024 C -2.869 10.158 -2.613 9.456 -2.385 8.917 L -2.385 117.861 L -.682 117.861 L 1.192 117.861 L 1.192 0 L -1.884 0 L -48.529 102.46 C -48.758 103 -49.242 104.106 -49.982 105.783 C -50.722 107.458 -51.206 108.783 -51.433 109.755 Z " fill="#ffffff"/>
<path transform="matrix(1,0,0,-1,950.377,248.33789)" stroke-width="1" stroke-linecap="butt" stroke-miterlimit="10" stroke-linejoin="miter" fill="none" stroke="#ffffff" d="M 0 0 L -.341 0 L -.682 0 L -1.022 0 L -1.192 0 L 0 0 Z M -52.284 117.861 L -52.454 117.861 L -52.625 117.861 L -52.795 117.861 L -52.965 117.861 L -53.136 117.861 L -53.306 117.861 L -53.477 117.861 L -52.284 117.861 Z M -51.092 0 L -52.88 0 L -54.668 0 L -54.668 116.24 L -54.668 117.861 L -51.773 117.861 L -4.606 14.591 C -3.925 13.076 -3.44 11.888 -3.153 11.024 C -2.869 10.158 -2.613 9.456 -2.385 8.917 L -2.385 117.861 L -.682 117.861 L 1.192 117.861 L 1.192 0 L -1.884 0 L -48.529 102.46 C -48.758 103 -49.242 104.106 -49.982 105.783 C -50.722 107.458 -51.206 108.783 -51.433 109.755 L -51.092 0 Z "/>
<path transform="matrix(1,0,0,-1,985.7988,248.33789)" d="M 0 0 L 0 117.861 L 1.789 117.861 L 3.577 117.861 L 3.577 0 L 1.789 0 Z " fill="#ffffff"/>
<path transform="matrix(1,0,0,-1,985.7988,248.33789)" stroke-width="1" stroke-linecap="butt" stroke-miterlimit="10" stroke-linejoin="miter" fill="none" stroke="#ffffff" d="M 0 0 L 0 117.861 L 1.789 117.861 L 3.577 117.861 L 3.577 0 L 1.789 0 L 0 0 Z "/>
<path transform="matrix(1,0,0,-1,1043.7012,130.4766)" d="M 0 0 L .17 0 L .511 0 L .681 0 L .851 0 L 1.191 0 Z M 14.476 -78.953 L .681 -8.917 L -13.625 -78.953 Z M 26.908 -117.861 L 23.161 -117.861 L 15.497 -82.357 L -14.136 -82.357 L -22.141 -117.861 L -25.887 -117.861 L -.852 0 L 2.043 0 Z " fill="#ffffff"/>
<path transform="matrix(1,0,0,-1,1043.7012,130.4766)" stroke-width="1" stroke-linecap="butt" stroke-miterlimit="10" stroke-linejoin="miter" fill="none" stroke="#ffffff" d="M 0 0 L .17 0 L .511 0 L .681 0 L .851 0 L 1.191 0 L 0 0 Z M 14.476 -78.953 L .681 -8.917 L -13.625 -78.953 L 14.476 -78.953 Z M 26.908 -117.861 L 23.161 -117.861 L 15.497 -82.357 L -14.136 -82.357 L -22.141 -117.861 L -25.887 -117.861 L -.852 0 L 2.043 0 L 26.908 -117.861 Z "/>
<path transform="matrix(1,0,0,-1,99.7397,486.5498)" stroke-width="4" stroke-linecap="butt" stroke-miterlimit="10" stroke-linejoin="miter" fill="none" stroke="#ffffff" d="M 0 0 C .103 138.392 2.047 276.742 .031 415.13 C 138.497 415.032 276.916 412.977 415.378 415.097 C 415.28 276.707 413.334 138.357 415.346 -.03 C 276.88 .048 138.462 2.14 0 0 Z "/>
<path transform="matrix(1,0,0,-1,514.8501,155.4209)" stroke-width="4" stroke-linecap="butt" stroke-miterlimit="10" stroke-linejoin="miter" fill="none" stroke="#ffffff" d="M 0 0 C -20.972 -8.668 -41.983 -16.075 -63.943 -21.816 "/>
<path transform="matrix(1,0,0,-1,450.9072,177.23679)" stroke-width="4" stroke-linecap="butt" stroke-miterlimit="10" stroke-linejoin="miter" fill="none" stroke="#ffffff" d="M 0 0 C -17.991 -4.006 -35.724 -6.76 -54.097 -8.21 "/>
<path transform="matrix(1,0,0,-1,473.6548,72.026889)" stroke-width="4" stroke-linecap="butt" stroke-miterlimit="10" stroke-linejoin="miter" fill="none" stroke="#ffffff" d="M 0 0 C .361 -17.201 .444 -34.382 -.083 -51.582 "/>
<path transform="matrix(1,0,0,-1,432.0288,181.23929)" stroke-width="4" stroke-linecap="butt" stroke-miterlimit="10" stroke-linejoin="miter" fill="none" stroke="#ffffff" d="M 0 0 C 1.68 16.979 2.399 33.961 2.699 51.014 "/>
<path transform="matrix(1,0,0,-1,391.0635,72.714389)" stroke-width="4" stroke-linecap="butt" stroke-miterlimit="10" stroke-linejoin="miter" fill="none" stroke="#ffffff" d="M 0 0 C 3.185 -20.388 5.745 -40.783 6.676 -61.412 "/>
<path transform="matrix(1,0,0,-1,397.7397,134.126)" stroke-width="4" stroke-linecap="butt" stroke-miterlimit="10" stroke-linejoin="miter" fill="none" stroke="#ffffff" d="M 0 0 C -12.263 -1.596 -24.793 .096 -37.021 1.224 "/>
<path transform="matrix(1,0,0,-1,360.7192,132.90232)" stroke-width="4" stroke-linecap="butt" stroke-miterlimit="10" stroke-linejoin="miter" fill="none" stroke="#ffffff" d="M 0 0 C 2.781 -30.61 2.998 -60.809 -2.549 -91.146 "/>
<path transform="matrix(1,0,0,-1,358.1699,224.04792)" stroke-width="4" stroke-linecap="butt" stroke-miterlimit="10" stroke-linejoin="miter" fill="none" stroke="#ffffff" d="M 0 0 C 36.967 -8.817 72.158 -3.867 108.159 6.912 "/>
<path transform="matrix(1,0,0,-1,514.3369,238.67719)" stroke-width="4" stroke-linecap="butt" stroke-miterlimit="10" stroke-linejoin="miter" fill="none" stroke="#ffffff" d="M 0 0 C -30.926 -12.746 -62.527 -23.77 -96.046 -26.889 "/>
<path transform="matrix(1,0,0,-1,390.4854,228.88959)" stroke-width="4" stroke-linecap="butt" stroke-miterlimit="10" stroke-linejoin="miter" fill="none" stroke="#ffffff" d="M 0 0 C -5.229 -23.515 -12.088 -46.392 -19.257 -69.374 "/>
<path transform="matrix(1,0,0,-1,418.291,265.5659)" stroke-width="4" stroke-linecap="butt" stroke-miterlimit="10" stroke-linejoin="miter" fill="none" stroke="#ffffff" d="M 0 0 C -4.909 -22.862 -10.334 -45.638 -14.331 -68.685 "/>
<path transform="matrix(1,0,0,-1,457.5215,295.0498)" stroke-width="4" stroke-linecap="butt" stroke-miterlimit="10" stroke-linejoin="miter" fill="none" stroke="#ffffff" d="M 0 0 C -2.72 -24.492 -6.759 -49.579 -5.105 -74.218 "/>
<path transform="matrix(1,0,0,-1,453.6445,332.2539)" stroke-width="4" stroke-linecap="butt" stroke-miterlimit="10" stroke-linejoin="miter" fill="none" stroke="#ffffff" d="M 0 0 C 20.363 2.277 40.349 6.313 60.285 10.968 "/>
<path transform="matrix(1,0,0,-1,403.96,334.251)" stroke-width="4" stroke-linecap="butt" stroke-miterlimit="10" stroke-linejoin="miter" fill="none" stroke="#ffffff" d="M 0 0 C -26.283 1.602 -51.4 5.407 -76.437 13.738 "/>
<path transform="matrix(1,0,0,-1,348.9561,258.9287)" stroke-width="4" stroke-linecap="butt" stroke-miterlimit="10" stroke-linejoin="miter" fill="none" stroke="#ffffff" d="M 0 0 C -3.587 -10.449 -7.319 -20.826 -11.123 -31.198 "/>
<path transform="matrix(1,0,0,-1,337.833,290.127)" stroke-width="4" stroke-linecap="butt" stroke-miterlimit="10" stroke-linejoin="miter" fill="none" stroke="#ffffff" d="M 0 0 C -10.207 3.539 -20.333 7.212 -30.401 11.131 "/>
<path transform="matrix(1,0,0,-1,307.4316,278.9961)" stroke-width="4" stroke-linecap="butt" stroke-miterlimit="10" stroke-linejoin="miter" fill="none" stroke="#ffffff" d="M 0 0 C -8.021 -20.986 -15.493 -41.549 -19.26 -63.761 "/>
<path transform="matrix(1,0,0,-1,308.4766,72.46829)" stroke-width="4" stroke-linecap="butt" stroke-miterlimit="10" stroke-linejoin="miter" fill="none" stroke="#ffffff" d="M 0 0 C 5.973 -18.615 11.362 -37.325 15.027 -56.547 "/>
<path transform="matrix(1,0,0,-1,328.7607,175.79001)" stroke-width="4" stroke-linecap="butt" stroke-miterlimit="10" stroke-linejoin="miter" fill="none" stroke="#ffffff" d="M 0 0 C .032 -25.152 -2.229 -48.868 -10.206 -72.823 "/>
<path transform="matrix(1,0,0,-1,328.7607,175.79001)" stroke-width="4" stroke-linecap="butt" stroke-miterlimit="10" stroke-linejoin="miter" fill="none" stroke="#ffffff" d="M 0 0 C -31.788 6.973 -63.522 13.657 -95.713 18.536 "/>
<path transform="matrix(1,0,0,-1,267.1528,72.24271)" stroke-width="4" stroke-linecap="butt" stroke-miterlimit="10" stroke-linejoin="miter" fill="none" stroke="#ffffff" d="M 0 0 C 7.123 -17.203 13.771 -34.482 18.708 -52.458 "/>
<path transform="matrix(1,0,0,-1,285.8613,124.700199)" stroke-width="4" stroke-linecap="butt" stroke-miterlimit="10" stroke-linejoin="miter" fill="none" stroke="#ffffff" d="M 0 0 C -20.908 2.357 -41.817 4.755 -62.739 6.977 "/>
<path transform="matrix(1,0,0,-1,327.5234,320.5127)" stroke-width="4" stroke-linecap="butt" stroke-miterlimit="10" stroke-linejoin="miter" fill="none" stroke="#ffffff" d="M 0 0 C -6.849 -22.995 -8.112 -45.44 -6.646 -69.289 "/>
<path transform="matrix(1,0,0,-1,320.877,389.80183)" stroke-width="4" stroke-linecap="butt" stroke-miterlimit="10" stroke-linejoin="miter" fill="none" stroke="#ffffff" d="M 0 0 C -22.873 4.916 -45.659 10.346 -68.717 14.35 "/>
<path transform="matrix(1,0,0,-1,357.582,362.0254)" stroke-width="4" stroke-linecap="butt" stroke-miterlimit="10" stroke-linejoin="miter" fill="none" stroke="#ffffff" d="M 0 0 C 14.464 -2.763 28.823 -4.832 43.475 -6.324 "/>
<path transform="matrix(1,0,0,-1,287.3394,237.4844)" stroke-width="4" stroke-linecap="butt" stroke-miterlimit="10" stroke-linejoin="miter" fill="none" stroke="#ffffff" d="M 0 0 C -10.196 -32.272 -23.611 -63.252 -30.647 -96.463 "/>
<path transform="matrix(1,0,0,-1,288.1719,342.7568)" stroke-width="4" stroke-linecap="butt" stroke-miterlimit="10" stroke-linejoin="miter" fill="none" stroke="#ffffff" d="M 0 0 C -21.104 6.363 -41.755 11.961 -63.799 13.649 "/>
<path transform="matrix(1,0,0,-1,233.5854,292.4346)" stroke-width="4" stroke-linecap="butt" stroke-miterlimit="10" stroke-linejoin="miter" fill="none" stroke="#ffffff" d="M 0 0 C 9.568 31.818 21.076 63.127 23.69 96.463 "/>
<path transform="matrix(1,0,0,-1,293.9687,205.1885)" stroke-width="4" stroke-linecap="butt" stroke-miterlimit="10" stroke-linejoin="miter" fill="none" stroke="#ffffff" d="M 0 0 C -12.107 3.546 -24.338 6.661 -36.693 9.217 "/>
<path transform="matrix(1,0,0,-1,257.2754,195.97119)" stroke-width="4" stroke-linecap="butt" stroke-miterlimit="10" stroke-linejoin="miter" fill="none" stroke="#ffffff" d="M 0 0 C -31.375 6.469 -62.875 8.167 -94.836 7.241 "/>
<path transform="matrix(1,0,0,-1,200.1089,115.63089)" stroke-width="4" stroke-linecap="butt" stroke-miterlimit="10" stroke-linejoin="miter" fill="none" stroke="#ffffff" d="M 0 0 C 9.334 -.75 13.932 -1.175 23.013 -2.093 "/>
<path transform="matrix(1,0,0,-1,200.1089,115.63089)" stroke-width="4" stroke-linecap="butt" stroke-miterlimit="10" stroke-linejoin="miter" fill="none" stroke="#ffffff" d="M 0 0 C 3.725 -12.834 7.127 -25.656 9.494 -38.82 "/>
<path transform="matrix(1,0,0,-1,209.6025,154.4512)" stroke-width="4" stroke-linecap="butt" stroke-miterlimit="10" stroke-linejoin="miter" fill="none" stroke="#ffffff" d="M 0 0 C 9.631 -.952 14.308 -1.525 23.445 -2.803 "/>
<path transform="matrix(1,0,0,-1,162.439,188.7305)" stroke-width="4" stroke-linecap="butt" stroke-miterlimit="10" stroke-linejoin="miter" fill="none" stroke="#ffffff" d="M 0 0 C -2.772 32.51 -7.709 64.339 -15.04 96.139 "/>
<path transform="matrix(1,0,0,-1,141.8857,71.497989)" stroke-width="4" stroke-linecap="butt" stroke-miterlimit="10" stroke-linejoin="miter" fill="none" stroke="#ffffff" d="M 0 0 C 2.41 -8.6 3.507 -12.813 5.514 -21.094 "/>
<path transform="matrix(1,0,0,-1,100.9272,236.71039)" stroke-width="4" stroke-linecap="butt" stroke-miterlimit="10" stroke-linejoin="miter" fill="none" stroke="#ffffff" d="M 0 0 C 36.186 8.351 72.712 14.33 109.974 12.968 "/>
<path transform="matrix(1,0,0,-1,210.9014,223.74219)" stroke-width="4" stroke-linecap="butt" stroke-miterlimit="10" stroke-linejoin="miter" fill="none" stroke="#ffffff" d="M 0 0 C -9.345 -51.147 -22.229 -101.229 -28.071 -153.018 "/>
<path transform="matrix(1,0,0,-1,157.334,262.9419)" stroke-width="4" stroke-linecap="butt" stroke-miterlimit="10" stroke-linejoin="miter" fill="none" stroke="#ffffff" d="M 0 0 C 15.439 2.949 31.1 4.825 46.817 5.273 "/>
<path transform="matrix(1,0,0,-1,153.0293,300.5732)" stroke-width="4" stroke-linecap="butt" stroke-miterlimit="10" stroke-linejoin="miter" fill="none" stroke="#ffffff" d="M 0 0 C -17.994 -4.947 -35.29 -11.607 -52.508 -18.744 "/>
<path transform="matrix(1,0,0,-1,148.5293,340.8604)" stroke-width="4" stroke-linecap="butt" stroke-miterlimit="10" stroke-linejoin="miter" fill="none" stroke="#ffffff" d="M 0 0 C -3.547 -31.121 -6.079 -62.225 -7.246 -93.528 "/>
<path transform="matrix(1,0,0,-1,141.2832,434.3887)" stroke-width="4" stroke-linecap="butt" stroke-miterlimit="10" stroke-linejoin="miter" fill="none" stroke="#ffffff" d="M 0 0 C 25.162 4.877 50.3 8.329 75.834 10.515 "/>
<path transform="matrix(1,0,0,-1,218.0469,372.55183)" stroke-width="4" stroke-linecap="butt" stroke-miterlimit="10" stroke-linejoin="miter" fill="none" stroke="#ffffff" d="M 0 0 C -1.45 -17.115 -1.458 -34.169 -.93 -51.322 "/>
<path transform="matrix(1,0,0,-1,218.0469,372.55183)" stroke-width="4" stroke-linecap="butt" stroke-miterlimit="10" stroke-linejoin="miter" fill="none" stroke="#ffffff" d="M 0 0 C 11.926 .35 22.34 -1.04 34.113 -2.9 "/>
<path transform="matrix(1,0,0,-1,254.1401,425.09773)" stroke-width="4" stroke-linecap="butt" stroke-miterlimit="10" stroke-linejoin="miter" fill="none" stroke="#ffffff" d="M 0 0 C 38.423 -3.731 76.844 -8.081 115.167 -12.714 "/>
<path transform="matrix(1,0,0,-1,369.3076,437.8115)" stroke-width="4" stroke-linecap="butt" stroke-miterlimit="10" stroke-linejoin="miter" fill="none" stroke="#ffffff" d="M 0 0 C 5.466 -16.569 12.461 -32.431 19.89 -48.196 "/>
<path transform="matrix(1,0,0,-1,359.5059,397.22273)" stroke-width="4" stroke-linecap="butt" stroke-miterlimit="10" stroke-linejoin="miter" fill="none" stroke="#ffffff" d="M 0 0 C -1.712 11.644 -2.377 23.436 -1.924 35.197 "/>
<path transform="matrix(1,0,0,-1,359.5059,397.22273)" stroke-width="4" stroke-linecap="butt" stroke-miterlimit="10" stroke-linejoin="miter" fill="none" stroke="#ffffff" d="M 0 0 C 15.221 -2.532 30.413 -4.636 45.751 -6.324 "/>
<path transform="matrix(1,0,0,-1,405.2568,403.5469)" stroke-width="4" stroke-linecap="butt" stroke-miterlimit="10" stroke-linejoin="miter" fill="none" stroke="#ffffff" d="M 0 0 C 2.369 -13.164 5.769 -25.985 9.493 -38.819 "/>
<path transform="matrix(1,0,0,-1,414.75,442.3662)" stroke-width="4" stroke-linecap="butt" stroke-miterlimit="10" stroke-linejoin="miter" fill="none" stroke="#ffffff" d="M 0 0 C 16.027 -1.293 32.085 -2.212 48.157 -2.695 "/>
<path transform="matrix(1,0,0,-1,462.9072,445.0615)" stroke-width="4" stroke-linecap="butt" stroke-miterlimit="10" stroke-linejoin="miter" fill="none" stroke="#ffffff" d="M 0 0 C -2.64 12.861 -4.838 25.812 -6.6 38.823 "/>
<path transform="matrix(1,0,0,-1,401.0566,368.3496)" stroke-width="4" stroke-linecap="butt" stroke-miterlimit="10" stroke-linejoin="miter" fill="none" stroke="#ffffff" d="M 0 0 C 9.41 -.797 14.302 -1.072 24.556 -1.273 "/>
<path transform="matrix(1,0,0,-1,425.6123,369.623)" stroke-width="4" stroke-linecap="butt" stroke-miterlimit="10" stroke-linejoin="miter" fill="none" stroke="#ffffff" d="M 0 0 C 10.253 -.202 15.595 -.148 26.804 .355 "/>
</g>
</g>
</g>
</svg>
